<svg width="37" height="37" viewBox="0 0 37 37" fill="none" xmlns="http://www.w3.org/2000/svg">
<path d="M13.6667 32H8.66667C6.89856 32 5.20286 31.2976 3.95262 30.0474C2.70238 28.7971 2 27.1014 2 25.3333V10.3333C2 8.56522 2.70238 6.86953 3.95262 5.61929C5.20286 4.36905 6.89856 3.66667 8.66667 3.66667H27C28.7681 3.66667 30.4638 4.36905 31.714 5.61929C32.9643 6.86953 33.6667 8.56522 33.6667 10.3333V15.3333M12 2V5.33333M23.6667 2V5.33333M2 12H33.6667M29.5 24.7383L27 27.2383" stroke="#22B77E" stroke-width="3.33333" stroke-linecap="round" stroke-linejoin="round"/>
<path d="M27 35.3333C31.6024 35.3333 35.3333 31.6023 35.3333 27C35.3333 22.3976 31.6024 18.6666 27 18.6666C22.3976 18.6666 18.6667 22.3976 18.6667 27C18.6667 31.6023 22.3976 35.3333 27 35.3333Z" stroke="#22B77E" stroke-width="3.33333" stroke-linecap="round" stroke-linejoin="round"/>
</svg>
