<svg width="124" height="25" viewBox="0 0 124 25" fill="none" xmlns="http://www.w3.org/2000/svg">
<path d="M70.8724 5.17498C70.0926 4.71813 67.9779 4.21104 65.1913 7.04007C64.9018 7.334 62.8388 10.0153 64.6244 12.1763C65.9634 13.7969 68.802 12.7417 70.5821 10.8892C72.2922 9.10947 72.4176 6.42433 71.0708 5.3114C71.0194 5.26896 70.9531 5.22224 70.8724 5.17498ZM62.6449 0.290286C62.4294 0.165543 62.1994 0.076071 61.9585 0.02776C61.2618 -0.112002 58.8285 0.127018 57.5958 4.33176C57.4797 4.72772 56.9303 8.06577 59.5256 9.12527C61.4718 9.91978 63.4738 7.64757 64.166 5.17342C64.7376 3.13076 63.9616 1.05249 62.6449 0.290286ZM72.0751 14.4742C71.2471 13.9909 69.4395 13.5979 66.7894 15.6291C66.4823 15.8645 64.2199 18.0879 65.6114 20.3338C66.655 22.0179 69.4351 21.4098 71.3291 19.9204C73.1487 18.4895 73.6051 16.0075 72.49 14.7946C72.405 14.7021 72.2661 14.5858 72.0751 14.4742ZM53.8106 4.19966C53.4402 3.97324 53.0369 3.84569 52.625 3.84412C51.9549 3.84122 49.7458 4.50159 49.3633 8.59327C49.3273 8.97857 49.4209 12.1494 52.0142 12.6546C53.9589 13.0336 55.4019 10.5807 55.5964 8.17911C55.7365 6.44869 54.9218 4.87901 53.8106 4.19966ZM59.5006 13.7826C58.956 13.5493 54.5223 14.6782 53.2147 15.5814C49.7245 17.9924 50.3479 21.6591 53.2429 21.7913C55.2033 21.8809 55.6591 20.8941 56.5406 21.0817C57.2567 21.2341 57.4037 22.0246 58.1042 22.9262C60.1771 25.5945 63.3592 23.5247 63.3057 21.7476C63.22 18.9017 60.677 14.7431 59.5006 13.7826Z" fill="#22937E"/>
<rect x="83.525" y="11.9583" width="39.975" height="1" fill="#22937E"/>
<rect x="0.5" y="12.3" width="39.975" height="1" fill="#22937E"/>
<rect x="79.0833" y="18.45" width="29.3833" height="1" fill="#22937E"/>
<rect x="11.0917" y="18.7917" width="29.3833" height="2" fill="#22937E"/>
</svg>
