<svg width="40" height="40" viewBox="0 0 40 40" fill="none" xmlns="http://www.w3.org/2000/svg">
<path d="M18.75 13.75C18.75 13.4185 18.6183 13.1005 18.3839 12.8661C18.1495 12.6317 17.8315 12.5 17.5 12.5C17.1685 12.5 16.8505 12.6317 16.6161 12.8661C16.3817 13.1005 16.25 13.4185 16.25 13.75V15.335L14.8775 14.5425C14.7353 14.4591 14.578 14.4047 14.4147 14.3824C14.2513 14.36 14.0852 14.3702 13.9258 14.4124C13.7664 14.4545 13.617 14.5278 13.486 14.6279C13.3551 14.728 13.2452 14.8531 13.1628 14.9958C13.0804 15.1386 13.027 15.2963 13.0057 15.4597C12.9845 15.6232 12.9958 15.7893 13.039 15.9484C13.0822 16.1075 13.1564 16.2564 13.2574 16.3867C13.3584 16.517 13.4842 16.626 13.6275 16.7075L15 17.5L13.6275 18.2925C13.4842 18.374 13.3584 18.483 13.2574 18.6133C13.1564 18.7436 13.0822 18.8925 13.039 19.0516C12.9958 19.2107 12.9845 19.3768 13.0057 19.5403C13.027 19.7037 13.0804 19.8614 13.1628 20.0042C13.2452 20.1469 13.3551 20.272 13.486 20.3721C13.617 20.4722 13.7664 20.5455 13.9258 20.5876C14.0852 20.6298 14.2513 20.64 14.4147 20.6176C14.578 20.5953 14.7353 20.5409 14.8775 20.4575L16.25 19.665V21.25C16.25 21.5815 16.3817 21.8995 16.6161 22.1339C16.8505 22.3683 17.1685 22.5 17.5 22.5C17.8315 22.5 18.1495 22.3683 18.3839 22.1339C18.6183 21.8995 18.75 21.5815 18.75 21.25V19.665L20.1225 20.4575C20.2647 20.5409 20.422 20.5953 20.5853 20.6176C20.7487 20.64 20.9148 20.6298 21.0742 20.5876C21.2336 20.5455 21.383 20.4722 21.514 20.3721C21.6449 20.272 21.7548 20.1469 21.8372 20.0042C21.9196 19.8614 21.973 19.7037 21.9943 19.5403C22.0155 19.3768 22.0042 19.2107 21.961 19.0516C21.9178 18.8925 21.8436 18.7436 21.7426 18.6133C21.6416 18.483 21.5158 18.374 21.3725 18.2925L20 17.5L21.3725 16.7075C21.5158 16.626 21.6416 16.517 21.7426 16.3867C21.8436 16.2564 21.9178 16.1075 21.961 15.9484C22.0042 15.7893 22.0155 15.6232 21.9943 15.4597C21.973 15.2963 21.9196 15.1386 21.8372 14.9958C21.7548 14.8531 21.6449 14.728 21.514 14.6279C21.383 14.5278 21.2336 14.4545 21.0742 14.4124C20.9148 14.3702 20.7487 14.36 20.5853 14.3824C20.422 14.4047 20.2647 14.4591 20.1225 14.5425L18.75 15.335V13.75ZM13.75 25C13.4185 25 13.1005 25.1317 12.8661 25.3661C12.6317 25.6005 12.5 25.9185 12.5 26.25C12.5 26.5815 12.6317 26.8995 12.8661 27.1339C13.1005 27.3683 13.4185 27.5 13.75 27.5H26.25C26.5815 27.5 26.8995 27.3683 27.1339 27.1339C27.3683 26.8995 27.5 26.5815 27.5 26.25C27.5 25.9185 27.3683 25.6005 27.1339 25.3661C26.8995 25.1317 26.5815 25 26.25 25H13.75ZM13.75 30C13.4185 30 13.1005 30.1317 12.8661 30.3661C12.6317 30.6005 12.5 30.9185 12.5 31.25C12.5 31.5815 12.6317 31.8995 12.8661 32.1339C13.1005 32.3683 13.4185 32.5 13.75 32.5H26.25C26.5815 32.5 26.8995 32.3683 27.1339 32.1339C27.3683 31.8995 27.5 31.5815 27.5 31.25C27.5 30.9185 27.3683 30.6005 27.1339 30.3661C26.8995 30.1317 26.5815 30 26.25 30H13.75Z" fill="#22B77E"/>
<path d="M35 35V11.25L23.75 0H10C8.67392 0 7.40215 0.526784 6.46447 1.46447C5.52678 2.40215 5 3.67392 5 5V35C5 36.3261 5.52678 37.5979 6.46447 38.5355C7.40215 39.4732 8.67392 40 10 40H30C31.3261 40 32.5979 39.4732 33.5355 38.5355C34.4732 37.5979 35 36.3261 35 35ZM23.75 7.5C23.75 8.49456 24.1451 9.44839 24.8483 10.1517C25.5516 10.8549 26.5054 11.25 27.5 11.25H32.5V35C32.5 35.663 32.2366 36.2989 31.7678 36.7678C31.2989 37.2366 30.663 37.5 30 37.5H10C9.33696 37.5 8.70107 37.2366 8.23223 36.7678C7.76339 36.2989 7.5 35.663 7.5 35V5C7.5 4.33696 7.76339 3.70107 8.23223 3.23223C8.70107 2.76339 9.33696 2.5 10 2.5H23.75V7.5Z" fill="#22B77E"/>
</svg>
