<svg width="364" height="133" viewBox="0 0 364 133" fill="none" xmlns="http://www.w3.org/2000/svg">
<path d="M38.7107 34.2976C36.796 34.5914 35.2495 35.3648 34.0774 36.6114C32.9589 37.7876 32.2836 39.4563 32.0498 41.616C31.9385 44.1307 32.0136 47.3621 32.2762 51.3143C32.6015 55.2564 33.1322 59.4429 33.8626 63.8802C34.593 68.317 35.4307 72.8286 36.3716 77.418C37.363 81.9354 38.3618 86.1425 39.3649 90.0342C40.3682 93.9268 41.2474 97.091 42.0053 99.5264C43.137 102.774 44.5868 105.224 46.3475 106.878C48.1192 108.594 50.369 109.239 53.1139 108.827C56.0921 108.381 58.1004 107.006 59.149 104.679C60.2642 102.407 60.6231 99.7765 60.2076 96.7878C59.8515 94.227 59.262 91.2907 58.434 87.9873C57.9312 85.8034 57.3732 83.6129 56.7875 81.4148C57.8488 82.609 59.1206 83.645 60.6168 84.515C63.2148 86.0258 66.5421 86.5119 70.627 86.0022C76.5112 85.2681 80.9355 82.4814 83.9682 77.5694C86.9866 72.6086 88.0616 65.306 87.0861 55.6937C86.4827 49.7475 85.1096 44.9083 82.9259 41.1701C80.7374 37.3734 77.9661 34.6656 74.6137 33.0598C71.2631 31.4549 67.5553 30.898 63.5225 31.4024C59.2335 31.9389 55.6688 33.5642 52.8607 36.2512C50.9818 38.0491 49.6317 40.2505 48.7827 42.831C47.6745 39.9641 46.4134 37.8266 44.9956 36.437C43.2365 34.6411 41.1366 33.9253 38.7107 34.2976ZM59.0334 45.1012C59.21 45.0779 59.3605 45.0709 59.4768 45.0786C59.7984 45.0982 60.1121 45.1722 60.413 45.2929C62.2557 46.0318 63.5917 48.5243 63.1835 51.1972C62.689 54.4355 60.4886 57.6301 57.8626 56.969C54.3494 56.0845 54.4684 51.7879 54.5494 51.2682C55.3026 46.4396 57.7993 45.2766 59.0334 45.1012ZM48.0386 51.5658C48.5714 51.4918 49.1153 51.5753 49.6349 51.7917C51.1957 52.4412 52.5229 54.2683 52.6509 56.4742C52.8286 59.5361 51.4191 62.8822 48.8765 62.7697C45.4756 62.6192 44.7529 58.6557 44.726 58.1641C44.4401 52.94 47.1688 51.6888 48.0386 51.5658ZM69.9847 49.8961C70.8051 49.8063 71.4535 49.9583 71.8575 50.1299C71.9689 50.1773 72.0619 50.2259 72.1348 50.2716C74.0458 51.4738 74.2648 54.8854 72.338 57.3924C70.3313 60.0035 66.8781 61.7832 64.9038 59.9571C62.2649 57.5163 64.4751 53.8096 64.8075 53.3836C66.77 50.8677 68.6176 50.046 69.9847 49.8961ZM58.4338 62.8337C58.5146 62.8286 58.5794 62.83 58.6253 62.8437C60.308 63.8626 64.2056 68.6547 64.7819 72.2482C65.1425 74.4971 61.4783 77.5937 58.4284 74.6091C57.3918 73.5947 57.0663 72.6236 56.1376 72.558C54.9931 72.4771 54.5945 73.7986 52.1108 74.0434C48.476 74.4017 46.9315 69.9248 50.9421 66.2315C52.3575 64.9281 57.2032 62.916 58.4338 62.8337C58.4339 62.8338 58.4338 62.8337 58.4338 62.8337ZM72.6326 61.4537C73.5569 61.32 74.2885 61.4833 74.7821 61.6964C75.0424 61.8089 75.2366 61.9356 75.3586 62.04C76.9608 63.409 76.7284 66.6116 74.6381 68.6883C72.4614 70.8508 69.0509 72.0473 67.4658 70.0915C65.3437 67.4731 67.8561 64.319 68.2169 63.9668C69.936 62.2885 71.4443 61.6255 72.6326 61.4537Z" fill="#22B77E"/>
<path d="M137.257 82.9335C134.121 83.0771 132.001 82.3889 130.887 80.8434C129.772 79.2387 129.11 76.6514 128.914 73.0857C129.381 73.2143 129.846 73.3433 130.312 73.4727C127.372 80.3603 121.309 84.0396 112.053 84.7378C107.84 85.0557 104.291 84.5819 101.383 83.2918C98.4755 82.0019 96.2049 80.2049 94.5756 77.8853C93.0016 75.4993 92.0587 72.8068 91.7653 69.8035C91.2623 64.6546 92.7385 60.389 96.2561 57.0381C99.7723 53.6886 104.717 51.7438 111.038 51.2776C114.979 50.9869 118.464 51.3426 121.473 52.3284C124.546 53.3104 127.134 54.8 129.235 56.7845C128.362 56.7697 127.488 56.756 126.614 56.7436C126.198 51.5834 124.961 47.9859 122.878 45.9488C120.795 43.8532 117.911 42.9203 114.248 43.1749C112.48 43.2978 110.7 43.7045 108.914 44.3955C107.122 45.025 105.337 45.6906 103.558 46.3923C101.841 47.0888 100.075 47.5167 98.2527 47.6769C95.9915 47.8757 94.1782 47.4253 92.8044 46.317C91.4308 45.2088 90.646 43.6762 90.4575 41.7145C90.1984 39.0177 91.1678 36.4779 93.3948 34.1078C95.6208 31.7387 98.6749 29.7653 102.556 28.214C106.495 26.5963 110.829 25.6224 115.53 25.3086C121.584 24.9045 126.876 25.7533 131.354 27.8127C135.898 29.8693 139.179 33.2205 141.204 37.8257C142.802 41.2776 143.987 45.2082 144.772 49.6185C145.555 53.9675 146.025 58.633 146.198 63.62C146.37 68.6033 146.166 72.498 145.596 75.2891C145.023 78.021 144.033 79.9683 142.626 81.1328C141.277 82.234 139.489 82.8314 137.257 82.9335ZM118.042 71.2511C119.509 71.1523 120.932 70.8442 122.313 70.3261C123.755 69.8043 124.942 69.086 125.874 68.1681C126.867 67.2469 127.33 66.1417 127.257 64.8503C127.192 63.6819 126.737 62.751 125.891 62.0595C125.042 61.3065 123.926 60.8165 122.545 60.5927C121.161 60.3075 119.693 60.2157 118.145 60.3184C115.482 60.4952 113.382 61.1712 111.853 62.3336C110.385 63.4921 109.72 64.9029 109.847 66.5607C109.969 68.1575 110.774 69.3924 112.254 70.2707C113.73 71.0881 115.657 71.4117 118.042 71.2511Z" fill="#22B77E"/>
<path d="M149.686 44.0035C149.494 37.5976 150.368 32.9556 152.344 30.0646C154.382 27.1766 157.184 25.691 160.725 25.6296C162.977 25.5905 164.724 26.1843 165.959 27.4015C167.194 28.6193 168.042 30.2742 168.508 32.3644C169.038 34.4543 169.311 36.7919 169.332 39.3791C169.346 41.1658 169.332 43.2589 169.288 45.662C169.308 48.0026 169.296 50.4353 169.255 52.9612C169.213 55.4866 169.14 57.8284 169.035 59.9848C169.158 59.9848 169.282 59.9811 169.406 59.9811C170.96 53.0694 172.594 47.61 174.287 43.6016C176.043 39.5318 177.825 36.6375 179.614 34.9187C181.403 33.1382 183.168 32.256 184.892 32.2715C186.014 32.2815 187.122 32.6213 188.212 33.2908C188.92 33.7266 189.621 34.3017 190.313 35.0161C192.133 36.7686 193.894 39.6338 195.578 43.6113C197.263 47.5273 198.898 52.771 200.462 59.3423C200.586 59.346 200.709 59.349 200.833 59.3523C200.806 55.717 200.784 51.8661 200.765 47.7997C200.748 43.6706 200.783 39.9161 200.871 36.529C200.987 32.0952 201.931 28.888 203.722 26.905C205.578 24.8645 208.089 23.8941 211.239 24.0091C215.032 24.1477 217.704 25.6523 219.242 28.4938C220.848 31.2795 221.53 34.9777 221.312 39.5923C221.153 42.9761 220.792 46.5948 220.236 50.4533C219.683 54.2493 218.984 57.9161 218.143 61.4532C217.303 64.9902 216.397 68.064 215.428 70.6725C213.913 74.5519 212.179 77.4714 210.223 79.4311C208.266 81.3916 205.876 82.3239 203.035 82.2396C200.859 82.1749 198.678 81.2555 196.474 79.4815C194.27 77.7078 192.2 74.7433 190.244 70.5869C189.373 68.7075 188.566 66.5424 187.825 64.0922C186.903 61.0439 186.08 57.5516 185.357 53.6181C185.232 53.6181 185.107 53.6144 184.983 53.6144C183.549 60.3123 181.752 65.6318 179.596 69.5639C177.5 73.437 175.251 76.2093 172.831 77.8828C170.472 79.5564 168.182 80.4077 165.943 80.4355C162.979 80.4725 160.421 79.4104 158.248 77.2386C156.075 75.0068 154.37 71.5053 153.135 66.7338C152.456 64.3493 151.86 61.8085 151.348 59.1122C150.897 56.3522 150.506 53.6528 150.177 51.0127C149.911 48.3704 149.746 46.0352 149.686 44.0029L149.686 44.0035Z" fill="#22B77E"/>
<path d="M253.81 26.3472C260.385 26.8533 265.014 28.3466 267.676 30.7469C270.412 33.0951 271.606 35.9623 271.291 39.3346C271.102 41.3583 270.22 42.9765 268.653 44.1938C267.148 45.4171 265.146 45.916 262.638 45.6994C260.632 45.5261 258.526 45.0404 256.315 44.2443C254.104 43.4482 251.549 42.94 248.655 42.7273C246.83 42.5932 245.421 42.8336 244.431 43.4437C243.44 44.0539 242.91 44.8822 242.839 45.9266C242.767 46.9712 243.179 47.8631 244.071 48.6042C244.968 49.285 246.9 49.9123 249.872 50.5065C254.522 51.2885 258.393 52.382 261.471 53.7589C264.556 55.0754 266.798 56.9503 268.199 59.3682C269.6 61.7876 270.106 64.9589 269.735 68.8842C269.172 74.8323 266.589 78.9743 262.032 81.3519C257.477 83.6703 251.418 84.5102 243.793 83.9611C238.588 83.5863 234.45 82.8332 231.356 81.6612C228.324 80.4936 226.154 78.9902 224.848 77.1327C223.545 75.2141 222.947 73.0883 223.065 70.7512C223.177 68.5372 224 66.8515 225.542 65.6995C227.15 64.4894 228.975 63.9417 231.01 64.06C232.429 64.1424 233.929 64.4176 235.508 64.8867C237.086 65.3556 238.755 65.865 240.51 66.4156C242.265 66.9662 244.063 67.3084 245.907 67.4426C249.286 67.6885 251.057 66.8128 251.214 64.7845C251.267 64.109 251.127 63.5113 250.794 62.9915C250.467 62.4103 249.791 61.8951 248.768 61.4478C247.746 61.0008 246.158 60.5736 244.01 60.1754C239.954 59.4574 236.468 58.5566 233.543 57.4549C230.685 56.2959 228.469 54.6631 226.893 52.5438C225.384 50.3678 224.712 47.4655 224.897 43.8377C225.189 38.1192 227.821 33.5918 232.876 30.3036C237.923 27.0203 244.934 25.664 253.81 26.3472Z" fill="#22B77E"/>
<path d="M283.301 105.657C278.96 105.181 277.046 102.39 277.581 97.2404C277.804 95.0967 278.655 92.7372 280.145 90.1697C281.696 87.6084 283.716 85.0354 286.212 82.4593C288.776 79.8285 291.639 77.4229 294.803 75.248C294.723 75.6728 294.642 76.0976 294.562 76.5224C288.026 69.3724 283.1 62.9467 279.865 57.1626C276.632 51.3825 275.22 45.9924 275.71 40.9626C276.045 37.529 277.186 34.9485 279.149 33.224C281.174 31.5068 283.747 30.807 286.853 31.1353C291.352 31.6111 295.06 34.6605 297.916 40.2611C300.78 45.805 302.6 53.8653 303.373 64.4512C303.497 64.4664 303.62 64.4816 303.743 64.4964C306.501 53.7195 309.743 45.9373 313.483 41.1302C317.218 36.3284 321.223 34.2112 325.44 34.7842C327.958 35.1264 329.74 36.1523 330.782 37.8528C331.888 39.5628 332.239 41.8205 331.843 44.6262C331.568 46.5784 330.889 48.9069 329.811 51.6171C328.733 54.3277 327.307 57.2978 325.537 60.5361C323.837 63.7219 321.844 67.0527 319.563 70.5373C317.351 73.9687 314.934 77.4057 312.317 80.8543C305.575 89.7958 299.999 96.267 295.448 100.259C290.962 104.253 286.934 106.056 283.301 105.657Z" fill="#22B77E"/>
</svg>
