<svg width="114" height="32" viewBox="0 0 114 32" fill="none" xmlns="http://www.w3.org/2000/svg">
<path d="M3.02247 3.87916C2.30118 3.98986 1.7186 4.28118 1.27708 4.7508C0.855733 5.19386 0.601358 5.82247 0.513273 6.63603C0.471353 7.58333 0.499617 8.80063 0.598551 10.2894C0.721076 11.7744 0.920996 13.3515 1.19616 15.023C1.47129 16.6944 1.78685 18.3939 2.14131 20.1228C2.51478 21.8245 2.89102 23.4093 3.26888 24.8754C3.64684 26.3417 3.97802 27.5337 4.26353 28.4511C4.68985 29.6745 5.23599 30.5975 5.89928 31.2205C6.56666 31.8668 7.41419 32.1098 8.44819 31.9548C9.57008 31.7865 10.3266 31.2686 10.7216 30.3923C11.1417 29.5363 11.2769 28.5453 11.1204 27.4195C10.9863 26.4548 10.7642 25.3487 10.4523 24.1043C10.2629 23.2816 10.0527 22.4564 9.83205 21.6284C10.2318 22.0782 10.7109 22.4685 11.2746 22.7963C12.2533 23.3654 13.5067 23.5485 15.0455 23.3565C17.262 23.0799 18.9287 22.0302 20.0711 20.1798C21.2082 18.3111 21.6131 15.5602 21.2457 11.9392C21.0183 9.69922 20.5011 7.87625 19.6785 6.46805C18.8541 5.03782 17.8101 4.01779 16.5473 3.4129C15.285 2.80832 13.8883 2.59851 12.3692 2.78853C10.7535 2.99062 9.41064 3.60289 8.35282 4.61509C7.64503 5.29235 7.13643 6.12166 6.81661 7.09375C6.39914 6.01378 5.9241 5.20854 5.39001 4.68508C4.72734 4.00857 3.93629 3.73891 3.02247 3.87916ZM10.6781 7.94892C10.7446 7.94015 10.8013 7.9375 10.8451 7.94042C10.9663 7.9478 11.0844 7.97566 11.1978 8.02114C11.8919 8.2995 12.3952 9.23843 12.2414 10.2453C12.0552 11.4652 11.2263 12.6686 10.237 12.4196C8.91362 12.0864 8.95842 10.4678 8.98896 10.2721C9.27269 8.45311 10.2132 8.015 10.6781 7.94892ZM6.53631 10.3842C6.73701 10.3563 6.94192 10.3878 7.13764 10.4693C7.72561 10.7139 8.22554 11.4022 8.27378 12.2332C8.34072 13.3866 7.80976 14.6471 6.85193 14.6047C5.5708 14.548 5.29855 13.0549 5.28842 12.8698C5.18075 10.9018 6.20867 10.4305 6.53631 10.3842ZM14.8035 9.7552C15.1125 9.72137 15.3568 9.77863 15.509 9.84327C15.551 9.86112 15.586 9.8794 15.6134 9.89665C16.3333 10.3495 16.4158 11.6347 15.69 12.5791C14.934 13.5627 13.6332 14.2331 12.8895 13.5452C11.8954 12.6257 12.728 11.2294 12.8532 11.0689C13.5925 10.1212 14.2885 9.81165 14.8035 9.7552ZM10.4522 14.6288C10.4826 14.6269 10.5071 14.6274 10.5244 14.6326C11.1582 15.0164 12.6265 16.8216 12.8436 18.1753C12.9794 19.0225 11.5991 20.189 10.4502 19.0647C10.0597 18.6825 9.93709 18.3167 9.58724 18.292C9.1561 18.2615 9.00595 18.7593 8.0703 18.8516C6.70107 18.9865 6.11924 17.3001 7.63006 15.9088C8.16325 15.4178 9.98865 14.6598 10.4522 14.6288C10.4522 14.6288 10.4522 14.6288 10.4522 14.6288ZM15.8009 14.109C16.1491 14.0586 16.4247 14.1201 16.6107 14.2004C16.7087 14.2428 16.7819 14.2905 16.8279 14.3298C17.4314 14.8456 17.3439 16.052 16.5564 16.8343C15.7365 17.6489 14.4517 18.0996 13.8546 17.3629C13.0552 16.3765 14.0016 15.1884 14.1375 15.0557C14.7852 14.4234 15.3533 14.1737 15.8009 14.109Z" fill="#22B77E"/>
<path d="M40.1453 22.2005C38.9639 22.2546 38.1651 21.9953 37.7456 21.4132C37.3254 20.8087 37.0763 19.834 37.0025 18.4908C37.1781 18.5392 37.3536 18.5878 37.529 18.6366C36.4216 21.2312 34.1376 22.6172 30.6507 22.8802C29.0636 22.9999 27.7269 22.8214 26.6314 22.3354C25.5361 21.8496 24.6807 21.1726 24.067 20.2988C23.474 19.4 23.1189 18.3857 23.0083 17.2544C22.8188 15.3147 23.3749 13.7079 24.7 12.4456C26.0246 11.1838 27.8874 10.4512 30.2684 10.2756C31.7531 10.1661 33.0659 10.3001 34.1995 10.6714C35.3568 11.0414 36.3319 11.6025 37.1234 12.35C36.7943 12.3445 36.4651 12.3393 36.1359 12.3347C35.9791 10.3908 35.5132 9.0356 34.7287 8.2682C33.9439 7.47878 32.8575 7.12736 31.4776 7.22326C30.8117 7.26955 30.1412 7.42279 29.4682 7.68307C28.7934 7.92021 28.1207 8.17094 27.4505 8.43527C26.8039 8.69767 26.1384 8.85885 25.4522 8.91917C24.6003 8.99407 23.9173 8.82443 23.3997 8.40691C22.8823 7.98947 22.5867 7.41213 22.5157 6.67312C22.4181 5.65725 22.7832 4.70048 23.6222 3.80765C24.4607 2.91521 25.6112 2.17183 27.0731 1.58746C28.5572 0.978032 30.1895 0.611177 31.9605 0.492975C34.2411 0.34075 36.2348 0.660499 37.9217 1.43625C39.6332 2.21099 40.8692 3.4734 41.6319 5.20822C42.234 6.50855 42.6804 7.98922 42.9761 9.6506C43.271 11.2889 43.4482 13.0464 43.5132 14.925C43.5781 16.8022 43.5011 18.2694 43.2864 19.3208C43.0707 20.3499 42.6977 21.0835 42.1677 21.5222C41.6594 21.937 40.9862 22.162 40.1453 22.2005ZM32.9067 17.7997C33.4596 17.7625 33.9955 17.6464 34.5158 17.4512C35.0591 17.2546 35.5061 16.9841 35.8572 16.6383C36.2313 16.2913 36.4057 15.8749 36.3783 15.3885C36.3535 14.9483 36.1824 14.5977 35.8637 14.3372C35.5437 14.0535 35.1234 13.8689 34.6032 13.7846C34.0817 13.6772 33.5288 13.6426 32.9457 13.6813C31.9426 13.7479 31.1515 14.0026 30.5756 14.4404C30.0226 14.8768 29.7719 15.4083 29.8196 16.0328C29.8656 16.6343 30.1689 17.0995 30.7265 17.4304C31.2827 17.7383 32.0084 17.8602 32.9067 17.7997Z" fill="#22B77E"/>
<path d="M44.8271 7.53542C44.7548 5.12229 45.084 3.37363 45.8287 2.28458C46.5964 1.19665 47.652 0.637042 48.9857 0.613891C49.8342 0.599163 50.4923 0.82285 50.9573 1.2814C51.4225 1.74015 51.7422 2.36354 51.9177 3.15093C52.1173 3.9382 52.22 4.8188 52.2279 5.79339C52.2334 6.46645 52.2279 7.25493 52.2116 8.16019C52.2189 9.04191 52.2145 9.9583 52.1989 10.9098C52.1834 11.8611 52.1556 12.7433 52.116 13.5556C52.1627 13.5556 52.2093 13.5542 52.256 13.5542C52.8414 10.9506 53.457 8.89401 54.0946 7.38404C54.7559 5.85094 55.4274 4.76063 56.1013 4.11313C56.7752 3.44243 57.4399 3.11011 58.0896 3.11593C58.5124 3.11969 58.9296 3.24772 59.34 3.49993C59.6069 3.66407 59.8708 3.8807 60.1315 4.14985C60.8173 4.80999 61.4806 5.88934 62.1149 7.3877C62.7497 8.86286 63.3657 10.8382 63.9547 13.3136C64.0013 13.315 64.048 13.3161 64.0947 13.3174C64.0846 11.9479 64.0761 10.4973 64.0691 8.96547C64.0627 7.41001 64.0757 5.9957 64.1091 4.71975C64.1527 3.04951 64.508 1.84136 65.1829 1.09434C65.8819 0.325686 66.828 -0.0398596 68.0145 0.00347611C69.4434 0.0556516 70.4501 0.62246 71.0294 1.69288C71.6345 2.74223 71.8913 4.13538 71.8093 5.8737C71.7491 7.14841 71.6132 8.51157 71.4038 9.96508C71.1955 11.3951 70.9321 12.7764 70.6154 14.1088C70.2988 15.4412 69.9578 16.5991 69.5924 17.5817C69.0218 19.0431 68.3688 20.1429 67.6319 20.8811C66.8947 21.6196 65.9942 21.9709 64.9241 21.9391C64.1042 21.9147 63.2828 21.5684 62.4524 20.9001C61.6222 20.2319 60.8427 19.1152 60.1056 17.5495C59.7774 16.8415 59.4737 16.0259 59.1945 15.1029C58.8471 13.9546 58.537 12.639 58.2647 11.1573C58.2177 11.1573 58.1707 11.1559 58.1237 11.1559C57.5835 13.679 56.9067 15.6829 56.0945 17.1641C55.305 18.6231 54.4578 19.6675 53.5463 20.2979C52.6573 20.9283 51.795 21.249 50.9515 21.2595C49.8347 21.2734 48.8713 20.8733 48.0527 20.0552C47.2342 19.2145 46.5918 17.8954 46.1266 16.098C45.8708 15.1998 45.6462 14.2426 45.4536 13.2269C45.2836 12.1872 45.1363 11.1704 45.0124 10.1758C44.9121 9.18043 44.8501 8.30076 44.8271 7.53518L44.8271 7.53542Z" fill="#22B77E"/>
<path d="M84.0512 0.884229C86.528 1.07488 88.2719 1.63739 89.2747 2.54158C90.305 3.42616 90.7551 4.50624 90.6363 5.77661C90.5649 6.53897 90.2328 7.14855 89.6424 7.60711C89.0756 8.0679 88.3214 8.25585 87.3768 8.17426C86.621 8.10897 85.8278 7.92603 84.9948 7.6261C84.1619 7.32623 83.1992 7.1348 82.1091 7.05467C81.4218 7.00414 80.891 7.0947 80.5179 7.32452C80.1447 7.55439 79.9452 7.86642 79.9183 8.25985C79.8914 8.65334 80.0465 8.98935 80.3823 9.26852C80.7202 9.52496 81.4483 9.76128 82.5676 9.98511C84.3195 10.2797 85.7774 10.6916 86.937 11.2103C88.0992 11.7062 88.9439 12.4125 89.4714 13.3233C89.9992 14.2347 90.1899 15.4294 90.05 16.908C89.838 19.1487 88.8649 20.709 87.1485 21.6047C85.4325 22.4781 83.1501 22.7944 80.2777 22.5876C78.3169 22.4464 76.7583 22.1627 75.5925 21.7212C74.4504 21.2814 73.633 20.715 73.141 20.0153C72.6504 19.2926 72.425 18.4918 72.4695 17.6114C72.5116 16.7774 72.8216 16.1423 73.4027 15.7084C74.0081 15.2525 74.6958 15.0462 75.4624 15.0908C75.9967 15.1218 76.5618 15.2255 77.1566 15.4022C77.7513 15.5788 78.3797 15.7707 79.0409 15.9781C79.7021 16.1855 80.3795 16.3145 81.0742 16.365C82.3471 16.4577 83.0141 16.1278 83.0733 15.3637C83.0931 15.1092 83.0405 14.8841 82.9152 14.6883C82.7917 14.4693 82.5373 14.2752 82.1518 14.1067C81.7667 13.9384 81.1687 13.7774 80.3594 13.6274C78.8316 13.357 77.5182 13.0176 76.4165 12.6026C75.34 12.166 74.5051 11.5509 73.9115 10.7526C73.3429 9.93286 73.09 8.83956 73.1596 7.47296C73.2694 5.31879 74.2611 3.61328 76.1653 2.37459C78.0666 1.13779 80.7075 0.626859 84.0512 0.884229Z" fill="#22B77E"/>
<path d="M95.1604 30.7606C93.5253 30.5812 92.8043 29.5297 93.0059 27.5899C93.0898 26.7824 93.4103 25.8935 93.9718 24.9263C94.5561 23.9615 95.3168 22.9922 96.2571 22.0218C97.2229 21.0308 98.3014 20.1246 99.4934 19.3053C99.4632 19.4653 99.4329 19.6253 99.4027 19.7853C96.9404 17.0919 95.0847 14.6713 93.8661 12.4925C92.6483 10.3151 92.1164 8.28459 92.301 6.38986C92.4271 5.09641 92.8571 4.12431 93.5966 3.47467C94.3594 2.82781 95.3286 2.56418 96.4986 2.68788C98.1935 2.86708 99.5902 4.01581 100.666 6.1256C101.745 8.21399 102.431 11.2503 102.722 15.2381C102.768 15.2438 102.815 15.2495 102.861 15.2551C103.9 11.1954 105.121 8.26385 106.53 6.45298C107.937 4.64414 109.446 3.84656 111.035 4.06243C111.983 4.19133 112.654 4.57778 113.047 5.21837C113.463 5.86255 113.596 6.71302 113.446 7.76992C113.343 8.50535 113.087 9.3825 112.681 10.4035C112.275 11.4245 111.738 12.5434 111.071 13.7633C110.431 14.9634 109.68 16.2181 108.82 17.5307C107.987 18.8234 107.077 20.1181 106.091 21.4172C103.551 24.7855 101.451 27.2232 99.7363 28.7269C98.0464 30.2315 96.5293 30.9108 95.1604 30.7606Z" fill="#22B77E"/>
</svg>
