<svg width="202" height="64" viewBox="0 0 202 64" fill="none" xmlns="http://www.w3.org/2000/svg">
<path d="M4.51857 7.75832C3.2293 7.97972 2.18799 8.56235 1.39879 9.50159C0.645668 10.3877 0.19099 11.6449 0.0335425 13.2721C-0.0413867 15.1667 0.00913371 17.6013 0.185972 20.5788C0.404977 23.5488 0.762322 26.703 1.25416 30.0461C1.74593 33.3888 2.30998 36.7879 2.94356 40.2456C3.6111 43.649 4.2836 46.8187 4.95901 49.7507C5.63458 52.6834 6.22656 55.0674 6.73688 56.9022C7.4989 59.3489 8.47508 61.195 9.66068 62.4409C10.8536 63.7336 12.3685 64.2196 14.2167 63.9095C16.222 63.573 17.5743 62.5372 18.2803 60.7845C19.0312 59.0727 19.2729 57.0906 18.9931 54.839C18.7533 52.9096 18.3564 50.6973 17.7989 48.2086C17.4603 46.5632 17.0847 44.9128 16.6902 43.2568C17.4048 44.1565 18.2612 44.937 19.2687 45.5925C21.018 46.7308 23.2584 47.097 26.0089 46.713C29.9709 46.1599 32.9499 44.0604 34.9919 40.3596C37.0243 36.6221 37.7481 31.1203 37.0913 23.8783C36.685 19.3984 35.7604 15.7525 34.2901 12.9361C32.8165 10.0756 30.9505 8.03558 28.6933 6.8258C26.4371 5.61663 23.9405 5.19703 21.2252 5.57707C18.3372 5.98125 15.937 7.20577 14.0462 9.23018C12.7811 10.5847 11.872 12.2433 11.3003 14.1875C10.5541 12.0276 9.70505 10.4171 8.7504 9.37017C7.56591 8.01714 6.15196 7.47782 4.51857 7.75832ZM18.2025 15.8978C18.3214 15.8803 18.4227 15.875 18.501 15.8808C18.7176 15.8956 18.9288 15.9513 19.1314 16.0423C20.3722 16.599 21.2717 18.4769 20.9969 20.4906C20.6639 22.9304 19.1823 25.3372 17.4142 24.8391C15.0486 24.1727 15.1287 20.9356 15.1833 20.5441C15.6904 16.9062 17.3715 16.03 18.2025 15.8978ZM10.7993 20.7683C11.1581 20.7126 11.5243 20.7755 11.8742 20.9385C12.9251 21.4279 13.8187 22.8044 13.9049 24.4664C14.0246 26.7732 13.0755 29.2942 11.3635 29.2094C9.07355 29.096 8.58692 26.1099 8.56881 25.7395C8.37636 21.8036 10.2137 20.861 10.7993 20.7683ZM25.5764 19.5104C26.1288 19.4427 26.5654 19.5572 26.8374 19.6865C26.9124 19.7222 26.975 19.7588 27.0241 19.7933C28.3109 20.699 28.4583 23.2693 27.1609 25.1581C25.8097 27.1253 23.4846 28.4662 22.1552 27.0904C20.3784 25.2515 21.8666 22.4588 22.0904 22.1379C23.4118 20.2424 24.6558 19.6233 25.5764 19.5104ZM17.7988 29.2577C17.8531 29.2538 17.8968 29.2549 17.9277 29.2652C19.0607 30.0328 21.6851 33.6432 22.0731 36.3506C22.316 38.045 19.8487 40.3779 17.7951 38.1293C17.0972 37.3651 16.878 36.6334 16.2527 36.584C15.482 36.523 15.2136 37.5187 13.5412 37.7031C11.0938 37.973 10.0538 34.6001 12.7543 31.8176C13.7074 30.8356 16.9702 29.3196 17.7988 29.2577C17.7988 29.2577 17.7988 29.2576 17.7988 29.2577ZM27.3593 28.2179C27.9816 28.1172 28.4743 28.2402 28.8066 28.4008C28.9819 28.4856 29.1126 28.581 29.1948 28.6597C30.2736 29.6911 30.1171 32.104 28.7097 33.6686C27.244 35.2978 24.9476 36.1992 23.8803 34.7257C22.4514 32.753 24.1431 30.3767 24.386 30.1113C25.5436 28.8469 26.5591 28.3474 27.3593 28.2179Z" fill="white"/>
<path d="M70.8734 44.4009C68.7616 44.5091 67.3339 43.9906 66.584 42.8262C65.8331 41.6172 65.3877 39.6679 65.2559 36.9815C65.5697 37.0784 65.8834 37.1756 66.1969 37.273C64.2175 42.4622 60.1349 45.2343 53.9025 45.7603C51.0655 45.9998 48.6762 45.6428 46.7181 44.6708C44.7603 43.699 43.2315 42.3451 42.1344 40.5976C41.0746 38.7999 40.4397 36.7714 40.2421 34.5086C39.9034 30.6294 40.8974 27.4157 43.266 24.8911C45.6335 22.3676 48.9632 20.9023 53.219 20.5511C55.8729 20.3321 58.2194 20.6001 60.2456 21.3428C62.3142 22.0826 64.0571 23.2049 65.472 24.7C64.8837 24.6889 64.2953 24.6786 63.7069 24.6693C63.4266 20.7815 62.5938 18.0711 61.1915 16.5363C59.7887 14.9575 57.8468 14.2547 55.3805 14.4465C54.1902 14.539 52.9917 14.8455 51.7887 15.3661C50.5825 15.8404 49.3802 16.3418 48.1822 16.8705C47.0266 17.3953 45.837 17.7176 44.6103 17.8383C43.0878 17.9881 41.8668 17.6488 40.9418 16.8138C40.0169 15.9789 39.4885 14.8242 39.3616 13.3462C39.1871 11.3144 39.8398 9.40089 41.3393 7.61523C42.8382 5.83035 44.8946 4.3436 47.5077 3.17486C50.1604 1.956 53.0781 1.22229 56.2436 0.985889C60.32 0.681439 63.8837 1.32094 66.8988 2.87245C69.958 4.42193 72.1674 6.94673 73.5306 10.4164C74.6068 13.017 75.4047 15.9784 75.9332 19.3011C76.4603 22.5777 76.777 26.0927 76.8932 29.8499C77.0093 33.6044 76.8717 36.5387 76.4879 38.6416C76.1023 40.6998 75.4355 42.1669 74.4883 43.0442C73.5797 43.8739 72.3764 44.3239 70.8734 44.4009ZM57.9349 35.5993C58.9231 35.5249 59.8811 35.2927 60.811 34.9024C61.7822 34.5092 62.5812 33.9681 63.2087 33.2765C63.8773 32.5825 64.189 31.7498 64.1401 30.7769C64.0958 29.8966 63.7899 29.1952 63.2203 28.6742C62.6483 28.107 61.897 27.7378 60.9673 27.5692C60.0351 27.3543 59.0469 27.2851 58.0045 27.3625C56.2116 27.4957 54.7975 28.0051 53.7681 28.8808C52.7797 29.7536 52.3315 30.8165 52.4169 32.0655C52.499 33.2686 53.0411 34.1989 54.0379 34.8607C55.032 35.4765 56.3292 35.7203 57.9349 35.5993Z" fill="white"/>
<path d="M79.242 15.0708C79.1128 10.2445 79.7012 6.7472 81.0323 4.56911C82.4044 2.39325 84.2913 1.27402 86.6752 1.22772C88.1919 1.19826 89.3682 1.64564 90.1994 2.56275C91.0309 3.48024 91.6022 4.72702 91.916 6.30181C92.2727 7.87635 92.4563 9.63754 92.4705 11.5867C92.4803 12.9328 92.4704 14.5098 92.4413 16.3203C92.4543 18.0838 92.4465 19.9165 92.4187 21.8196C92.3908 23.7222 92.3413 25.4865 92.2704 27.1112C92.3538 27.1112 92.4372 27.1084 92.5207 27.1084C93.5669 21.9011 94.6673 17.788 95.8071 14.768C96.9891 11.7018 98.1893 9.5212 99.3938 8.2262C100.598 6.88481 101.787 6.22016 102.948 6.2318C103.704 6.23931 104.449 6.49538 105.183 6.99979C105.66 7.32807 106.132 7.76135 106.598 8.29964C107.823 9.61992 109.009 11.7786 110.143 14.7753C111.277 17.7257 112.378 21.6763 113.431 26.6272C113.515 26.63 113.598 26.6322 113.682 26.6347C113.663 23.8958 113.648 20.9945 113.636 17.9309C113.624 14.82 113.648 11.9913 113.707 9.43945C113.785 6.09896 114.42 3.68267 115.627 2.18862C116.876 0.651312 118.567 -0.0797803 120.688 0.00689118C123.242 0.111242 125.041 1.24486 126.077 3.3857C127.158 5.48441 127.617 8.27071 127.471 11.7473C127.363 14.2968 127.12 17.0231 126.746 19.9301C126.374 22.7901 125.903 25.5527 125.337 28.2176C124.771 30.8823 124.161 33.1981 123.508 35.1634C122.488 38.0862 121.321 40.2858 120.004 41.7622C118.686 43.2392 117.077 43.9417 115.164 43.8781C113.698 43.8294 112.23 43.1367 110.746 41.8002C109.262 40.4638 107.869 38.2304 106.551 35.0989C105.965 33.6829 105.422 32.0518 104.923 30.2058C104.302 27.9092 103.748 25.278 103.261 22.3145C103.177 22.3145 103.093 22.3117 103.009 22.3117C102.043 27.3579 100.834 31.3657 99.3818 34.3282C97.9705 37.2462 96.4563 39.3349 94.8269 40.5957C93.238 41.8566 91.6966 42.498 90.1889 42.519C88.1927 42.5468 86.4708 41.7466 85.0076 40.1104C83.5446 38.4289 82.3963 35.7908 81.5648 32.1959C81.1076 30.3995 80.7061 28.4852 80.3617 26.4538C80.0579 24.3744 79.7946 22.3406 79.5732 20.3516C79.3939 18.3608 79.283 16.6015 79.242 15.0703L79.242 15.0708Z" fill="white"/>
<path d="M149.352 1.7684C153.779 2.14969 156.896 3.27472 158.689 5.0831C160.53 6.85225 161.335 9.01243 161.122 11.5532C160.995 13.0779 160.401 14.297 159.346 15.2142C158.333 16.1357 156.985 16.5116 155.296 16.3485C153.945 16.2179 152.528 15.852 151.039 15.2521C149.55 14.6524 147.829 14.2695 145.881 14.1093C144.652 14.0082 143.703 14.1893 143.036 14.649C142.369 15.1087 142.013 15.7328 141.965 16.5196C141.917 17.3066 142.194 17.9786 142.794 18.537C143.398 19.0499 144.699 19.5225 146.7 19.9702C149.832 20.5593 152.438 21.3832 154.51 22.4206C156.588 23.4124 158.097 24.825 159.04 26.6466C159.984 28.4694 160.325 30.8587 160.074 33.816C159.696 38.2974 157.956 41.418 154.888 43.2093C151.821 44.956 147.741 45.5888 142.607 45.1751C139.102 44.8927 136.316 44.3254 134.233 43.4423C132.191 42.5627 130.73 41.43 129.851 40.0305C128.974 38.5851 128.571 36.9834 128.65 35.2227C128.726 33.5547 129.28 32.2846 130.318 31.4167C131.401 30.505 132.63 30.0923 134 30.1814C134.955 30.2435 135.965 30.4509 137.028 30.8043C138.091 31.1576 139.215 31.5414 140.396 31.9562C141.578 32.371 142.789 32.6288 144.031 32.73C146.306 32.9153 147.498 32.2555 147.604 30.7273C147.639 30.2184 147.545 29.7681 147.321 29.3765C147.101 28.9386 146.646 28.5504 145.957 28.2134C145.269 27.8767 144.2 27.5548 142.753 27.2548C140.022 26.7139 137.675 26.0352 135.706 25.2051C133.781 24.332 132.289 23.1018 131.228 21.5051C130.212 19.8657 129.76 17.6791 129.884 14.9459C130.08 10.6375 131.853 7.22651 135.256 4.74912C138.655 2.27552 143.375 1.25366 149.352 1.7684Z" fill="white"/>
<path d="M169.209 61.5212C166.286 61.1624 164.998 59.0593 165.358 55.1797C165.508 53.5647 166.081 51.787 167.085 49.8526C168.129 47.9229 169.489 45.9844 171.169 44.0436C172.896 42.0615 174.823 40.2491 176.954 38.6105C176.9 38.9306 176.846 39.2506 176.792 39.5706C172.391 34.1838 169.074 29.3426 166.896 24.9848C164.719 20.6301 163.768 16.5691 164.098 12.7797C164.323 10.1927 165.092 8.24857 166.414 6.94928C167.777 5.65555 169.51 5.1283 171.601 5.3757C174.631 5.73411 177.127 8.03155 179.05 12.2511C180.979 16.4279 182.204 22.5006 182.725 30.4762C182.808 30.4876 182.891 30.499 182.974 30.5102C184.831 22.3908 187.014 16.5276 189.532 12.9059C192.047 9.28822 194.744 7.69306 197.583 8.1248C199.279 8.38259 200.478 9.1555 201.18 10.4367C201.924 11.725 202.161 13.426 201.894 15.5398C201.709 17.0106 201.252 18.7649 200.526 20.8068C199.8 22.849 198.84 25.0867 197.648 27.5265C196.504 29.9267 195.162 32.4361 193.625 35.0614C192.136 37.6467 190.509 40.2362 188.747 42.8343C184.208 49.5709 180.453 54.4464 177.388 57.4537C174.368 60.463 171.656 61.8215 169.209 61.5212Z" fill="white"/>
</svg>
