<svg width="190" height="272" viewBox="0 0 190 272" fill="none" xmlns="http://www.w3.org/2000/svg">
<path d="M32.7918 0.167725C26.1739 0.167725 20.5487 2.04285 15.9162 5.79295C11.5042 9.32254 8.30557 14.8373 6.3202 22.3377C4.55543 31.1616 3.01124 42.6325 1.68766 56.7507C0.584678 70.869 0.0332031 85.9797 0.0332031 102.083C0.0332031 118.187 0.364085 134.621 1.02587 151.387C1.90826 167.931 3.01126 183.373 4.33484 197.712C5.65841 212.051 6.98198 223.742 8.30556 232.787C10.5115 244.92 14.372 254.405 19.8869 261.244C25.4018 268.303 33.3433 271.832 43.7113 271.832C54.9617 271.832 63.1238 267.972 68.1975 260.251C73.4918 252.751 76.139 243.596 76.139 232.787C76.139 223.522 75.4772 212.823 74.1536 200.69C73.4401 192.698 72.5359 184.642 71.5453 176.558C74.7445 181.322 78.7931 185.627 83.7496 189.44C92.3528 196.057 104.155 199.366 119.155 199.366C140.774 199.366 157.98 191.204 170.775 174.88C183.57 158.335 189.967 132.746 189.967 98.1126C189.967 76.7147 186.878 58.9568 180.702 44.8386C174.525 30.4998 166.032 19.8008 155.223 12.7417C144.414 5.68268 132.06 2.15311 118.163 2.15311C103.383 2.15311 90.5881 6.2341 79.7789 14.3962C72.5485 19.8559 66.8851 26.9833 62.7145 35.7001C60.3318 24.9736 57.0925 16.747 52.9764 11.0873C47.9027 3.80757 41.1744 0.167725 32.7918 0.167725ZM96.8044 48.768C97.4224 48.7617 97.9432 48.8149 98.34 48.8946C99.4376 49.1148 100.484 49.5232 101.465 50.0916C107.465 53.5641 111 63.0325 108.396 72.3389C105.242 83.6115 96.1225 93.9643 87.255 90.3444C75.4306 85.5172 77.9315 70.3094 78.4605 68.5053C83.375 51.7426 92.479 48.8117 96.8044 48.768ZM55.8148 66.2821C57.6914 66.2884 59.5276 66.8714 61.2152 67.9029C66.2777 70.9981 69.9914 78.1484 69.3531 86.0323C68.4671 96.9745 61.8912 108.15 53.0307 106.424C41.2154 104.122 40.7889 89.6749 40.953 87.9195C42.696 69.2773 52.7616 66.2689 55.8148 66.2821ZM132.549 70.7207C135.432 70.752 137.62 71.5662 138.952 72.3467C139.32 72.5621 139.623 72.7739 139.857 72.9673C145.993 78.0378 145.42 90.2729 137.629 98.3814C129.518 106.822 116.586 111.628 110.485 104.244C102.35 94.3988 111.748 82.1832 113.067 80.844C121.002 72.7882 127.743 70.6686 132.549 70.7207ZM86.4743 111.436C86.76 111.456 86.9862 111.497 87.1413 111.563C92.501 115.939 104.087 134.887 104.477 147.853C104.721 155.949 90.2212 165.379 80.7767 153.222C77.5853 149.114 76.9173 145.512 73.6547 144.818C69.6384 143.963 67.5621 148.46 58.63 148.052C45.44 147.45 42.5989 130.745 58.5008 119.76C64.0859 115.902 82.1885 111.141 86.4743 111.436ZM136.969 112.951C140.276 112.867 142.782 113.751 144.433 114.714C145.303 115.222 145.935 115.753 146.322 116.175C151.403 121.701 149.323 133.009 141.033 139.529C132.404 146.315 119.738 149.084 114.983 141.411C108.643 131.178 118.95 121.05 120.35 119.977C127.141 114.772 132.718 113.06 136.969 112.951Z" fill="#22B77E"/>
</svg>
