<svg width="272" height="389" viewBox="0 0 272 389" fill="none" xmlns="http://www.w3.org/2000/svg">
<path d="M46.8671 0C37.399 0 29.3511 2.68271 22.7234 8.04791C16.4114 13.0976 11.8351 20.9875 8.99469 31.7181C6.46987 44.3423 4.26062 60.7536 2.367 80.9523C0.788984 101.151 0 122.77 0 145.809C0 168.848 0.473387 192.36 1.4202 216.346C2.68262 240.016 4.26065 262.109 6.15427 282.623C8.04789 303.137 9.94149 319.864 11.8351 332.804C14.9912 350.162 20.5142 363.733 28.4043 373.517C36.2944 383.616 47.6561 388.666 62.4895 388.666C78.5852 388.666 90.2626 383.142 97.5215 372.096C105.096 361.366 108.883 348.268 108.883 332.804C108.883 319.548 107.936 304.242 106.043 286.883C105.022 275.449 103.728 263.925 102.311 252.358C106.888 259.175 112.68 265.333 119.772 270.788C132.08 280.256 148.965 284.99 170.426 284.99C201.355 284.99 225.972 273.313 244.277 249.958C262.582 226.288 271.735 189.678 271.735 140.128C271.735 109.514 267.316 84.1084 258.479 63.9097C249.642 43.3956 237.492 28.0886 222.027 17.9894C206.562 7.89014 188.889 2.84045 169.006 2.84045C147.86 2.84045 129.555 8.67906 114.091 20.3564C103.746 28.1674 95.6437 38.3646 89.677 50.8356C86.2681 35.4893 81.6337 23.7197 75.7448 15.6224C68.4859 5.20746 58.86 0 46.8671 0ZM138.449 69.5315C139.333 69.5225 140.078 69.5987 140.646 69.7127C142.216 70.0276 143.713 70.612 145.117 71.4251C153.7 76.3932 158.758 89.9394 155.033 103.254C150.52 119.381 137.473 134.193 124.787 129.014C107.87 122.108 111.448 100.35 112.204 97.7693C119.236 73.7872 132.26 69.594 138.449 69.5315ZM79.8058 94.5886C82.4906 94.5976 85.1175 95.4317 87.5319 96.9075C94.7748 101.336 100.088 111.565 99.1747 122.845C97.9071 138.5 88.4991 154.489 75.8225 152.019C58.9186 148.725 58.3084 128.056 58.5432 125.545C61.0369 98.8737 75.4376 94.5697 79.8058 94.5886ZM189.588 100.939C193.713 100.984 196.843 102.149 198.749 103.265C199.275 103.573 199.708 103.876 200.043 104.153C208.822 111.407 208.003 128.912 196.855 140.513C185.252 152.588 166.749 159.464 158.021 148.901C146.382 134.815 159.828 117.338 161.716 115.422C173.068 103.897 182.712 100.864 189.588 100.939ZM123.67 159.19C124.078 159.218 124.402 159.276 124.624 159.371C132.292 165.632 148.867 192.74 149.426 211.29C149.775 222.874 129.03 236.365 115.518 218.972C110.952 213.095 109.997 207.942 105.329 206.948C99.5828 205.725 96.6124 212.159 83.8334 211.575C64.9627 210.713 60.8979 186.814 83.6486 171.099C91.639 165.579 117.538 158.767 123.67 159.19ZM195.912 161.357C200.643 161.236 204.228 162.501 206.59 163.88C207.835 164.607 208.739 165.366 209.293 165.969C216.561 173.875 213.587 190.054 201.726 199.381C189.38 209.09 171.259 213.052 164.457 202.074C155.386 187.434 170.132 172.944 172.135 171.41C181.851 163.962 189.83 161.513 195.912 161.357Z" fill="white"/>
</svg>
