<svg width="782" height="550" viewBox="0 0 782 550" fill="none" xmlns="http://www.w3.org/2000/svg">
<g clip-path="url(#clip0_1415_1268)">
<path d="M307.118 345.166C307.358 343.53 307.237 341.862 306.763 340.278C306.289 338.694 305.473 337.233 304.374 335.998C303.274 334.763 301.917 333.785 300.398 333.131C298.879 332.478 297.236 332.165 295.583 332.216L223.146 258.976L208.836 278.98L284.539 344.682C284.808 347.453 286.084 350.029 288.125 351.922C290.166 353.815 292.83 354.893 295.614 354.953C298.397 355.013 301.105 354.049 303.225 352.245C305.346 350.442 306.731 347.923 307.118 345.166Z" fill="#A0616A"/>
<path d="M272.805 302.875L254.316 321.344C253.431 322.223 252.235 322.719 250.987 322.724C249.739 322.729 248.539 322.243 247.647 321.37L197.126 271.701C195.379 269.984 193.99 267.937 193.039 265.68C192.089 263.422 191.595 260.998 191.587 258.549C191.579 256.099 192.056 253.672 192.992 251.408C193.927 249.144 195.303 247.088 197.038 245.359C198.773 243.63 200.834 242.262 203.101 241.335C205.368 240.407 207.797 239.938 210.246 239.955C212.696 239.972 215.118 240.474 217.372 241.433C219.626 242.392 221.668 243.788 223.379 245.54L272.847 296.214C273.714 297.109 274.195 298.308 274.188 299.553C274.18 300.799 273.683 301.992 272.805 302.875Z" fill="#22B77E"/>
<path d="M207.963 212.224C222.244 212.224 233.821 200.647 233.821 186.366C233.821 172.085 222.244 160.509 207.963 160.509C193.682 160.509 182.105 172.085 182.105 186.366C182.105 200.647 193.682 212.224 207.963 212.224Z" fill="#A0616A"/>
<path d="M120.591 496.231L127.138 507.353L173.158 487.393L163.494 470.976L120.591 496.231Z" fill="#FDB2DB"/>
<path d="M122.552 491.256L135.446 513.161C136.525 514.995 137.233 517.023 137.529 519.13C137.824 521.237 137.702 523.381 137.168 525.44C136.635 527.499 135.701 529.434 134.42 531.132C133.14 532.83 131.537 534.26 129.703 535.339L129.25 535.606L108.139 499.74L122.552 491.256Z" fill="#2F2E41"/>
<path d="M196.452 536.302H209.359L215.499 486.517L196.45 486.518L196.452 536.302Z" fill="#A0616A"/>
<path d="M193.16 532.088L218.578 532.087H218.579C220.707 532.087 222.813 532.506 224.779 533.32C226.744 534.134 228.53 535.327 230.034 536.832C231.538 538.336 232.731 540.122 233.545 542.087C234.359 544.052 234.778 546.159 234.778 548.286V548.812L193.161 548.814L193.16 532.088Z" fill="#2F2E41"/>
<path d="M144.561 506.14C143.818 506.14 143.086 505.966 142.423 505.631C141.76 505.295 141.185 504.809 140.746 504.21L128.298 487.304C127.918 486.788 127.647 486.201 127.5 485.577C127.354 484.954 127.336 484.307 127.446 483.676C127.557 483.045 127.794 482.444 128.144 481.907C128.494 481.371 128.949 480.911 129.482 480.555L184.873 443.558L151.451 355.676L222.924 361.575L225.332 437.095C225.557 443.973 223.909 450.783 220.563 456.796C217.216 462.808 212.298 467.798 206.334 471.231L146.928 505.503C146.209 505.92 145.392 506.14 144.561 506.14Z" fill="#2F2E41"/>
<path d="M196.842 526.196C195.616 526.193 194.439 525.716 193.558 524.864C192.676 524.012 192.16 522.852 192.116 521.627L189.497 448.055L221.932 446.346L219.349 520.446C219.311 521.62 218.837 522.738 218.019 523.581C217.202 524.425 216.1 524.933 214.927 525.008L197.164 526.185C197.056 526.192 196.949 526.196 196.842 526.196Z" fill="#2F2E41"/>
<path d="M231.196 376.184C222.944 376.184 194.12 366.902 184.114 363.594C182.617 364.792 174.393 370.941 164.794 369.817C158.871 369.122 153.656 365.769 149.295 359.851C139.666 346.782 151.56 290.734 163.233 246.017C165.574 236.978 171.327 229.198 179.284 224.314C187.241 219.429 196.783 217.819 205.902 219.823C212.511 221.282 218.583 224.556 223.435 229.275C228.286 233.995 231.726 239.974 233.367 246.541C235.565 255.488 233.674 266.012 232.293 273.697C231.644 277.31 231.132 280.164 231.307 281.566C231.984 286.986 235.748 371.992 233.328 375.623C233.07 376.009 232.325 376.184 231.196 376.184Z" fill="#22937E"/>
<path d="M200.759 376.323C202.085 375.336 203.179 374.07 203.963 372.614C204.747 371.158 205.203 369.549 205.297 367.898C205.392 366.247 205.123 364.596 204.51 363.06C203.897 361.524 202.955 360.142 201.751 359.009L202.261 256L178 260.04L185.127 360.024C183.359 362.175 182.441 364.899 182.547 367.681C182.654 370.462 183.777 373.108 185.704 375.117C187.63 377.126 190.227 378.359 193.002 378.581C195.777 378.803 198.537 378 200.759 376.323Z" fill="#A0616A"/>
<path d="M190.5 331.5C190.1 327.9 192.333 327.333 193.5 327.5C192.5 327.167 190.2 326 189 324C187.5 321.5 195 323.5 198 324C201 324.5 200 327.5 199 327.5C198 327.5 198 330 199 333.5C200 337 197 335 195 333C193 331 191 336 190.5 331.5Z" fill="#FDB2DB"/>
<path d="M185.5 365C183.5 365 185.5 360.5 185.5 360.5C185.5 360.5 194.5 357 197.5 363C196 366.5 197.456 369.937 195.5 369.5C193.544 369.063 191.5 366.5 192 365C192.5 363.5 187.5 365 185.5 365Z" fill="#FDB2DB"/>
<path d="M206.619 322.165H180.486C179.238 322.161 178.042 321.667 177.156 320.788C176.269 319.91 175.764 318.718 175.749 317.47L175.107 246.626C175.085 244.176 175.549 241.746 176.471 239.477C177.394 237.207 178.758 235.143 180.483 233.404C182.208 231.665 184.262 230.285 186.524 229.345C188.786 228.404 191.212 227.922 193.661 227.925C196.111 227.928 198.536 228.416 200.796 229.362C203.056 230.308 205.105 231.693 206.827 233.436C208.548 235.18 209.906 237.247 210.823 239.519C211.741 241.79 212.198 244.221 212.17 246.671L211.356 317.482C211.337 318.727 210.831 319.916 209.945 320.792C209.059 321.668 207.864 322.161 206.619 322.165Z" fill="#22B77E"/>
<path d="M201.379 212.116C189.54 212.138 178.371 202.78 176.319 191.12C175.585 186.54 175.916 181.851 177.287 177.419C178.776 172.374 181.329 167.707 184.774 163.732C188.22 159.757 192.477 156.567 197.26 154.376C202.042 152.186 207.239 151.047 212.499 151.035C217.759 151.023 222.961 152.139 227.753 154.308C230.921 155.741 234.04 157.799 235.49 160.958C236.94 164.118 236.033 168.534 232.861 169.955C230.787 170.884 228.186 170.428 226.347 171.762C223.705 173.677 224.385 177.753 225.565 180.796C226.744 183.838 228.078 187.52 226.101 190.116C224.258 192.534 220.575 192.459 217.674 191.549C214.773 190.638 211.909 189.114 208.885 189.424C204.473 189.876 201.303 194.264 200.716 198.66C200.129 203.056 201.51 207.45 202.874 211.67L201.379 212.116Z" fill="#2F2E41"/>
<path d="M524.944 238.507C524.944 167.795 582.267 0 652.979 0C723.69 0 781.013 167.795 781.013 238.507C781.013 272.463 767.524 305.029 743.513 329.041C719.502 353.052 686.936 366.541 652.979 366.541C619.022 366.541 586.456 353.052 562.445 329.041C538.433 305.029 524.944 272.463 524.944 238.507Z" fill="#00BFA6"/>
<path d="M652.979 550C652.699 550 652.432 549.889 652.234 549.692C652.037 549.494 651.926 549.226 651.926 548.947V107.526C651.926 107.247 652.037 106.979 652.234 106.782C652.432 106.584 652.699 106.473 652.979 106.473C653.258 106.473 653.526 106.584 653.723 106.782C653.92 106.979 654.031 107.247 654.031 107.526V548.947C654.031 549.226 653.92 549.494 653.723 549.692C653.526 549.889 653.258 550 652.979 550Z" fill="#3F3D56"/>
<path d="M652.979 192.746C652.84 192.746 652.703 192.719 652.576 192.666C652.448 192.613 652.332 192.535 652.234 192.437L601.558 141.761C601.363 141.564 601.254 141.296 601.255 141.018C601.256 140.74 601.366 140.474 601.563 140.277C601.76 140.081 602.026 139.97 602.304 139.969C602.582 139.968 602.849 140.077 603.047 140.273L653.723 190.948C653.87 191.096 653.97 191.283 654.011 191.487C654.052 191.692 654.031 191.903 653.951 192.096C653.871 192.288 653.736 192.452 653.563 192.568C653.39 192.684 653.187 192.746 652.979 192.746Z" fill="#3F3D56"/>
<path d="M652.979 280.475C652.77 280.475 652.567 280.414 652.394 280.298C652.221 280.182 652.086 280.018 652.006 279.825C651.926 279.633 651.905 279.421 651.946 279.217C651.987 279.013 652.087 278.825 652.234 278.678L737.1 193.812C737.298 193.617 737.565 193.508 737.843 193.509C738.121 193.509 738.387 193.62 738.584 193.817C738.78 194.013 738.891 194.28 738.892 194.558C738.893 194.836 738.784 195.103 738.589 195.301L653.723 280.167C653.625 280.265 653.509 280.342 653.382 280.395C653.254 280.448 653.117 280.475 652.979 280.475Z" fill="#3F3D56"/>
<path d="M299.383 337.824C316.18 334.027 335.21 347.166 335.8 364.805C335.966 369.766 334.512 374.976 330.694 378.352C327.542 381.138 322.852 382.543 318.778 381.181C310.937 378.561 310.518 367.635 314.724 361.8C320.419 353.899 331.702 352.55 340.654 353.49C351.599 354.638 362.001 359.437 370.731 366.015C388.206 379.184 399.333 399.366 408.34 418.865C417.56 438.868 424.264 459.937 428.3 481.59C428.808 484.309 429.273 487.036 429.696 489.771C429.815 490.171 430.088 490.509 430.454 490.71C430.82 490.911 431.251 490.96 431.654 490.846C432.05 490.72 432.382 490.446 432.583 490.082C432.783 489.717 432.835 489.29 432.729 488.888C429.042 465.259 422.232 442.225 412.479 420.391C403.048 399.258 391.159 377.338 372.246 363.236C362.818 356.205 351.684 351.313 339.902 350.267C329.983 349.386 318.237 351.485 312.068 360.112C307.202 366.918 307.696 378.229 315.226 382.969C319.366 385.574 324.626 385.27 328.924 383.244C331.205 382.118 333.214 380.509 334.811 378.529C336.408 376.549 337.555 374.245 338.174 371.778C340.847 361.981 336.788 351.385 329.827 344.383C323.294 337.792 314.417 334.059 305.137 334C302.903 334.024 300.677 334.29 298.5 334.791C296.517 335.24 297.403 338.272 299.383 337.824Z" fill="#CCCCCC"/>
<mask id="path-20-inside-1_1415_1268" fill="white">
<path fill-rule="evenodd" clip-rule="evenodd" d="M468.786 455.324C468.059 455.722 467.418 456.26 466.899 456.906L465.121 459.119L465.103 459.142L452.682 474.608C448.033 475.123 443.778 477.457 440.845 481.101L431.904 492.232C430.752 491.64 429.465 491.323 428.145 491.321H366.397C361.613 491.327 357.012 493.087 353.454 496.246C354.014 495.06 354.327 493.734 354.327 492.335C354.327 487.265 350.217 483.156 345.147 483.156C340.078 483.156 335.968 487.265 335.968 492.335C335.968 497.405 340.078 501.514 345.147 501.514C347.001 501.514 348.726 500.965 350.169 500.02C348.051 503.198 346.896 506.953 346.891 510.827C346.897 515.999 348.954 520.957 352.611 524.614C354.997 527 357.938 528.705 361.131 529.604V540.856C361.131 542.834 361.917 544.731 363.315 546.13C364.714 547.529 366.611 548.314 368.589 548.314C370.567 548.314 372.464 547.529 373.863 546.13C375.261 544.731 376.047 542.834 376.047 540.856V532.389L379.661 538.558C380.66 540.265 382.297 541.505 384.211 542.005C386.125 542.505 388.159 542.224 389.866 541.224C391.572 540.224 392.812 538.588 393.312 536.674C393.812 534.76 393.531 532.725 392.532 531.019L392.13 530.333H404.414V540.856C404.413 541.836 404.605 542.807 404.979 543.713C405.354 544.619 405.903 545.442 406.595 546.136C407.288 546.829 408.111 547.379 409.016 547.755C409.922 548.13 410.892 548.323 411.872 548.323C412.852 548.323 413.823 548.13 414.728 547.755C415.634 547.379 416.456 546.829 417.149 546.136C417.842 545.442 418.391 544.619 418.765 543.713C419.14 542.807 419.332 541.836 419.33 540.856V537.334L420.048 538.558C421.048 540.263 422.685 541.5 424.598 541.999C426.511 542.497 428.543 542.216 430.249 541.217C431.955 540.218 433.194 538.583 433.694 536.67C434.195 534.758 433.916 532.725 432.918 531.019L428.796 523.981C429.01 523.782 429.221 523.579 429.428 523.372C432.945 519.855 435.247 515.348 436.061 510.507L453.446 524.47C453.871 524.81 454.331 525.093 454.817 525.317L457.158 527.197C459.057 528.714 461.48 529.416 463.895 529.149C465.03 529.024 466.12 528.689 467.114 528.173C468.054 528.861 469.855 528.11 471.173 526.468C472.513 524.801 472.847 522.846 471.921 522.102C471.895 522.081 471.869 522.062 471.842 522.043C472.062 521.068 472.123 520.054 472.014 519.041C471.826 517.305 471.15 515.673 470.083 514.326L472.711 511.054C476.205 506.693 477.827 501.124 477.221 495.568C476.65 490.345 474.154 485.534 470.239 482.065L479.416 470.638C480.935 468.74 481.638 466.316 481.372 463.899C481.106 461.483 479.891 459.27 477.996 457.748C477.596 457.427 477.172 457.141 476.73 456.894C476.446 456.542 476.125 456.222 475.771 455.937C475.125 455.418 474.383 455.032 473.587 454.8C472.792 454.567 471.958 454.494 471.134 454.584C470.31 454.674 469.512 454.925 468.786 455.324Z"/>
</mask>
<path d="M466.899 456.906L466.509 456.593V456.593L466.899 456.906ZM468.786 455.324L469.026 455.762L468.786 455.324ZM465.121 459.119L465.51 459.434L465.511 459.432L465.121 459.119ZM465.103 459.142L464.714 458.828L464.713 458.829L465.103 459.142ZM452.682 474.608L452.737 475.105L452.942 475.082L453.071 474.921L452.682 474.608ZM440.845 481.101L440.455 480.787L440.455 480.787L440.845 481.101ZM431.904 492.232L431.676 492.677L432.039 492.863L432.294 492.545L431.904 492.232ZM428.145 491.321L428.146 490.821H428.145V491.321ZM366.397 491.321V490.821H366.397L366.397 491.321ZM353.454 496.246L353.002 496.033L353.786 496.62L353.454 496.246ZM350.169 500.02L350.585 500.298L349.895 499.602L350.169 500.02ZM346.891 510.827L346.391 510.827L346.391 510.828L346.891 510.827ZM352.611 524.614L352.257 524.967L352.611 524.614ZM361.131 529.604H361.631V529.225L361.266 529.122L361.131 529.604ZM376.047 532.389L376.479 532.136L375.547 530.546V532.389H376.047ZM379.661 538.558L379.229 538.811L379.229 538.811L379.661 538.558ZM384.211 542.005L384.337 541.521H384.337L384.211 542.005ZM389.866 541.224L390.118 541.656L389.866 541.224ZM393.312 536.674L393.796 536.8H393.796L393.312 536.674ZM392.532 531.019L392.1 531.271L392.532 531.019ZM392.13 530.333V529.833H391.258L391.699 530.586L392.13 530.333ZM404.414 530.333H404.914V529.833H404.414V530.333ZM404.414 540.856L404.914 540.857V540.856H404.414ZM404.979 543.713L404.517 543.904V543.904L404.979 543.713ZM409.016 547.755L409.208 547.293H409.208L409.016 547.755ZM414.728 547.755L414.537 547.293H414.537L414.728 547.755ZM417.149 546.136L416.795 545.782L417.149 546.136ZM418.765 543.713L418.303 543.522V543.522L418.765 543.713ZM419.33 540.856H418.83V540.857L419.33 540.856ZM419.33 537.334L419.762 537.081L418.83 535.491V537.334H419.33ZM420.048 538.558L419.616 538.811L419.616 538.811L420.048 538.558ZM424.598 541.999L424.472 542.483L424.598 541.999ZM430.249 541.217L430.502 541.649L430.249 541.217ZM433.694 536.67L433.211 536.544L433.694 536.67ZM432.918 531.019L433.35 530.766L433.35 530.766L432.918 531.019ZM428.796 523.981L428.456 523.614L428.162 523.887L428.365 524.234L428.796 523.981ZM429.428 523.372L429.075 523.018L429.428 523.372ZM436.061 510.507L436.374 510.117L435.709 509.583L435.568 510.424L436.061 510.507ZM453.446 524.47L453.133 524.86L453.134 524.86L453.446 524.47ZM454.817 525.317L455.13 524.927L455.082 524.889L455.027 524.863L454.817 525.317ZM457.158 527.197L456.845 527.587L456.846 527.588L457.158 527.197ZM463.895 529.149L463.84 528.652L463.895 529.149ZM467.114 528.173L467.41 527.77L467.16 527.587L466.884 527.73L467.114 528.173ZM471.173 526.468L471.563 526.781L471.173 526.468ZM471.921 522.102L472.234 521.712L472.234 521.712L471.921 522.102ZM471.842 522.043L471.354 521.933L471.279 522.266L471.561 522.457L471.842 522.043ZM472.014 519.041L471.517 519.094L472.014 519.041ZM470.083 514.326L469.693 514.013L469.443 514.324L469.691 514.636L470.083 514.326ZM472.711 511.054L473.101 511.367L473.101 511.367L472.711 511.054ZM477.221 495.568L476.724 495.623L477.221 495.568ZM470.239 482.065L469.849 481.752L469.551 482.123L469.907 482.439L470.239 482.065ZM479.416 470.638L479.806 470.951L479.807 470.951L479.416 470.638ZM481.372 463.899L481.869 463.845L481.372 463.899ZM477.996 457.748L478.309 457.358V457.358L477.996 457.748ZM476.73 456.894L476.341 457.208L476.402 457.283L476.486 457.33L476.73 456.894ZM475.771 455.937L476.084 455.547V455.547L475.771 455.937ZM473.587 454.8L473.727 454.32V454.32L473.587 454.8ZM471.134 454.584L471.189 455.081L471.134 454.584ZM466.065 457.146C465.892 457.361 465.926 457.676 466.141 457.849C466.357 458.022 466.671 457.988 466.844 457.772L466.065 457.146ZM465.955 458.879C466.128 458.664 466.094 458.349 465.879 458.176C465.663 458.003 465.349 458.038 465.176 458.253L465.955 458.879ZM464.728 458.81C464.554 459.025 464.587 459.34 464.802 459.514C465.017 459.687 465.332 459.654 465.505 459.44L464.728 458.81ZM465.496 459.451C465.67 459.236 465.636 458.922 465.422 458.748C465.207 458.574 464.892 458.607 464.719 458.822L465.496 459.451ZM461.607 462.696C461.435 462.911 461.469 463.226 461.684 463.399C461.9 463.571 462.214 463.537 462.387 463.322L461.607 462.696ZM456.177 471.055C456.35 470.839 456.315 470.525 456.1 470.352C455.885 470.179 455.57 470.213 455.397 470.428L456.177 471.055ZM449.148 474.846C448.885 474.929 448.739 475.21 448.822 475.473C448.905 475.736 449.186 475.882 449.45 475.799L449.148 474.846ZM443.586 479.015C443.798 478.838 443.826 478.523 443.649 478.311C443.471 478.099 443.156 478.071 442.944 478.249L443.586 479.015ZM438.22 483.57C438.047 483.786 438.081 484.1 438.297 484.273C438.512 484.446 438.827 484.412 438.999 484.196L438.22 483.57ZM434.529 489.762C434.702 489.547 434.668 489.232 434.453 489.059C434.237 488.886 433.923 488.921 433.75 489.136L434.529 489.762ZM422.999 490.821C422.723 490.821 422.499 491.045 422.499 491.321C422.499 491.597 422.723 491.821 422.999 491.821V490.821ZM412.708 491.821C412.984 491.821 413.208 491.597 413.208 491.321C413.208 491.045 412.984 490.821 412.708 490.821V491.821ZM402.417 490.821C402.141 490.821 401.917 491.045 401.917 491.321C401.917 491.597 402.141 491.821 402.417 491.821V490.821ZM392.126 491.821C392.402 491.821 392.626 491.597 392.626 491.321C392.626 491.045 392.402 490.821 392.126 490.821V491.821ZM381.834 490.821C381.558 490.821 381.334 491.045 381.334 491.321C381.334 491.597 381.558 491.821 381.834 491.821V490.821ZM371.543 491.821C371.819 491.821 372.043 491.597 372.043 491.321C372.043 491.045 371.819 490.821 371.543 490.821V491.821ZM362.787 491.153C362.516 491.203 362.336 491.464 362.386 491.736C362.436 492.007 362.697 492.187 362.969 492.137L362.787 491.153ZM356.558 494.576C356.794 494.433 356.869 494.126 356.726 493.889C356.583 493.653 356.276 493.578 356.039 493.721L356.558 494.576ZM354.307 495.473C354.396 495.212 354.257 494.927 353.996 494.838C353.734 494.748 353.45 494.888 353.361 495.149L354.307 495.473ZM353.775 493.289C353.745 493.563 353.943 493.81 354.218 493.84C354.492 493.87 354.739 493.672 354.769 493.397L353.775 493.289ZM354.092 488.63C353.986 488.375 353.694 488.254 353.439 488.359C353.184 488.465 353.062 488.758 353.168 489.013L354.092 488.63ZM348.47 484.314C348.725 484.42 349.017 484.299 349.123 484.044C349.229 483.789 349.108 483.496 348.853 483.39L348.47 484.314ZM341.442 483.39C341.187 483.496 341.066 483.789 341.172 484.044C341.278 484.299 341.57 484.42 341.825 484.314L341.442 483.39ZM337.126 489.013C337.232 488.758 337.111 488.465 336.856 488.359C336.601 488.254 336.308 488.375 336.203 488.63L337.126 489.013ZM336.203 496.04C336.308 496.295 336.601 496.416 336.856 496.311C337.111 496.205 337.232 495.912 337.126 495.657L336.203 496.04ZM341.825 500.356C341.57 500.25 341.278 500.371 341.172 500.626C341.066 500.881 341.187 501.174 341.442 501.28L341.825 500.356ZM346.543 501.914C346.816 501.875 347.006 501.621 346.966 501.348C346.927 501.075 346.673 500.885 346.4 500.925L346.543 501.914ZM348.798 500.212C348.548 500.328 348.439 500.625 348.555 500.876C348.671 501.126 348.969 501.235 349.219 501.119L348.798 500.212ZM348.309 502.298C348.191 502.548 348.298 502.846 348.547 502.964C348.797 503.082 349.095 502.975 349.213 502.725L348.309 502.298ZM347.599 508.047C347.639 507.774 347.451 507.52 347.178 507.479C346.905 507.438 346.65 507.627 346.61 507.9L347.599 508.047ZM346.779 514.729C346.834 515 347.097 515.176 347.368 515.121C347.638 515.067 347.814 514.804 347.76 514.533L346.779 514.729ZM350.601 521.381C350.448 521.152 350.137 521.09 349.907 521.243C349.678 521.397 349.616 521.707 349.77 521.937L350.601 521.381ZM354.178 526.657C354.396 526.825 354.71 526.785 354.879 526.567C355.048 526.348 355.007 526.034 354.789 525.865L354.178 526.657ZM358.974 528.316C358.72 528.208 358.426 528.327 358.318 528.581C358.21 528.835 358.329 529.128 358.583 529.236L358.974 528.316ZM360.631 532.417C360.631 532.693 360.855 532.917 361.131 532.917C361.407 532.917 361.631 532.693 361.631 532.417H360.631ZM361.631 538.043C361.631 537.767 361.407 537.543 361.131 537.543C360.855 537.543 360.631 537.767 360.631 538.043H361.631ZM360.784 542.409C360.838 542.68 361.101 542.856 361.372 542.802C361.643 542.748 361.818 542.485 361.765 542.214L360.784 542.409ZM362.804 544.722C362.65 544.492 362.34 544.431 362.11 544.584C361.88 544.738 361.819 545.048 361.972 545.278L362.804 544.722ZM364.168 547.473C364.397 547.627 364.708 547.565 364.861 547.335C365.015 547.106 364.953 546.795 364.723 546.642L364.168 547.473ZM367.232 547.681C366.961 547.627 366.698 547.803 366.644 548.074C366.59 548.344 366.766 548.608 367.036 548.662L367.232 547.681ZM370.142 548.662C370.412 548.608 370.588 548.344 370.534 548.074C370.481 547.803 370.217 547.627 369.947 547.681L370.142 548.662ZM372.455 546.642C372.225 546.795 372.163 547.106 372.317 547.335C372.47 547.565 372.781 547.627 373.01 547.473L372.455 546.642ZM375.206 545.278C375.359 545.048 375.298 544.738 375.068 544.584C374.839 544.431 374.528 544.492 374.375 544.722L375.206 545.278ZM375.414 542.214C375.36 542.485 375.536 542.748 375.806 542.802C376.077 542.856 376.34 542.68 376.394 542.409L375.414 542.214ZM376.547 538.739C376.547 538.463 376.323 538.239 376.047 538.239C375.771 538.239 375.547 538.463 375.547 538.739H376.547ZM375.547 534.506C375.547 534.782 375.771 535.006 376.047 535.006C376.323 535.006 376.547 534.782 376.547 534.506H375.547ZM376.519 534.184C376.659 534.422 376.965 534.502 377.203 534.362C377.442 534.223 377.522 533.916 377.382 533.678L376.519 534.184ZM379.189 536.763C379.049 536.525 378.743 536.445 378.505 536.584C378.266 536.724 378.186 537.03 378.326 537.268L379.189 536.763ZM380.146 540.073C380.329 540.28 380.645 540.298 380.852 540.115C381.058 539.932 381.077 539.616 380.893 539.409L380.146 540.073ZM383.058 541.048C382.809 540.928 382.51 541.031 382.39 541.28C382.269 541.528 382.373 541.827 382.621 541.948L383.058 541.048ZM385.625 542.733C385.901 542.749 386.138 542.539 386.154 542.263C386.17 541.988 385.96 541.751 385.685 541.735L385.625 542.733ZM388.374 541.363C388.113 541.454 387.975 541.739 388.065 542C388.156 542.26 388.44 542.399 388.701 542.308L388.374 541.363ZM391.381 540.739C391.587 540.556 391.606 540.24 391.423 540.033C391.239 539.827 390.923 539.808 390.717 539.991L391.381 540.739ZM392.356 537.827C392.235 538.075 392.339 538.375 392.587 538.495C392.836 538.616 393.135 538.512 393.256 538.264L392.356 537.827ZM394.041 535.259C394.057 534.984 393.847 534.747 393.571 534.731C393.295 534.714 393.059 534.924 393.042 535.2L394.041 535.259ZM392.671 532.51C392.761 532.771 393.046 532.909 393.307 532.819C393.568 532.729 393.706 532.444 393.616 532.183L392.671 532.51ZM392.863 530.595C392.723 530.356 392.417 530.276 392.179 530.416C391.94 530.555 391.86 530.862 392 531.1L392.863 530.595ZM391.799 530.757C391.939 530.996 392.245 531.076 392.483 530.936C392.722 530.796 392.802 530.49 392.662 530.252L391.799 530.757ZM395.201 530.833C395.477 530.833 395.701 530.609 395.701 530.333C395.701 530.057 395.477 529.833 395.201 529.833V530.833ZM401.343 529.833C401.067 529.833 400.843 530.057 400.843 530.333C400.843 530.609 401.067 530.833 401.343 530.833V529.833ZM403.914 532.964C403.914 533.24 404.138 533.464 404.414 533.464C404.69 533.464 404.914 533.24 404.914 532.964H403.914ZM404.914 538.226C404.914 537.949 404.69 537.726 404.414 537.726C404.138 537.726 403.914 537.949 403.914 538.226H404.914ZM403.952 541.636C403.978 541.911 404.223 542.112 404.498 542.086C404.772 542.059 404.974 541.814 404.947 541.539L403.952 541.636ZM405.212 542.879C405.132 542.614 404.853 542.465 404.588 542.545C404.324 542.625 404.175 542.904 404.254 543.168L405.212 542.879ZM404.851 544.611C404.981 544.855 405.284 544.947 405.527 544.817C405.771 544.687 405.863 544.384 405.733 544.14L404.851 544.611ZM406.491 545.276C406.315 545.062 406 545.031 405.787 545.206C405.573 545.381 405.542 545.696 405.717 545.91L406.491 545.276ZM406.82 547.014C407.034 547.19 407.349 547.159 407.524 546.945C407.699 546.732 407.669 546.417 407.455 546.242L406.82 547.014ZM408.59 547C408.346 546.87 408.043 546.962 407.913 547.206C407.783 547.449 407.875 547.752 408.118 547.882L408.59 547ZM409.56 548.48C409.825 548.56 410.104 548.411 410.184 548.147C410.264 547.883 410.115 547.603 409.851 547.523L409.56 548.48ZM411.19 547.79C410.915 547.763 410.67 547.964 410.643 548.238C410.616 548.513 410.817 548.758 411.092 548.785L411.19 547.79ZM412.653 548.785C412.928 548.758 413.129 548.513 413.101 548.238C413.074 547.964 412.83 547.763 412.555 547.79L412.653 548.785ZM413.894 547.523C413.629 547.603 413.48 547.883 413.56 548.147C413.641 548.411 413.92 548.56 414.184 548.48L413.894 547.523ZM415.626 547.882C415.87 547.752 415.962 547.449 415.831 547.206C415.701 546.962 415.398 546.87 415.155 547L415.626 547.882ZM416.289 546.242C416.076 546.417 416.045 546.732 416.22 546.945C416.396 547.159 416.711 547.19 416.924 547.014L416.289 546.242ZM418.027 545.91C418.202 545.696 418.171 545.381 417.958 545.206C417.744 545.031 417.429 545.062 417.254 545.276L418.027 545.91ZM418.011 544.14C417.882 544.384 417.974 544.687 418.217 544.817C418.461 544.947 418.764 544.855 418.894 544.611L418.011 544.14ZM419.49 543.168C419.57 542.904 419.42 542.625 419.156 542.545C418.892 542.465 418.613 542.614 418.533 542.879L419.49 543.168ZM418.798 541.539C418.771 541.814 418.972 542.059 419.247 542.086C419.522 542.112 419.766 541.911 419.793 541.636L418.798 541.539ZM419.83 539.976C419.83 539.699 419.607 539.476 419.33 539.476C419.054 539.476 418.83 539.699 418.83 539.976H419.83ZM418.83 538.214C418.83 538.49 419.054 538.714 419.33 538.714C419.607 538.714 419.83 538.49 419.83 538.214H418.83ZM419.078 537.892C419.218 538.131 419.524 538.211 419.762 538.071C420.001 537.932 420.081 537.625 419.941 537.387L419.078 537.892ZM420.3 537.999C420.16 537.761 419.854 537.681 419.616 537.82C419.377 537.96 419.297 538.266 419.437 538.505L420.3 537.999ZM420.534 540.072C420.717 540.278 421.033 540.297 421.24 540.113C421.446 539.929 421.464 539.613 421.281 539.407L420.534 540.072ZM423.445 541.044C423.196 540.923 422.897 541.027 422.777 541.275C422.657 541.524 422.76 541.823 423.009 541.943L423.445 541.044ZM426.012 542.726C426.287 542.742 426.524 542.532 426.54 542.256C426.556 541.981 426.346 541.744 426.07 541.728L426.012 542.726ZM428.758 541.356C428.497 541.447 428.359 541.732 428.449 541.992C428.54 542.253 428.825 542.392 429.086 542.301L428.758 541.356ZM431.763 540.733C431.97 540.549 431.989 540.233 431.805 540.027C431.622 539.82 431.306 539.802 431.099 539.985L431.763 540.733ZM432.738 537.822C432.617 538.071 432.721 538.37 432.969 538.491C433.218 538.611 433.517 538.508 433.637 538.259L432.738 537.822ZM434.423 535.257C434.44 534.982 434.23 534.745 433.954 534.728C433.678 534.712 433.442 534.922 433.425 535.198L434.423 535.257ZM433.056 532.509C433.146 532.77 433.431 532.909 433.692 532.819C433.953 532.729 434.091 532.444 434.001 532.183L433.056 532.509ZM432.319 529.006C432.18 528.768 431.873 528.688 431.635 528.828C431.397 528.967 431.317 529.274 431.456 529.512L432.319 529.006ZM429.395 525.993C429.535 526.231 429.841 526.311 430.08 526.172C430.318 526.032 430.398 525.726 430.258 525.488L429.395 525.993ZM429.3 524.194C429.501 524.004 429.509 523.688 429.32 523.487C429.13 523.287 428.813 523.278 428.613 523.468L429.3 524.194ZM428.922 523.17C428.725 523.363 428.722 523.68 428.916 523.877C429.109 524.074 429.426 524.077 429.623 523.883L428.922 523.17ZM432.221 520.876C432.384 520.653 432.335 520.341 432.112 520.178C431.889 520.015 431.576 520.064 431.413 520.287L432.221 520.876ZM434.699 513.913C434.612 514.175 434.753 514.458 435.016 514.545C435.278 514.633 435.561 514.491 435.648 514.229L434.699 513.913ZM440.094 514.387C440.309 514.56 440.624 514.526 440.797 514.31C440.97 514.095 440.935 513.78 440.72 513.607L440.094 514.387ZM449.413 520.589C449.198 520.416 448.883 520.451 448.71 520.666C448.537 520.881 448.572 521.196 448.787 521.369L449.413 520.589ZM453.481 525.121C453.706 525.28 454.018 525.226 454.178 525.001C454.337 524.775 454.283 524.463 454.057 524.304L453.481 525.121ZM454.692 524.697C454.449 524.566 454.146 524.657 454.015 524.901C453.885 525.144 453.976 525.447 454.219 525.578L454.692 524.697ZM455.089 526.177C455.305 526.35 455.619 526.316 455.792 526.1C455.965 525.885 455.931 525.57 455.716 525.397L455.089 526.177ZM456.886 526.337C456.671 526.164 456.356 526.199 456.183 526.414C456.01 526.629 456.044 526.944 456.26 527.117L456.886 526.337ZM458.434 528.62C458.68 528.747 458.981 528.651 459.108 528.406C459.235 528.16 459.14 527.859 458.895 527.732L458.434 528.62ZM462.142 528.673C461.867 528.649 461.625 528.853 461.601 529.128C461.577 529.403 461.781 529.645 462.056 529.669L462.142 528.673ZM464.831 529.507C465.101 529.452 465.276 529.188 465.22 528.917C465.165 528.647 464.901 528.472 464.63 528.528L464.831 529.507ZM466.158 528.065C465.903 528.169 465.78 528.46 465.884 528.716C465.988 528.972 466.28 529.095 466.535 528.991L466.158 528.065ZM468.323 528.902C468.596 528.865 468.787 528.612 468.75 528.339C468.712 528.065 468.459 527.874 468.186 527.912L468.323 528.902ZM470.021 526.953C469.813 527.134 469.791 527.45 469.972 527.658C470.154 527.866 470.47 527.888 470.678 527.706L470.021 526.953ZM472.283 525.704C472.415 525.461 472.325 525.158 472.082 525.026C471.839 524.894 471.536 524.984 471.404 525.227L472.283 525.704ZM471.936 523.207C471.963 523.482 472.207 523.683 472.482 523.656C472.757 523.629 472.958 523.385 472.931 523.11L471.936 523.207ZM472.207 521.69C471.988 521.522 471.674 521.562 471.506 521.781C471.337 522 471.378 522.314 471.597 522.482L472.207 521.69ZM471.573 522.465C471.799 522.625 472.111 522.572 472.27 522.346C472.43 522.121 472.377 521.809 472.151 521.649L471.573 522.465ZM472.473 521.37C472.511 521.096 472.321 520.844 472.047 520.805C471.774 520.767 471.521 520.958 471.483 521.231L472.473 521.37ZM471.564 519.807C471.571 520.083 471.8 520.301 472.076 520.294C472.352 520.287 472.571 520.058 472.564 519.782L471.564 519.807ZM472.27 517.649C472.203 517.381 471.931 517.219 471.663 517.287C471.395 517.355 471.233 517.627 471.301 517.894L472.27 517.649ZM470.379 515.643C470.519 515.881 470.825 515.962 471.063 515.822C471.302 515.683 471.382 515.376 471.242 515.138L470.379 515.643ZM471.13 513.821C471.303 513.606 471.268 513.291 471.053 513.118C470.838 512.945 470.523 512.98 470.35 513.195L471.13 513.821ZM471.664 511.559C471.491 511.774 471.525 512.089 471.741 512.262C471.956 512.435 472.271 512.4 472.444 512.185L471.664 511.559ZM475.41 507.824C475.537 507.579 475.442 507.277 475.197 507.149C474.952 507.022 474.65 507.117 474.522 507.362L475.41 507.824ZM476.767 499.655C476.743 499.93 476.946 500.173 477.221 500.197C477.496 500.221 477.739 500.018 477.763 499.743L476.767 499.655ZM476.925 491.62C476.845 491.355 476.566 491.206 476.302 491.285C476.037 491.365 475.888 491.644 475.968 491.908L476.925 491.62ZM472.501 485.203C472.67 485.421 472.984 485.46 473.202 485.291C473.42 485.121 473.459 484.807 473.29 484.589L472.501 485.203ZM472.923 479.521C473.096 479.306 473.062 478.991 472.846 478.819C472.631 478.646 472.316 478.68 472.143 478.895L472.923 479.521ZM476.732 473.182C476.559 473.397 476.594 473.712 476.809 473.885C477.024 474.058 477.339 474.023 477.512 473.808L476.732 473.182ZM480.84 469.362C480.967 469.117 480.871 468.815 480.626 468.688C480.381 468.561 480.079 468.656 479.952 468.901L480.84 469.362ZM480.895 465.653C480.871 465.928 481.075 466.171 481.35 466.195C481.625 466.218 481.867 466.015 481.891 465.74L480.895 465.653ZM481.478 461.99C481.395 461.727 481.114 461.581 480.851 461.664C480.587 461.747 480.441 462.028 480.524 462.291L481.478 461.99ZM478.897 459.326C479.075 459.538 479.39 459.566 479.602 459.388C479.813 459.211 479.841 458.895 479.663 458.684L478.897 459.326ZM477.99 457.112C477.767 456.949 477.454 456.996 477.29 457.218C477.127 457.441 477.174 457.754 477.396 457.917L477.99 457.112ZM476.797 457.513C477.033 457.658 477.341 457.585 477.485 457.35C477.63 457.115 477.557 456.807 477.322 456.662L476.797 457.513ZM476.882 456.301C476.697 456.096 476.381 456.079 476.175 456.264C475.97 456.449 475.954 456.765 476.138 456.97L476.882 456.301ZM475.696 456.529C475.902 456.713 476.218 456.696 476.402 456.49C476.586 456.285 476.569 455.969 476.363 455.784L475.696 456.529ZM475.543 455.155C475.312 455.004 475.002 455.069 474.851 455.3C474.7 455.531 474.765 455.841 474.996 455.992L475.543 455.155ZM473.986 455.466C474.242 455.569 474.533 455.445 474.636 455.188C474.739 454.932 474.615 454.641 474.359 454.538L473.986 455.466ZM473.077 454.164C472.806 454.113 472.544 454.292 472.493 454.563C472.442 454.834 472.621 455.096 472.893 455.147L473.077 454.164ZM471.758 455.047C472.034 455.044 472.255 454.818 472.252 454.542C472.25 454.266 472.023 454.044 471.747 454.047L471.758 455.047ZM470.42 454.192C470.15 454.249 469.977 454.514 470.033 454.784C470.09 455.054 470.355 455.228 470.625 455.171L470.42 454.192ZM469.539 455.513C469.793 455.405 469.911 455.111 469.803 454.857C469.694 454.603 469.4 454.485 469.146 454.593L469.539 455.513ZM467.976 455.235C467.748 455.391 467.689 455.702 467.845 455.93C468.001 456.158 468.312 456.216 468.54 456.061L467.976 455.235ZM467.667 456.792C467.86 456.595 467.857 456.279 467.66 456.085C467.462 455.892 467.146 455.896 466.953 456.093L467.667 456.792ZM466.509 456.593L466.065 457.146L466.844 457.772L467.289 457.219L466.509 456.593ZM465.176 458.253L464.731 458.806L465.511 459.432L465.955 458.879L465.176 458.253ZM464.733 458.805L464.728 458.81L465.505 459.44L465.51 459.434L464.733 458.805ZM464.719 458.822L464.714 458.828L465.491 459.457L465.496 459.451L464.719 458.822ZM464.713 458.829L461.607 462.696L462.387 463.322L465.492 459.455L464.713 458.829ZM455.397 470.428L452.292 474.295L453.071 474.921L456.177 471.055L455.397 470.428ZM452.626 474.111C451.437 474.243 450.273 474.49 449.148 474.846L449.45 475.799C450.512 475.463 451.613 475.229 452.737 475.105L452.626 474.111ZM442.944 478.249C442.04 479.006 441.206 479.855 440.455 480.787L441.234 481.414C441.943 480.533 442.732 479.731 443.586 479.015L442.944 478.249ZM440.455 480.787L438.22 483.57L438.999 484.196L441.235 481.414L440.455 480.787ZM433.75 489.136L431.515 491.919L432.294 492.545L434.529 489.762L433.75 489.136ZM432.133 491.787C430.91 491.16 429.545 490.823 428.146 490.821L428.144 491.821C429.384 491.823 430.593 492.121 431.676 492.677L432.133 491.787ZM428.145 490.821H422.999V491.821H428.145V490.821ZM412.708 490.821H402.417V491.821H412.708V490.821ZM392.126 490.821H381.834V491.821H392.126V490.821ZM371.543 490.821H366.397V491.821H371.543V490.821ZM366.397 490.821C365.178 490.823 363.97 490.935 362.787 491.153L362.969 492.137C364.092 491.93 365.239 491.823 366.398 491.821L366.397 490.821ZM356.039 493.721C355.009 494.345 354.032 495.064 353.122 495.872L353.786 496.62C354.651 495.852 355.579 495.169 356.558 494.576L356.039 493.721ZM353.906 496.46C354.057 496.14 354.191 495.811 354.307 495.473L353.361 495.149C353.257 495.451 353.137 495.746 353.002 496.033L353.906 496.46ZM354.769 493.397C354.807 493.048 354.827 492.694 354.827 492.335H353.827C353.827 492.658 353.809 492.976 353.775 493.289L354.769 493.397ZM354.827 492.335C354.827 491.024 354.566 489.772 354.092 488.63L353.168 489.013C353.592 490.036 353.827 491.157 353.827 492.335H354.827ZM348.853 483.39C347.711 482.917 346.459 482.656 345.147 482.656V483.656C346.325 483.656 347.447 483.89 348.47 484.314L348.853 483.39ZM345.147 482.656C343.836 482.656 342.584 482.917 341.442 483.39L341.825 484.314C342.848 483.89 343.97 483.656 345.147 483.656V482.656ZM336.203 488.63C335.729 489.772 335.468 491.024 335.468 492.335H336.468C336.468 491.157 336.702 490.036 337.126 489.013L336.203 488.63ZM335.468 492.335C335.468 493.647 335.729 494.898 336.203 496.04L337.126 495.657C336.702 494.635 336.468 493.513 336.468 492.335H335.468ZM341.442 501.28C342.584 501.753 343.836 502.014 345.147 502.014V501.014C343.97 501.014 342.848 500.78 341.825 500.356L341.442 501.28ZM345.147 502.014C345.621 502.014 346.087 501.98 346.543 501.914L346.4 500.925C345.991 500.984 345.573 501.014 345.147 501.014V502.014ZM349.219 501.119C349.645 500.921 350.053 500.694 350.443 500.439L349.895 499.602C349.546 499.831 349.179 500.035 348.798 500.212L349.219 501.119ZM349.753 499.743C349.208 500.56 348.726 501.414 348.309 502.298L349.213 502.725C349.609 501.885 350.068 501.074 350.585 500.298L349.753 499.743ZM346.61 507.9C346.466 508.863 346.392 509.841 346.391 510.827L347.391 510.828C347.392 509.891 347.462 508.962 347.599 508.047L346.61 507.9ZM346.391 510.828C346.393 512.148 346.525 513.454 346.779 514.729L347.76 514.533C347.518 513.321 347.393 512.081 347.391 510.827L346.391 510.828ZM349.77 521.937C350.493 523.018 351.324 524.034 352.257 524.967L352.964 524.26C352.078 523.373 351.288 522.408 350.601 521.381L349.77 521.937ZM352.257 524.967C352.864 525.574 353.506 526.138 354.178 526.657L354.789 525.865C354.151 525.372 353.541 524.837 352.964 524.26L352.257 524.967ZM358.583 529.236C359.367 529.57 360.173 529.854 360.995 530.085L361.266 529.122C360.485 528.903 359.719 528.633 358.974 528.316L358.583 529.236ZM360.631 529.604V532.417H361.631V529.604H360.631ZM360.631 538.043V540.856H361.631V538.043H360.631ZM360.631 540.856C360.631 541.381 360.683 541.901 360.784 542.409L361.765 542.214C361.676 541.77 361.631 541.315 361.631 540.856H360.631ZM361.972 545.278C362.26 545.708 362.59 546.112 362.962 546.484L363.669 545.776C363.344 545.452 363.055 545.098 362.804 544.722L361.972 545.278ZM362.962 546.484C363.333 546.855 363.737 547.186 364.168 547.473L364.723 546.642C364.347 546.39 363.994 546.101 363.669 545.776L362.962 546.484ZM367.036 548.662C367.544 548.763 368.064 548.814 368.589 548.814V547.814C368.13 547.814 367.675 547.769 367.232 547.681L367.036 548.662ZM368.589 548.814C369.114 548.814 369.634 548.763 370.142 548.662L369.947 547.681C369.503 547.769 369.048 547.814 368.589 547.814V548.814ZM373.01 547.473C373.441 547.186 373.845 546.855 374.216 546.484L373.509 545.776C373.185 546.101 372.831 546.39 372.455 546.642L373.01 547.473ZM374.216 546.484C374.588 546.112 374.919 545.708 375.206 545.278L374.375 544.722C374.123 545.098 373.834 545.452 373.509 545.776L374.216 546.484ZM376.394 542.409C376.495 541.901 376.547 541.381 376.547 540.856H375.547C375.547 541.315 375.502 541.77 375.414 542.214L376.394 542.409ZM376.547 540.856V538.739H375.547V540.856H376.547ZM376.547 534.506V532.389H375.547V534.506H376.547ZM375.616 532.641L376.519 534.184L377.382 533.678L376.479 532.136L375.616 532.641ZM378.326 537.268L379.229 538.811L380.092 538.305L379.189 536.763L378.326 537.268ZM379.229 538.811C379.495 539.264 379.802 539.686 380.146 540.073L380.893 539.409C380.593 539.071 380.324 538.701 380.092 538.305L379.229 538.811ZM382.621 541.948C383.087 542.174 383.576 542.356 384.085 542.488L384.337 541.521C383.893 541.405 383.465 541.246 383.058 541.048L382.621 541.948ZM384.085 542.488C384.593 542.621 385.109 542.702 385.625 542.733L385.685 541.735C385.233 541.708 384.782 541.637 384.337 541.521L384.085 542.488ZM388.701 542.308C389.19 542.139 389.665 541.921 390.118 541.656L389.613 540.793C389.217 541.025 388.802 541.215 388.374 541.363L388.701 542.308ZM390.118 541.656C390.571 541.39 390.994 541.083 391.381 540.739L390.717 539.991C390.378 540.292 390.009 540.561 389.613 540.793L390.118 541.656ZM393.256 538.264C393.482 537.798 393.663 537.308 393.796 536.8L392.828 536.547C392.712 536.992 392.554 537.42 392.356 537.827L393.256 538.264ZM393.796 536.8C393.929 536.292 394.01 535.776 394.041 535.259L393.042 535.2C393.015 535.652 392.945 536.103 392.828 536.547L393.796 536.8ZM393.616 532.183C393.447 531.694 393.229 531.219 392.963 530.766L392.1 531.271C392.332 531.667 392.523 532.083 392.671 532.51L393.616 532.183ZM392.963 530.766L392.863 530.595L392 531.1L392.1 531.271L392.963 530.766ZM392.662 530.252L392.562 530.081L391.699 530.586L391.799 530.757L392.662 530.252ZM392.13 530.833H395.201V529.833H392.13V530.833ZM401.343 530.833H404.414V529.833H401.343V530.833ZM403.914 530.333V532.964H404.914V530.333H403.914ZM403.914 538.226V540.856H404.914V538.226H403.914ZM403.914 540.856C403.914 541.117 403.926 541.377 403.952 541.636L404.947 541.539C404.925 541.313 404.914 541.085 404.914 540.857L403.914 540.856ZM404.254 543.168C404.33 543.417 404.417 543.663 404.517 543.904L405.441 543.522C405.354 543.311 405.278 543.096 405.212 542.879L404.254 543.168ZM404.517 543.904C404.617 544.145 404.728 544.381 404.851 544.611L405.733 544.14C405.626 543.939 405.529 543.733 405.441 543.522L404.517 543.904ZM405.717 545.91C405.882 546.111 406.057 546.304 406.242 546.489L406.949 545.782C406.788 545.621 406.635 545.452 406.491 545.276L405.717 545.91ZM406.242 546.489C406.426 546.674 406.619 546.849 406.82 547.014L407.455 546.242C407.279 546.097 407.11 545.944 406.949 545.782L406.242 546.489ZM408.118 547.882C408.348 548.005 408.583 548.117 408.825 548.217L409.208 547.293C408.997 547.205 408.79 547.108 408.59 547L408.118 547.882ZM408.825 548.217C409.066 548.317 409.311 548.405 409.56 548.48L409.851 547.523C409.633 547.457 409.418 547.38 409.208 547.293L408.825 548.217ZM411.092 548.785C411.351 548.811 411.611 548.823 411.872 548.823V547.823C411.644 547.823 411.416 547.812 411.19 547.79L411.092 548.785ZM411.872 548.823C412.133 548.823 412.394 548.811 412.653 548.785L412.555 547.79C412.328 547.812 412.101 547.823 411.872 547.823V548.823ZM414.184 548.48C414.433 548.405 414.679 548.317 414.92 548.217L414.537 547.293C414.326 547.38 414.111 547.457 413.894 547.523L414.184 548.48ZM414.92 548.217C415.161 548.117 415.397 548.005 415.626 547.882L415.155 547C414.954 547.108 414.748 547.205 414.537 547.293L414.92 548.217ZM416.924 547.014C417.125 546.849 417.318 546.674 417.503 546.489L416.795 545.782C416.634 545.944 416.465 546.097 416.289 546.242L416.924 547.014ZM417.503 546.489C417.687 546.304 417.862 546.111 418.027 545.91L417.254 545.276C417.11 545.452 416.957 545.621 416.795 545.782L417.503 546.489ZM418.894 544.611C419.016 544.381 419.128 544.145 419.227 543.904L418.303 543.522C418.216 543.733 418.119 543.939 418.011 544.14L418.894 544.611ZM419.227 543.904C419.327 543.663 419.415 543.417 419.49 543.168L418.533 542.879C418.467 543.096 418.39 543.311 418.303 543.522L419.227 543.904ZM419.793 541.636C419.818 541.377 419.831 541.117 419.83 540.856L418.83 540.857C418.831 541.085 418.82 541.313 418.798 541.539L419.793 541.636ZM419.83 540.856V539.976H418.83V540.856H419.83ZM419.83 538.214V537.334H418.83V538.214H419.83ZM418.899 537.586L419.078 537.892L419.941 537.387L419.762 537.081L418.899 537.586ZM419.437 538.505L419.616 538.811L420.479 538.305L420.3 537.999L419.437 538.505ZM419.616 538.811C419.882 539.264 420.19 539.685 420.534 540.072L421.281 539.407C420.98 539.069 420.711 538.701 420.479 538.305L419.616 538.811ZM423.009 541.943C423.474 542.169 423.964 542.35 424.472 542.483L424.724 541.515C424.28 541.399 423.852 541.241 423.445 541.044L423.009 541.943ZM424.472 542.483C424.98 542.615 425.495 542.696 426.012 542.726L426.07 541.728C425.619 541.701 425.168 541.631 424.724 541.515L424.472 542.483ZM429.086 542.301C429.574 542.132 430.049 541.914 430.502 541.649L429.996 540.786C429.6 541.018 429.185 541.208 428.758 541.356L429.086 542.301ZM430.502 541.649C430.954 541.383 431.377 541.076 431.763 540.733L431.099 539.985C430.761 540.285 430.392 540.554 429.996 540.786L430.502 541.649ZM433.637 538.259C433.863 537.794 434.045 537.305 434.178 536.797L433.211 536.544C433.094 536.988 432.936 537.416 432.738 537.822L433.637 538.259ZM434.178 536.797C434.311 536.289 434.392 535.774 434.423 535.257L433.425 535.198C433.398 535.649 433.327 536.1 433.211 536.544L434.178 536.797ZM434.001 532.183C433.832 531.694 433.615 531.219 433.35 530.766L432.487 531.271C432.718 531.667 432.908 532.082 433.056 532.509L434.001 532.183ZM433.35 530.766L432.319 529.006L431.456 529.512L432.487 531.271L433.35 530.766ZM430.258 525.488L429.228 523.728L428.365 524.234L429.395 525.993L430.258 525.488ZM429.137 524.347C429.191 524.296 429.246 524.245 429.3 524.194L428.613 523.468C428.561 523.517 428.508 523.566 428.456 523.614L429.137 524.347ZM429.623 523.883C429.676 523.831 429.729 523.778 429.782 523.725L429.075 523.018C429.024 523.069 428.973 523.119 428.922 523.17L429.623 523.883ZM429.782 523.725C430.673 522.835 431.487 521.881 432.221 520.876L431.413 520.287C430.71 521.25 429.929 522.164 429.075 523.018L429.782 523.725ZM435.648 514.229C436.042 513.044 436.346 511.828 436.554 510.589L435.568 510.424C435.368 511.611 435.077 512.777 434.699 513.913L435.648 514.229ZM435.748 510.896L440.094 514.387L440.72 513.607L436.374 510.117L435.748 510.896ZM448.787 521.369L453.133 524.86L453.759 524.08L449.413 520.589L448.787 521.369ZM453.134 524.86C453.247 524.951 453.363 525.038 453.481 525.121L454.057 524.304C453.956 524.232 453.856 524.158 453.759 524.08L453.134 524.86ZM454.219 525.578C454.347 525.646 454.477 525.711 454.608 525.771L455.027 524.863C454.914 524.811 454.802 524.755 454.692 524.697L454.219 525.578ZM454.504 525.707L455.089 526.177L455.716 525.397L455.13 524.927L454.504 525.707ZM456.26 527.117L456.845 527.587L457.471 526.807L456.886 526.337L456.26 527.117ZM456.846 527.588C457.344 527.986 457.876 528.33 458.434 528.62L458.895 527.732C458.394 527.472 457.917 527.163 457.47 526.806L456.846 527.588ZM462.056 529.669C462.682 529.723 463.317 529.716 463.95 529.646L463.84 528.652C463.272 528.715 462.703 528.721 462.142 528.673L462.056 529.669ZM463.95 529.646C464.247 529.613 464.541 529.567 464.831 529.507L464.63 528.528C464.37 528.581 464.107 528.623 463.84 528.652L463.95 529.646ZM466.535 528.991C466.811 528.879 467.081 528.754 467.345 528.617L466.884 527.73C466.648 527.852 466.406 527.964 466.158 528.065L466.535 528.991ZM466.819 528.577C467.256 528.897 467.793 528.976 468.323 528.902L468.186 527.912C467.836 527.96 467.582 527.896 467.41 527.77L466.819 528.577ZM470.678 527.706C470.987 527.437 471.286 527.127 471.563 526.781L470.784 526.155C470.542 526.456 470.285 526.723 470.021 526.953L470.678 527.706ZM471.563 526.781C471.844 526.431 472.085 526.069 472.283 525.704L471.404 525.227C471.235 525.538 471.028 525.851 470.784 526.155L471.563 526.781ZM472.931 523.11C472.878 522.569 472.667 522.059 472.234 521.712L471.608 522.491C471.777 522.627 471.901 522.856 471.936 523.207L472.931 523.11ZM472.234 521.712C472.225 521.704 472.216 521.697 472.207 521.69L471.597 522.482C471.6 522.485 471.604 522.488 471.608 522.491L472.234 521.712ZM472.151 521.649C472.142 521.642 472.132 521.636 472.123 521.629L471.561 522.457C471.565 522.46 471.569 522.462 471.573 522.465L472.151 521.649ZM472.33 522.153C472.388 521.894 472.436 521.633 472.473 521.37L471.483 521.231C471.449 521.467 471.407 521.701 471.354 521.933L472.33 522.153ZM472.564 519.782C472.557 519.517 472.539 519.252 472.511 518.987L471.517 519.094C471.542 519.332 471.558 519.57 471.564 519.807L472.564 519.782ZM472.511 518.987C472.462 518.533 472.381 518.086 472.27 517.649L471.301 517.894C471.4 518.287 471.473 518.687 471.517 519.094L472.511 518.987ZM471.242 515.138C471.014 514.747 470.757 514.372 470.475 514.015L469.691 514.636C469.944 514.956 470.174 515.292 470.379 515.643L471.242 515.138ZM470.473 514.639L471.13 513.821L470.35 513.195L469.693 514.013L470.473 514.639ZM472.444 512.185L473.101 511.367L472.321 510.741L471.664 511.559L472.444 512.185ZM473.101 511.367C473.991 510.256 474.762 509.068 475.41 507.824L474.522 507.362C473.905 508.549 473.17 509.682 472.321 510.741L473.101 511.367ZM477.763 499.743C477.885 498.345 477.872 496.929 477.718 495.514L476.724 495.623C476.871 496.972 476.884 498.322 476.767 499.655L477.763 499.743ZM477.718 495.514C477.573 494.185 477.306 492.882 476.925 491.62L475.968 491.908C476.331 493.112 476.585 494.355 476.724 495.623L477.718 495.514ZM473.29 484.589C472.479 483.548 471.57 482.577 470.57 481.691L469.907 482.439C470.86 483.284 471.727 484.21 472.501 485.203L473.29 484.589ZM470.629 482.378L472.923 479.521L472.143 478.895L469.849 481.752L470.629 482.378ZM477.512 473.808L479.806 470.951L479.026 470.325L476.732 473.182L477.512 473.808ZM479.807 470.951C480.205 470.452 480.55 469.92 480.84 469.362L479.952 468.901C479.693 469.402 479.383 469.879 479.026 470.326L479.807 470.951ZM481.891 465.74C481.945 465.113 481.939 464.479 481.869 463.845L480.875 463.954C480.938 464.523 480.943 465.092 480.895 465.653L481.891 465.74ZM481.869 463.845C481.799 463.211 481.667 462.59 481.478 461.99L480.524 462.291C480.694 462.829 480.812 463.386 480.875 463.954L481.869 463.845ZM479.663 458.684C479.259 458.202 478.806 457.757 478.309 457.358L477.683 458.138C478.129 458.496 478.535 458.894 478.897 459.326L479.663 458.684ZM478.309 457.358C478.204 457.274 478.098 457.192 477.99 457.112L477.396 457.917C477.493 457.989 477.589 458.062 477.683 458.138L478.309 457.358ZM477.322 456.662C477.207 456.591 477.091 456.523 476.974 456.458L476.486 457.33C476.591 457.389 476.695 457.45 476.797 457.513L477.322 456.662ZM477.119 456.58C477.042 456.485 476.963 456.392 476.882 456.301L476.138 456.97C476.208 457.048 476.276 457.127 476.341 457.208L477.119 456.58ZM476.363 455.784C476.272 455.703 476.179 455.624 476.084 455.547L475.458 456.327C475.539 456.392 475.619 456.46 475.696 456.529L476.363 455.784ZM476.084 455.547C475.91 455.408 475.729 455.277 475.543 455.155L474.996 455.992C475.155 456.096 475.309 456.208 475.458 456.327L476.084 455.547ZM474.359 454.538C474.152 454.455 473.942 454.382 473.727 454.32L473.447 455.28C473.63 455.333 473.81 455.395 473.986 455.466L474.359 454.538ZM473.727 454.32C473.513 454.257 473.296 454.205 473.077 454.164L472.893 455.147C473.079 455.182 473.264 455.226 473.447 455.28L473.727 454.32ZM471.747 454.047C471.525 454.05 471.302 454.063 471.08 454.087L471.189 455.081C471.378 455.061 471.568 455.049 471.758 455.047L471.747 454.047ZM471.08 454.087C470.858 454.111 470.638 454.146 470.42 454.192L470.625 455.171C470.811 455.132 470.999 455.102 471.189 455.081L471.08 454.087ZM469.146 454.593C468.942 454.68 468.741 454.778 468.545 454.885L469.026 455.762C469.193 455.671 469.364 455.587 469.539 455.513L469.146 454.593ZM468.545 454.885C468.349 454.993 468.159 455.109 467.976 455.235L468.54 456.061C468.697 455.953 468.859 455.854 469.026 455.762L468.545 454.885ZM466.953 456.093C466.797 456.252 466.649 456.419 466.509 456.593L467.289 457.219C467.408 457.07 467.534 456.928 467.667 456.792L466.953 456.093ZM466.899 456.906L466.119 456.28V456.28L466.899 456.906ZM468.786 455.324L469.266 456.201L468.786 455.324ZM465.121 459.119L465.899 459.748L465.901 459.745L465.121 459.119ZM465.103 459.142L464.325 458.513L464.323 458.516L465.103 459.142ZM452.682 474.608L452.792 475.602L453.202 475.556L453.461 475.234L452.682 474.608ZM440.845 481.101L440.066 480.473L440.065 480.474L440.845 481.101ZM431.904 492.232L431.448 493.122L432.173 493.494L432.684 492.858L431.904 492.232ZM428.145 491.321L428.146 490.321H428.145V491.321ZM366.397 491.321V490.321H366.396L366.397 491.321ZM353.454 496.246L352.55 495.82L354.118 496.994L353.454 496.246ZM350.169 500.02L351.001 500.575L349.621 499.184L350.169 500.02ZM346.891 510.827L345.891 510.826L345.891 510.828L346.891 510.827ZM352.611 524.614L351.904 525.321L352.611 524.614ZM361.131 529.604H362.131V528.846L361.402 528.641L361.131 529.604ZM376.047 532.389L376.91 531.883L375.047 528.703V532.389H376.047ZM379.661 538.558L378.798 539.063L378.798 539.063L379.661 538.558ZM384.211 542.005L384.464 541.037L384.464 541.037L384.211 542.005ZM389.866 541.224L390.371 542.087L389.866 541.224ZM393.312 536.674L394.28 536.927V536.927L393.312 536.674ZM392.532 531.019L391.669 531.524L391.669 531.524L392.532 531.019ZM392.13 530.333V529.333H390.386L391.268 530.839L392.13 530.333ZM404.414 530.333H405.414V529.333H404.414V530.333ZM404.414 540.856L405.414 540.857V540.856H404.414ZM404.979 543.713L404.055 544.095L404.055 544.095L404.979 543.713ZM409.016 547.755L409.399 546.831L409.016 547.755ZM414.728 547.755L414.345 546.831H414.345L414.728 547.755ZM417.149 546.136L416.442 545.429L417.149 546.136ZM418.765 543.713L417.841 543.331L417.841 543.331L418.765 543.713ZM419.33 540.856H418.33V540.857L419.33 540.856ZM419.33 537.334L420.193 536.828L418.33 533.647V537.334H419.33ZM420.048 538.558L419.185 539.063L419.185 539.064L420.048 538.558ZM424.598 541.999L424.346 542.966L424.598 541.999ZM430.249 541.217L430.754 542.08L430.249 541.217ZM433.694 536.67L432.727 536.417V536.417L433.694 536.67ZM432.918 531.019L433.782 530.514L433.781 530.513L432.918 531.019ZM428.796 523.981L428.116 523.248L427.528 523.794L427.933 524.486L428.796 523.981ZM429.428 523.372L428.721 522.665L429.428 523.372ZM436.061 510.507L436.687 509.727L435.357 508.659L435.075 510.341L436.061 510.507ZM453.446 524.47L452.82 525.249L452.821 525.25L453.446 524.47ZM454.817 525.317L455.444 524.537L455.348 524.46L455.236 524.409L454.817 525.317ZM457.158 527.197L456.532 527.977L456.534 527.978L457.158 527.197ZM463.895 529.149L463.786 528.155L463.895 529.149ZM467.114 528.173L467.705 527.366L467.205 527L466.654 527.286L467.114 528.173ZM471.173 526.468L471.953 527.094L471.173 526.468ZM471.921 522.102L472.547 521.322L472.547 521.322L471.921 522.102ZM471.842 522.043L470.867 521.823L470.717 522.488L471.281 522.871L471.842 522.043ZM472.014 519.041L471.019 519.148V519.148L472.014 519.041ZM470.083 514.326L469.303 513.7L468.804 514.322L469.299 514.947L470.083 514.326ZM472.711 511.054L473.49 511.68L473.491 511.679L472.711 511.054ZM477.221 495.568L476.227 495.677L477.221 495.568ZM470.239 482.065L469.459 481.439L468.863 482.182L469.576 482.814L470.239 482.065ZM479.416 470.638L480.196 471.264L480.197 471.263L479.416 470.638ZM481.372 463.899L482.366 463.79L481.372 463.899ZM477.996 457.748L478.622 456.968V456.968L477.996 457.748ZM476.73 456.894L475.952 457.522L476.073 457.672L476.242 457.767L476.73 456.894ZM475.771 455.937L476.397 455.158V455.158L475.771 455.937ZM473.587 454.8L473.867 453.84L473.867 453.84L473.587 454.8ZM471.134 454.584L471.243 455.578L471.134 454.584ZM465.675 456.833C465.329 457.264 465.398 457.893 465.828 458.239C466.259 458.585 466.888 458.516 467.234 458.085L465.675 456.833ZM466.345 459.192C466.691 458.762 466.622 458.132 466.192 457.786C465.761 457.44 465.132 457.509 464.786 457.94L466.345 459.192ZM464.339 458.496C463.992 458.925 464.058 459.555 464.487 459.902C464.917 460.25 465.546 460.183 465.894 459.754L464.339 458.496ZM465.885 459.766C466.232 459.336 466.166 458.707 465.736 458.359C465.307 458.012 464.677 458.078 464.33 458.507L465.885 459.766ZM461.218 462.383C460.872 462.813 460.941 463.443 461.371 463.788C461.802 464.134 462.431 464.065 462.777 463.635L461.218 462.383ZM456.566 471.368C456.912 470.937 456.844 470.308 456.413 469.962C455.982 469.616 455.353 469.685 455.007 470.115L456.566 471.368ZM448.998 474.369C448.471 474.535 448.179 475.097 448.345 475.624C448.512 476.15 449.074 476.442 449.6 476.276L448.998 474.369ZM443.908 479.399C444.331 479.044 444.387 478.413 444.032 477.99C443.677 477.566 443.046 477.511 442.623 477.865L443.908 479.399ZM437.83 483.257C437.484 483.688 437.553 484.317 437.983 484.663C438.414 485.009 439.043 484.94 439.389 484.51L437.83 483.257ZM434.919 490.075C435.265 489.645 435.196 489.015 434.766 488.669C434.335 488.324 433.706 488.392 433.36 488.823L434.919 490.075ZM422.999 490.321C422.447 490.321 421.999 490.769 421.999 491.321C421.999 491.874 422.447 492.321 422.999 492.321V490.321ZM412.708 492.321C413.26 492.321 413.708 491.874 413.708 491.321C413.708 490.769 413.26 490.321 412.708 490.321V492.321ZM402.417 490.321C401.865 490.321 401.417 490.769 401.417 491.321C401.417 491.874 401.865 492.321 402.417 492.321V490.321ZM392.126 492.321C392.678 492.321 393.126 491.874 393.126 491.321C393.126 490.769 392.678 490.321 392.126 490.321V492.321ZM381.834 490.321C381.282 490.321 380.834 490.769 380.834 491.321C380.834 491.874 381.282 492.321 381.834 492.321V490.321ZM371.543 492.321C372.095 492.321 372.543 491.874 372.543 491.321C372.543 490.769 372.095 490.321 371.543 490.321V492.321ZM362.697 490.662C362.153 490.762 361.794 491.283 361.894 491.826C361.995 492.369 362.516 492.729 363.059 492.628L362.697 490.662ZM356.817 495.004C357.289 494.718 357.44 494.103 357.154 493.63C356.868 493.158 356.253 493.007 355.78 493.293L356.817 495.004ZM354.78 495.635C354.959 495.112 354.68 494.544 354.158 494.365C353.635 494.186 353.066 494.464 352.888 494.987L354.78 495.635ZM353.278 493.235C353.218 493.784 353.614 494.277 354.163 494.337C354.712 494.397 355.206 494.001 355.266 493.452L353.278 493.235ZM354.554 488.438C354.342 487.928 353.757 487.686 353.247 487.898C352.737 488.109 352.495 488.694 352.706 489.204L354.554 488.438ZM348.278 484.776C348.788 484.988 349.373 484.745 349.585 484.235C349.796 483.725 349.554 483.14 349.044 482.929L348.278 484.776ZM341.251 482.929C340.74 483.14 340.498 483.725 340.71 484.235C340.921 484.745 341.507 484.988 342.017 484.776L341.251 482.929ZM337.588 489.204C337.8 488.694 337.558 488.109 337.048 487.898C336.537 487.686 335.952 487.928 335.741 488.438L337.588 489.204ZM335.741 496.232C335.952 496.742 336.537 496.984 337.048 496.773C337.558 496.561 337.8 495.976 337.588 495.466L335.741 496.232ZM342.017 499.894C341.507 499.683 340.921 499.925 340.71 500.435C340.498 500.945 340.74 501.53 341.251 501.742L342.017 499.894ZM346.614 502.409C347.161 502.33 347.54 501.823 347.461 501.277C347.382 500.73 346.875 500.351 346.328 500.43L346.614 502.409ZM348.588 499.758C348.087 499.991 347.869 500.585 348.102 501.086C348.334 501.587 348.929 501.805 349.43 501.572L348.588 499.758ZM347.856 502.085C347.621 502.584 347.834 503.18 348.334 503.416C348.833 503.652 349.429 503.438 349.665 502.939L347.856 502.085ZM348.093 508.121C348.175 507.575 347.798 507.066 347.251 506.985C346.705 506.903 346.196 507.28 346.115 507.826L348.093 508.121ZM346.289 514.827C346.397 515.369 346.924 515.72 347.466 515.612C348.007 515.504 348.359 514.977 348.25 514.435L346.289 514.827ZM351.017 521.103C350.71 520.644 350.089 520.521 349.63 520.828C349.17 521.135 349.047 521.756 349.354 522.215L351.017 521.103ZM353.872 527.052C354.309 527.39 354.937 527.309 355.275 526.872C355.612 526.435 355.532 525.807 355.095 525.469L353.872 527.052ZM359.17 527.856C358.661 527.64 358.074 527.877 357.858 528.385C357.642 528.893 357.879 529.48 358.387 529.697L359.17 527.856ZM360.131 532.417C360.131 532.969 360.579 533.417 361.131 533.417C361.683 533.417 362.131 532.969 362.131 532.417H360.131ZM362.131 538.043C362.131 537.491 361.683 537.043 361.131 537.043C360.579 537.043 360.131 537.491 360.131 538.043H362.131ZM360.293 542.506C360.401 543.048 360.928 543.4 361.469 543.292C362.011 543.184 362.363 542.658 362.255 542.116L360.293 542.506ZM363.219 544.444C362.912 543.985 362.291 543.862 361.832 544.168C361.373 544.475 361.25 545.096 361.556 545.555L363.219 544.444ZM363.89 547.889C364.349 548.196 364.97 548.072 365.277 547.613C365.584 547.154 365.46 546.533 365.001 546.226L363.89 547.889ZM367.329 547.19C366.787 547.083 366.261 547.434 366.153 547.976C366.045 548.518 366.397 549.044 366.939 549.152L367.329 547.19ZM370.239 549.152C370.781 549.044 371.133 548.518 371.025 547.976C370.917 547.434 370.391 547.083 369.849 547.19L370.239 549.152ZM372.177 546.226C371.718 546.533 371.594 547.154 371.901 547.613C372.208 548.072 372.829 548.196 373.288 547.889L372.177 546.226ZM375.622 545.555C375.929 545.096 375.805 544.475 375.346 544.168C374.887 543.862 374.266 543.985 373.959 544.444L375.622 545.555ZM374.923 542.116C374.815 542.658 375.167 543.184 375.709 543.292C376.251 543.4 376.777 543.048 376.885 542.506L374.923 542.116ZM377.047 538.739C377.047 538.187 376.6 537.739 376.047 537.739C375.495 537.739 375.047 538.187 375.047 538.739H377.047ZM375.047 534.506C375.047 535.058 375.495 535.506 376.047 535.506C376.6 535.506 377.047 535.058 377.047 534.506H375.047ZM376.088 534.436C376.367 534.913 376.979 535.073 377.456 534.794C377.933 534.515 378.093 533.902 377.813 533.426L376.088 534.436ZM379.62 536.51C379.341 536.034 378.728 535.874 378.252 536.153C377.775 536.432 377.615 537.044 377.894 537.521L379.62 536.51ZM379.772 540.405C380.139 540.818 380.771 540.855 381.184 540.489C381.597 540.122 381.634 539.49 381.267 539.077L379.772 540.405ZM383.276 540.599C382.779 540.357 382.181 540.565 381.94 541.061C381.699 541.558 381.906 542.157 382.403 542.398L383.276 540.599ZM385.596 543.232C386.147 543.265 386.621 542.844 386.653 542.293C386.686 541.742 386.265 541.268 385.714 541.236L385.596 543.232ZM388.21 540.891C387.688 541.072 387.412 541.641 387.593 542.163C387.774 542.685 388.343 542.962 388.865 542.781L388.21 540.891ZM391.713 541.113C392.126 540.746 392.163 540.114 391.796 539.701C391.43 539.288 390.798 539.251 390.385 539.617L391.713 541.113ZM391.906 537.609C391.665 538.106 391.872 538.704 392.369 538.945C392.866 539.186 393.464 538.979 393.705 538.482L391.906 537.609ZM394.54 535.289C394.572 534.737 394.152 534.264 393.601 534.231C393.049 534.199 392.576 534.619 392.543 535.171L394.54 535.289ZM392.199 532.674C392.379 533.196 392.949 533.472 393.471 533.292C393.993 533.111 394.269 532.541 394.088 532.019L392.199 532.674ZM393.294 530.342C393.015 529.865 392.403 529.705 391.926 529.984C391.449 530.263 391.289 530.876 391.569 531.353L393.294 530.342ZM391.368 531.01C391.647 531.487 392.26 531.647 392.736 531.367C393.213 531.088 393.373 530.476 393.094 529.999L391.368 531.01ZM395.201 531.333C395.754 531.333 396.201 530.886 396.201 530.333C396.201 529.781 395.754 529.333 395.201 529.333V531.333ZM401.343 529.333C400.791 529.333 400.343 529.781 400.343 530.333C400.343 530.886 400.791 531.333 401.343 531.333V529.333ZM403.414 532.964C403.414 533.516 403.862 533.964 404.414 533.964C404.966 533.964 405.414 533.516 405.414 532.964H403.414ZM405.414 538.226C405.414 537.673 404.966 537.226 404.414 537.226C403.862 537.226 403.414 537.673 403.414 538.226H405.414ZM403.454 541.685C403.507 542.234 403.996 542.637 404.546 542.583C405.096 542.53 405.498 542.041 405.444 541.491L403.454 541.685ZM405.69 542.734C405.531 542.205 404.972 541.906 404.444 542.066C403.915 542.226 403.616 542.784 403.776 543.313L405.69 542.734ZM404.41 544.846C404.669 545.334 405.275 545.518 405.762 545.258C406.25 544.998 406.434 544.392 406.174 543.905L404.41 544.846ZM406.877 544.959C406.527 544.532 405.897 544.469 405.47 544.819C405.043 545.169 404.98 545.799 405.33 546.227L406.877 544.959ZM406.503 547.401C406.93 547.751 407.56 547.689 407.91 547.263C408.261 546.836 408.199 546.206 407.773 545.855L406.503 547.401ZM408.826 546.56C408.339 546.299 407.733 546.483 407.472 546.97C407.212 547.457 407.395 548.063 407.882 548.323L408.826 546.56ZM409.415 548.959C409.944 549.119 410.502 548.821 410.663 548.292C410.823 547.764 410.525 547.205 409.996 547.045L409.415 548.959ZM411.239 547.292C410.689 547.238 410.2 547.64 410.146 548.189C410.091 548.739 410.493 549.228 411.043 549.283L411.239 547.292ZM412.702 549.283C413.252 549.228 413.653 548.739 413.599 548.189C413.545 547.64 413.055 547.238 412.506 547.292L412.702 549.283ZM413.748 547.045C413.22 547.205 412.921 547.764 413.082 548.292C413.242 548.821 413.801 549.119 414.329 548.959L413.748 547.045ZM415.862 548.323C416.349 548.063 416.533 547.457 416.272 546.97C416.012 546.483 415.406 546.299 414.919 546.56L415.862 548.323ZM415.972 545.855C415.545 546.206 415.483 546.836 415.834 547.263C416.185 547.689 416.815 547.751 417.241 547.401L415.972 545.855ZM418.414 546.227C418.764 545.799 418.702 545.169 418.275 544.819C417.847 544.469 417.217 544.532 416.867 544.959L418.414 546.227ZM417.57 543.905C417.31 544.392 417.495 544.998 417.982 545.258C418.469 545.518 419.075 545.333 419.335 544.846L417.57 543.905ZM419.969 543.313C420.128 542.784 419.829 542.226 419.301 542.066C418.772 541.906 418.214 542.205 418.054 542.734L419.969 543.313ZM418.3 541.491C418.247 542.041 418.649 542.53 419.198 542.583C419.748 542.637 420.237 542.235 420.291 541.685L418.3 541.491ZM420.33 539.976C420.33 539.423 419.883 538.976 419.33 538.976C418.778 538.976 418.33 539.423 418.33 539.976H420.33ZM418.33 538.214C418.33 538.767 418.778 539.214 419.33 539.214C419.883 539.214 420.33 538.767 420.33 538.214H418.33ZM418.647 538.145C418.926 538.622 419.539 538.782 420.015 538.503C420.492 538.223 420.652 537.611 420.373 537.134L418.647 538.145ZM420.731 537.746C420.452 537.27 419.839 537.11 419.363 537.389C418.886 537.668 418.726 538.281 419.005 538.757L420.731 537.746ZM420.16 540.404C420.527 540.817 421.159 540.854 421.572 540.487C421.985 540.119 422.021 539.487 421.654 539.075L420.16 540.404ZM423.663 540.594C423.166 540.353 422.568 540.56 422.327 541.057C422.086 541.554 422.294 542.153 422.791 542.393L423.663 540.594ZM425.982 543.225C426.534 543.258 427.007 542.837 427.039 542.286C427.072 541.735 426.651 541.261 426.1 541.229L425.982 543.225ZM428.594 540.884C428.073 541.065 427.796 541.634 427.977 542.156C428.158 542.678 428.728 542.954 429.249 542.774L428.594 540.884ZM432.095 541.106C432.508 540.74 432.546 540.108 432.179 539.695C431.812 539.282 431.18 539.244 430.767 539.611L432.095 541.106ZM432.288 537.604C432.047 538.101 432.254 538.699 432.751 538.94C433.247 539.182 433.846 538.975 434.087 538.478L432.288 537.604ZM434.922 535.287C434.955 534.736 434.535 534.262 433.984 534.229C433.433 534.196 432.959 534.616 432.926 535.168L434.922 535.287ZM432.583 532.673C432.764 533.195 433.333 533.472 433.855 533.291C434.377 533.111 434.654 532.542 434.474 532.02L432.583 532.673ZM432.751 528.754C432.472 528.277 431.859 528.117 431.383 528.396C430.906 528.675 430.746 529.288 431.025 529.765L432.751 528.754ZM428.964 526.246C429.243 526.722 429.856 526.882 430.332 526.603C430.809 526.324 430.969 525.711 430.69 525.235L428.964 526.246ZM429.644 524.557C430.045 524.178 430.062 523.545 429.683 523.143C429.303 522.742 428.67 522.725 428.269 523.104L429.644 524.557ZM428.572 522.813C428.178 523.2 428.172 523.833 428.559 524.227C428.946 524.621 429.579 524.627 429.973 524.24L428.572 522.813ZM432.625 521.171C432.95 520.725 432.853 520.1 432.407 519.774C431.961 519.448 431.335 519.546 431.01 519.992L432.625 521.171ZM434.225 513.755C434.05 514.279 434.334 514.845 434.858 515.02C435.382 515.194 435.948 514.911 436.122 514.387L434.225 513.755ZM439.781 514.777C440.211 515.123 440.841 515.054 441.187 514.624C441.533 514.193 441.464 513.563 441.033 513.218L439.781 514.777ZM449.726 520.199C449.295 519.853 448.666 519.922 448.32 520.353C447.974 520.783 448.043 521.413 448.474 521.759L449.726 520.199ZM453.192 525.53C453.644 525.848 454.268 525.74 454.586 525.289C454.904 524.838 454.797 524.214 454.346 523.896L453.192 525.53ZM454.929 524.256C454.442 523.995 453.836 524.178 453.575 524.664C453.314 525.151 453.496 525.757 453.983 526.018L454.929 524.256ZM454.776 526.567C455.207 526.913 455.836 526.844 456.182 526.413C456.528 525.983 456.459 525.353 456.029 525.007L454.776 526.567ZM457.199 525.947C456.768 525.602 456.139 525.67 455.793 526.101C455.447 526.531 455.516 527.161 455.947 527.507L457.199 525.947ZM458.204 529.064C458.695 529.318 459.298 529.126 459.552 528.636C459.806 528.145 459.615 527.542 459.125 527.288L458.204 529.064ZM462.185 528.174C461.635 528.127 461.15 528.535 461.103 529.085C461.055 529.635 461.463 530.12 462.013 530.167L462.185 528.174ZM464.931 529.997C465.472 529.886 465.821 529.358 465.71 528.817C465.599 528.276 465.071 527.927 464.53 528.038L464.931 529.997ZM465.97 527.601C465.458 527.81 465.212 528.393 465.421 528.905C465.629 529.416 466.212 529.662 466.724 529.454L465.97 527.601ZM468.391 529.398C468.938 529.322 469.321 528.817 469.245 528.27C469.169 527.723 468.664 527.341 468.117 527.417L468.391 529.398ZM469.692 526.576C469.276 526.939 469.233 527.571 469.596 527.987C469.959 528.403 470.59 528.446 471.007 528.083L469.692 526.576ZM472.722 525.943C472.986 525.457 472.806 524.85 472.321 524.587C471.835 524.323 471.228 524.503 470.965 524.988L472.722 525.943ZM471.438 523.256C471.492 523.805 471.981 524.207 472.531 524.154C473.08 524.1 473.482 523.611 473.429 523.061L471.438 523.256ZM472.512 521.294C472.075 520.957 471.447 521.039 471.11 521.476C470.773 521.914 470.854 522.541 471.291 522.879L472.512 521.294ZM471.284 522.873C471.735 523.192 472.359 523.086 472.678 522.635C472.998 522.184 472.891 521.56 472.44 521.241L471.284 522.873ZM472.968 521.439C473.045 520.893 472.664 520.387 472.117 520.31C471.57 520.233 471.064 520.615 470.987 521.162L472.968 521.439ZM471.064 519.819C471.078 520.372 471.537 520.808 472.089 520.794C472.641 520.78 473.077 520.321 473.063 519.769L471.064 519.819ZM472.755 517.526C472.62 516.991 472.076 516.667 471.54 516.802C471.005 516.938 470.681 517.482 470.816 518.017L472.755 517.526ZM469.948 515.895C470.226 516.372 470.839 516.533 471.316 516.254C471.792 515.975 471.953 515.362 471.674 514.886L469.948 515.895ZM471.52 514.134C471.865 513.703 471.797 513.074 471.366 512.728C470.936 512.382 470.306 512.451 469.96 512.882L471.52 514.134ZM471.274 511.246C470.928 511.676 470.997 512.306 471.428 512.652C471.858 512.997 472.488 512.929 472.834 512.498L471.274 511.246ZM475.853 508.054C476.108 507.564 475.917 506.961 475.427 506.706C474.937 506.451 474.334 506.642 474.079 507.132L475.853 508.054ZM476.269 499.612C476.221 500.162 476.628 500.647 477.178 500.695C477.728 500.743 478.213 500.336 478.261 499.786L476.269 499.612ZM477.404 491.475C477.244 490.947 476.686 490.647 476.157 490.807C475.629 490.966 475.329 491.524 475.489 492.053L477.404 491.475ZM472.106 485.51C472.445 485.946 473.074 486.025 473.509 485.685C473.945 485.346 474.024 484.718 473.684 484.282L472.106 485.51ZM473.313 479.835C473.659 479.404 473.59 478.775 473.159 478.429C472.729 478.083 472.099 478.152 471.754 478.582L473.313 479.835ZM476.342 472.869C475.996 473.299 476.065 473.929 476.496 474.275C476.926 474.62 477.556 474.552 477.902 474.121L476.342 472.869ZM481.284 469.592C481.538 469.102 481.347 468.498 480.857 468.244C480.366 467.99 479.763 468.181 479.508 468.671L481.284 469.592ZM480.397 465.61C480.349 466.16 480.757 466.645 481.307 466.693C481.857 466.74 482.342 466.333 482.389 465.783L480.397 465.61ZM481.955 461.84C481.789 461.313 481.227 461.021 480.7 461.187C480.173 461.354 479.881 461.915 480.048 462.442L481.955 461.84ZM478.514 459.648C478.869 460.071 479.5 460.126 479.923 459.771C480.346 459.416 480.401 458.785 480.046 458.362L478.514 459.648ZM478.286 456.71C477.842 456.382 477.216 456.477 476.888 456.922C476.56 457.366 476.655 457.992 477.1 458.32L478.286 456.71ZM476.535 457.939C477.006 458.229 477.622 458.082 477.911 457.612C478.201 457.141 478.054 456.525 477.584 456.236L476.535 457.939ZM477.253 455.967C476.884 455.556 476.251 455.523 475.841 455.893C475.43 456.262 475.397 456.894 475.767 457.305L477.253 455.967ZM475.362 456.902C475.774 457.27 476.406 457.235 476.775 456.824C477.143 456.413 477.108 455.78 476.697 455.412L475.362 456.902ZM475.816 454.736C475.354 454.434 474.734 454.564 474.432 455.027C474.13 455.489 474.26 456.109 474.723 456.411L475.816 454.736ZM473.8 455.93C474.312 456.136 474.894 455.887 475.1 455.375C475.306 454.862 475.058 454.28 474.545 454.074L473.8 455.93ZM473.17 453.673C472.627 453.571 472.104 453.928 472.002 454.471C471.9 455.014 472.257 455.536 472.8 455.638L473.17 453.673ZM471.763 455.547C472.315 455.541 472.758 455.089 472.752 454.537C472.747 453.984 472.294 453.541 471.742 453.547L471.763 455.547ZM470.317 453.703C469.777 453.816 469.431 454.346 469.544 454.887C469.657 455.427 470.188 455.774 470.728 455.66L470.317 453.703ZM469.735 455.973C470.243 455.756 470.479 455.169 470.262 454.661C470.046 454.153 469.458 453.917 468.95 454.133L469.735 455.973ZM467.694 454.822C467.238 455.134 467.121 455.756 467.432 456.212C467.744 456.668 468.366 456.785 468.822 456.473L467.694 454.822ZM468.024 457.142C468.411 456.748 468.404 456.114 468.009 455.728C467.615 455.342 466.982 455.348 466.595 455.743L468.024 457.142ZM466.119 456.28L465.675 456.833L467.234 458.085L467.679 457.532L466.119 456.28ZM464.786 457.94L464.342 458.493L465.901 459.745L466.345 459.192L464.786 457.94ZM464.344 458.49L464.339 458.496L465.894 459.754L465.899 459.748L464.344 458.49ZM464.33 458.507L464.325 458.513L465.88 459.771L465.885 459.766L464.33 458.507ZM464.323 458.516L461.218 462.383L462.777 463.635L465.882 459.769L464.323 458.516ZM455.007 470.115L451.902 473.982L453.461 475.234L456.566 471.368L455.007 470.115ZM452.571 473.614C451.349 473.749 450.153 474.004 448.998 474.369L449.6 476.276C450.632 475.95 451.7 475.723 452.792 475.602L452.571 473.614ZM442.623 477.865C441.694 478.644 440.837 479.516 440.066 480.473L441.624 481.728C442.312 480.872 443.078 480.093 443.908 479.399L442.623 477.865ZM440.065 480.474L437.83 483.257L439.389 484.51L441.624 481.727L440.065 480.474ZM433.36 488.823L431.125 491.606L432.684 492.858L434.919 490.075L433.36 488.823ZM432.361 491.342C431.069 490.679 429.626 490.323 428.146 490.321L428.144 492.321C429.304 492.323 430.435 492.602 431.448 493.122L432.361 491.342ZM428.145 490.321H422.999V492.321H428.145V490.321ZM412.708 490.321H402.417V492.321H412.708V490.321ZM392.126 490.321H381.834V492.321H392.126V490.321ZM371.543 490.321H366.397V492.321H371.543V490.321ZM366.396 490.321C365.147 490.323 363.909 490.438 362.697 490.662L363.059 492.628C364.153 492.427 365.27 492.323 366.398 492.321L366.396 490.321ZM355.78 493.293C354.725 493.933 353.723 494.67 352.79 495.498L354.118 496.994C354.96 496.246 355.864 495.581 356.817 495.004L355.78 493.293ZM354.359 496.673C354.517 496.337 354.658 495.99 354.78 495.635L352.888 494.987C352.79 495.272 352.677 495.55 352.55 495.82L354.359 496.673ZM355.266 493.452C355.306 493.085 355.327 492.712 355.327 492.335H353.327C353.327 492.639 353.31 492.939 353.278 493.235L355.266 493.452ZM355.327 492.335C355.327 490.957 355.052 489.64 354.554 488.438L352.706 489.204C353.106 490.167 353.327 491.224 353.327 492.335H355.327ZM349.044 482.929C347.843 482.43 346.526 482.156 345.147 482.156V484.156C346.258 484.156 347.315 484.377 348.278 484.776L349.044 482.929ZM345.147 482.156C343.769 482.156 342.452 482.43 341.251 482.929L342.017 484.776C342.98 484.377 344.036 484.156 345.147 484.156V482.156ZM335.741 488.438C335.243 489.64 334.968 490.957 334.968 492.335H336.968C336.968 491.224 337.189 490.167 337.588 489.204L335.741 488.438ZM334.968 492.335C334.968 493.713 335.243 495.03 335.741 496.232L337.588 495.466C337.189 494.503 336.968 493.446 336.968 492.335H334.968ZM341.251 501.742C342.452 502.24 343.769 502.514 345.147 502.514V500.514C344.036 500.514 342.98 500.293 342.017 499.894L341.251 501.742ZM345.147 502.514C345.645 502.514 346.135 502.479 346.614 502.409L346.328 500.43C345.943 500.485 345.549 500.514 345.147 500.514V502.514ZM349.43 501.572C349.877 501.364 350.307 501.125 350.716 500.857L349.621 499.184C349.292 499.399 348.947 499.591 348.588 499.758L349.43 501.572ZM349.337 499.466C348.779 500.303 348.284 501.179 347.856 502.085L349.665 502.939C350.051 502.121 350.497 501.331 351.001 500.575L349.337 499.466ZM346.115 507.826C345.968 508.814 345.892 509.816 345.891 510.826L347.891 510.828C347.892 509.917 347.961 509.012 348.093 508.121L346.115 507.826ZM345.891 510.828C345.893 512.181 346.028 513.52 346.289 514.827L348.25 514.435C348.015 513.255 347.893 512.047 347.891 510.826L345.891 510.828ZM349.354 522.215C350.095 523.323 350.947 524.364 351.904 525.321L353.318 523.907C352.455 523.043 351.685 522.104 351.017 521.103L349.354 522.215ZM351.904 525.321C352.526 525.943 353.183 526.52 353.872 527.052L355.095 525.469C354.473 524.989 353.879 524.468 353.318 523.907L351.904 525.321ZM358.387 529.697C359.191 530.039 360.017 530.329 360.86 530.566L361.402 528.641C360.641 528.427 359.896 528.165 359.17 527.856L358.387 529.697ZM360.131 529.604V532.417H362.131V529.604H360.131ZM360.131 538.043V540.856H362.131V538.043H360.131ZM360.131 540.856C360.131 541.414 360.186 541.967 360.293 542.506L362.255 542.116C362.173 541.704 362.131 541.283 362.131 540.856H360.131ZM361.556 545.555C361.862 546.013 362.214 546.442 362.608 546.837L364.022 545.423C363.721 545.121 363.453 544.793 363.219 544.444L361.556 545.555ZM362.608 546.837C363.003 547.232 363.433 547.583 363.89 547.889L365.001 546.226C364.652 545.993 364.324 545.724 364.022 545.423L362.608 546.837ZM366.939 549.152C367.478 549.259 368.031 549.314 368.589 549.314V547.314C368.163 547.314 367.741 547.272 367.329 547.19L366.939 549.152ZM368.589 549.314C369.147 549.314 369.7 549.259 370.239 549.152L369.849 547.19C369.437 547.272 369.015 547.314 368.589 547.314V549.314ZM373.288 547.889C373.746 547.583 374.175 547.232 374.57 546.837L373.156 545.423C372.854 545.724 372.526 545.993 372.177 546.226L373.288 547.889ZM374.57 546.837C374.965 546.442 375.316 546.013 375.622 545.555L373.959 544.444C373.726 544.793 373.457 545.121 373.156 545.423L374.57 546.837ZM376.885 542.506C376.992 541.967 377.047 541.414 377.047 540.856H375.047C375.047 541.283 375.005 541.704 374.923 542.116L376.885 542.506ZM377.047 540.856V538.739H375.047V540.856H377.047ZM377.047 534.506V532.389H375.047V534.506H377.047ZM375.184 532.894L376.088 534.436L377.813 533.426L376.91 531.883L375.184 532.894ZM377.894 537.521L378.798 539.063L380.524 538.053L379.62 536.51L377.894 537.521ZM378.798 539.063C379.08 539.545 379.407 539.994 379.772 540.405L381.267 539.077C380.988 538.763 380.739 538.42 380.523 538.053L378.798 539.063ZM382.403 542.398C382.898 542.638 383.418 542.831 383.958 542.972L384.464 541.037C384.051 540.929 383.654 540.782 383.276 540.599L382.403 542.398ZM383.958 542.972C384.498 543.113 385.047 543.199 385.596 543.232L385.714 541.236C385.295 541.211 384.876 541.145 384.464 541.037L383.958 542.972ZM388.865 542.781C389.385 542.601 389.889 542.369 390.371 542.087L389.36 540.361C388.992 540.577 388.607 540.753 388.21 540.891L388.865 542.781ZM390.371 542.087C390.853 541.805 391.301 541.478 391.713 541.113L390.385 539.617C390.071 539.896 389.728 540.146 389.36 540.361L390.371 542.087ZM393.705 538.482C393.946 537.987 394.139 537.467 394.28 536.927L392.345 536.421C392.237 536.833 392.09 537.231 391.906 537.609L393.705 538.482ZM394.28 536.927C394.421 536.387 394.507 535.838 394.54 535.289L392.543 535.171C392.518 535.59 392.452 536.009 392.345 536.421L394.28 536.927ZM394.088 532.019C393.908 531.499 393.677 530.995 393.395 530.513L391.669 531.524C391.884 531.892 392.061 532.277 392.199 532.674L394.088 532.019ZM393.395 530.513L393.294 530.342L391.569 531.353L391.669 531.524L393.395 530.513ZM393.094 529.999L392.993 529.828L391.268 530.839L391.368 531.01L393.094 529.999ZM392.13 531.333H395.201V529.333H392.13V531.333ZM401.343 531.333H404.414V529.333H401.343V531.333ZM403.414 530.333V532.964H405.414V530.333H403.414ZM403.414 538.226V540.856H405.414V538.226H403.414ZM403.414 540.855C403.414 541.133 403.427 541.41 403.454 541.685L405.444 541.491C405.424 541.281 405.414 541.069 405.414 540.857L403.414 540.855ZM403.776 543.313C403.856 543.577 403.949 543.838 404.055 544.095L405.903 543.331C405.823 543.135 405.751 542.936 405.69 542.734L403.776 543.313ZM404.055 544.095C404.161 544.352 404.279 544.602 404.41 544.846L406.174 543.905C406.075 543.719 405.984 543.527 405.903 543.331L404.055 544.095ZM405.33 546.227C405.506 546.441 405.692 546.646 405.888 546.842L407.303 545.429C407.153 545.279 407.011 545.122 406.877 544.959L405.33 546.227ZM405.888 546.842C406.084 547.039 406.289 547.225 406.503 547.401L407.773 545.855C407.609 545.721 407.453 545.579 407.303 545.429L405.888 546.842ZM407.882 548.323C408.126 548.454 408.377 548.572 408.633 548.679L409.399 546.831C409.203 546.75 409.012 546.659 408.826 546.56L407.882 548.323ZM408.633 548.679C408.89 548.785 409.151 548.878 409.415 548.959L409.996 547.045C409.794 546.983 409.595 546.912 409.399 546.831L408.633 548.679ZM411.043 549.283C411.318 549.31 411.595 549.323 411.872 549.323V547.323C411.66 547.323 411.449 547.313 411.239 547.292L411.043 549.283ZM411.872 549.323C412.15 549.323 412.427 549.31 412.702 549.283L412.506 547.292C412.296 547.313 412.084 547.323 411.872 547.323V549.323ZM414.329 548.959C414.594 548.878 414.855 548.785 415.111 548.679L414.345 546.831C414.15 546.912 413.95 546.983 413.748 547.045L414.329 548.959ZM415.111 548.679C415.368 548.572 415.618 548.454 415.862 548.323L414.919 546.56C414.733 546.659 414.541 546.75 414.345 546.831L415.111 548.679ZM417.241 547.401C417.455 547.225 417.66 547.039 417.857 546.842L416.442 545.429C416.292 545.579 416.135 545.721 415.972 545.855L417.241 547.401ZM417.857 546.842C418.053 546.646 418.239 546.441 418.414 546.227L416.867 544.959C416.733 545.122 416.591 545.279 416.442 545.429L417.857 546.842ZM419.335 544.846C419.465 544.602 419.583 544.352 419.689 544.095L417.841 543.331C417.76 543.527 417.67 543.719 417.57 543.905L419.335 544.846ZM419.689 544.095C419.795 543.838 419.889 543.577 419.969 543.313L418.054 542.734C417.993 542.936 417.922 543.135 417.841 543.331L419.689 544.095ZM420.291 541.685C420.317 541.41 420.331 541.133 420.33 540.855L418.33 540.857C418.331 541.069 418.321 541.281 418.3 541.491L420.291 541.685ZM420.33 540.856V539.976H418.33V540.856H420.33ZM420.33 538.214V537.334H418.33V538.214H420.33ZM418.468 537.839L418.647 538.145L420.373 537.134L420.193 536.828L418.468 537.839ZM419.005 538.757L419.185 539.063L420.91 538.053L420.731 537.746L419.005 538.757ZM419.185 539.064C419.468 539.545 419.795 539.993 420.16 540.404L421.654 539.075C421.375 538.761 421.126 538.419 420.91 538.052L419.185 539.064ZM422.791 542.393C423.286 542.633 423.806 542.826 424.346 542.966L424.85 541.031C424.438 540.924 424.041 540.777 423.663 540.594L422.791 542.393ZM424.346 542.966C424.885 543.107 425.434 543.193 425.982 543.225L426.1 541.229C425.681 541.204 425.262 541.139 424.85 541.031L424.346 542.966ZM429.249 542.774C429.769 542.593 430.273 542.362 430.754 542.08L429.743 540.354C429.376 540.57 428.991 540.746 428.594 540.884L429.249 542.774ZM430.754 542.08C431.236 541.798 431.684 541.472 432.095 541.106L430.767 539.611C430.453 539.89 430.111 540.139 429.743 540.354L430.754 542.08ZM434.087 538.478C434.327 537.983 434.521 537.463 434.662 536.924L432.727 536.417C432.619 536.829 432.472 537.226 432.288 537.604L434.087 538.478ZM434.662 536.924C434.803 536.384 434.89 535.836 434.922 535.287L432.926 535.168C432.901 535.587 432.835 536.005 432.727 536.417L434.662 536.924ZM434.474 532.02C434.294 531.5 434.063 530.995 433.782 530.514L432.055 531.523C432.27 531.891 432.446 532.276 432.583 532.673L434.474 532.02ZM433.781 530.513L432.751 528.754L431.025 529.765L432.056 531.524L433.781 530.513ZM430.69 525.235L429.659 523.475L427.933 524.486L428.964 526.246L430.69 525.235ZM429.477 524.714C429.533 524.662 429.588 524.61 429.644 524.557L428.269 523.104C428.218 523.153 428.167 523.2 428.116 523.248L429.477 524.714ZM429.973 524.24C430.027 524.187 430.081 524.133 430.135 524.079L428.721 522.665C428.671 522.714 428.622 522.764 428.572 522.813L429.973 524.24ZM430.135 524.079C431.044 523.17 431.876 522.197 432.625 521.171L431.01 519.992C430.321 520.935 429.557 521.829 428.721 522.665L430.135 524.079ZM436.122 514.387C436.525 513.178 436.834 511.936 437.047 510.672L435.075 510.341C434.879 511.502 434.595 512.644 434.225 513.755L436.122 514.387ZM435.434 511.286L439.781 514.777L441.033 513.218L436.687 509.727L435.434 511.286ZM448.474 521.759L452.82 525.249L454.072 523.69L449.726 520.199L448.474 521.759ZM452.821 525.25C452.942 525.347 453.066 525.44 453.192 525.53L454.346 523.896C454.253 523.83 454.161 523.761 454.072 523.689L452.821 525.25ZM453.983 526.018C454.12 526.092 454.258 526.161 454.399 526.225L455.236 524.409C455.132 524.361 455.03 524.31 454.929 524.256L453.983 526.018ZM454.191 526.097L454.776 526.567L456.029 525.007L455.444 524.537L454.191 526.097ZM455.947 527.507L456.532 527.977L457.784 526.417L457.199 525.947L455.947 527.507ZM456.534 527.978C457.058 528.397 457.618 528.759 458.204 529.064L459.125 527.288C458.653 527.043 458.203 526.752 457.782 526.416L456.534 527.978ZM462.013 530.167C462.672 530.224 463.339 530.217 464.005 530.143L463.786 528.155C463.25 528.214 462.714 528.22 462.185 528.174L462.013 530.167ZM464.005 530.143C464.317 530.108 464.626 530.06 464.931 529.997L464.53 528.038C464.285 528.088 464.036 528.127 463.786 528.155L464.005 530.143ZM466.724 529.454C467.014 529.336 467.298 529.205 467.575 529.061L466.654 527.286C466.431 527.401 466.203 527.507 465.97 527.601L466.724 529.454ZM466.524 528.98C467.093 529.397 467.771 529.484 468.391 529.398L468.117 527.417C467.858 527.453 467.745 527.396 467.705 527.366L466.524 528.98ZM471.007 528.083C471.339 527.794 471.658 527.462 471.953 527.094L470.394 525.842C470.171 526.12 469.933 526.366 469.692 526.576L471.007 528.083ZM471.953 527.094C472.252 526.722 472.51 526.334 472.722 525.943L470.965 524.988C470.81 525.272 470.62 525.561 470.394 525.842L471.953 527.094ZM473.429 523.061C473.366 522.425 473.112 521.775 472.547 521.322L471.295 522.881C471.332 522.911 471.413 523 471.438 523.256L473.429 523.061ZM472.547 521.322C472.536 521.313 472.524 521.303 472.512 521.294L471.291 522.879C471.293 522.879 471.294 522.88 471.295 522.881L472.547 521.322ZM472.44 521.241C472.428 521.233 472.416 521.224 472.403 521.216L471.281 522.871C471.282 522.872 471.283 522.872 471.284 522.873L472.44 521.241ZM472.818 522.263C472.879 521.991 472.929 521.716 472.968 521.439L470.987 521.162C470.956 521.384 470.916 521.605 470.867 521.823L472.818 522.263ZM473.063 519.769C473.056 519.491 473.038 519.212 473.008 518.934L471.019 519.148C471.044 519.372 471.058 519.596 471.064 519.819L473.063 519.769ZM473.008 518.934C472.956 518.456 472.872 517.986 472.755 517.526L470.816 518.017C470.91 518.387 470.978 518.764 471.019 519.148L473.008 518.934ZM471.674 514.886C471.433 514.474 471.164 514.08 470.867 513.705L469.299 514.947C469.538 515.248 469.754 515.565 469.948 515.895L471.674 514.886ZM470.863 514.952L471.52 514.134L469.96 512.882L469.303 513.7L470.863 514.952ZM472.834 512.498L473.49 511.68L471.931 510.428L471.274 511.246L472.834 512.498ZM473.491 511.679C474.402 510.543 475.191 509.328 475.853 508.054L474.079 507.132C473.477 508.29 472.759 509.395 471.93 510.429L473.491 511.679ZM478.261 499.786C478.386 498.356 478.373 496.907 478.215 495.46L476.227 495.677C476.37 496.994 476.383 498.311 476.269 499.612L478.261 499.786ZM478.215 495.46C478.066 494.1 477.793 492.767 477.404 491.475L475.489 492.053C475.843 493.227 476.092 494.44 476.227 495.677L478.215 495.46ZM473.684 484.282C472.855 483.216 471.925 482.223 470.902 481.317L469.576 482.814C470.506 483.638 471.352 484.541 472.106 485.51L473.684 484.282ZM471.019 482.691L473.313 479.835L471.754 478.582L469.459 481.439L471.019 482.691ZM477.902 474.121L480.196 471.264L478.637 470.012L476.342 472.869L477.902 474.121ZM480.197 471.263C480.616 470.739 480.979 470.179 481.284 469.592L479.508 468.671C479.264 469.143 478.972 469.593 478.635 470.014L480.197 471.263ZM482.389 465.783C482.446 465.124 482.439 464.457 482.366 463.79L480.378 464.009C480.437 464.545 480.443 465.081 480.397 465.61L482.389 465.783ZM482.366 463.79C482.292 463.123 482.154 462.47 481.955 461.84L480.048 462.442C480.208 462.948 480.319 463.473 480.378 464.009L482.366 463.79ZM480.046 458.362C479.621 457.856 479.145 457.388 478.622 456.968L477.37 458.528C477.79 458.865 478.173 459.241 478.514 459.648L480.046 458.362ZM478.622 456.968C478.512 456.88 478.4 456.793 478.286 456.71L477.1 458.32C477.191 458.387 477.281 458.456 477.37 458.528L478.622 456.968ZM477.584 456.236C477.463 456.162 477.341 456.09 477.218 456.021L476.242 457.767C476.341 457.822 476.439 457.88 476.535 457.939L477.584 456.236ZM477.508 456.266C477.426 456.164 477.341 456.064 477.253 455.967L475.767 457.305C475.83 457.376 475.892 457.448 475.952 457.522L477.508 456.266ZM476.697 455.412C476.599 455.325 476.499 455.24 476.397 455.158L475.145 456.717C475.219 456.777 475.292 456.838 475.362 456.902L476.697 455.412ZM476.397 455.158C476.21 455.008 476.016 454.867 475.816 454.736L474.723 456.411C474.868 456.506 475.009 456.608 475.145 456.717L476.397 455.158ZM474.545 454.074C474.324 453.985 474.097 453.907 473.867 453.84L473.307 455.759C473.474 455.808 473.639 455.865 473.8 455.93L474.545 454.074ZM473.867 453.84C473.637 453.772 473.404 453.717 473.17 453.673L472.8 455.638C472.971 455.67 473.14 455.711 473.307 455.759L473.867 453.84ZM471.742 453.547C471.503 453.55 471.264 453.564 471.026 453.59L471.243 455.578C471.416 455.559 471.59 455.549 471.763 455.547L471.742 453.547ZM471.026 453.59C470.787 453.616 470.551 453.654 470.317 453.703L470.728 455.66C470.898 455.625 471.07 455.597 471.243 455.578L471.026 453.59ZM468.95 454.133C468.731 454.227 468.515 454.332 468.305 454.447L469.266 456.201C469.419 456.117 469.576 456.041 469.735 455.973L468.95 454.133ZM468.305 454.447C468.095 454.562 467.891 454.687 467.694 454.822L468.822 456.473C468.965 456.375 469.114 456.284 469.266 456.201L468.305 454.447ZM466.595 455.743C466.428 455.914 466.269 456.093 466.119 456.28L467.679 457.532C467.788 457.396 467.903 457.266 468.024 457.142L466.595 455.743Z" fill="black" mask="url(#path-20-inside-1_1415_1268)"/>
<path d="M728.536 549.805H1.0528C0.773578 549.805 0.505794 549.694 0.308356 549.496C0.110919 549.299 0 549.031 0 548.752C0 548.473 0.110919 548.205 0.308356 548.008C0.505794 547.81 0.773578 547.699 1.0528 547.699H728.536C728.815 547.699 729.083 547.81 729.28 548.008C729.477 548.205 729.588 548.473 729.588 548.752C729.588 549.031 729.477 549.299 729.28 549.496C729.083 549.694 728.815 549.805 728.536 549.805Z" fill="#CCCCCC"/>
<path d="M267 318C264.6 316 267 314.167 268.5 313.5C270.167 313.667 273.3 314.4 272.5 316C271.5 318 274 318 274.5 321C275 324 270 320.5 267 318Z" fill="#FDB2DB"/>
<path d="M143.889 159.627C147.871 155.647 147.871 149.192 143.888 145.211C139.905 141.23 133.448 141.229 129.467 145.21C125.485 149.19 125.485 155.645 129.468 159.626C133.451 163.607 139.907 163.608 143.889 159.627Z" fill="#00BFA6"/>
<path d="M60.6571 77.9682C49.4685 89.312 49.4011 107.691 60.5106 119.116C60.6132 119.222 61.3441 119.954 62.301 120.91C63.7041 122.313 65.6069 123.101 67.5908 123.101C69.5748 123.101 71.4774 122.314 72.8803 120.912C73.5755 120.216 74.1268 119.391 74.5027 118.482C74.8787 117.574 75.0718 116.601 75.0712 115.617C75.0705 114.634 74.8761 113.661 74.499 112.753C74.122 111.845 73.5696 111.02 72.8735 110.325C72.222 109.675 71.7712 109.225 71.7435 109.197C70.0015 107.457 68.7426 105.293 68.0908 102.918C67.439 100.544 67.4167 98.041 68.0261 95.6556C68.6354 93.2703 69.8555 91.0847 71.5663 89.3139C73.277 87.5431 75.4195 86.2481 77.783 85.5563C80.1465 84.8644 82.6496 84.7995 85.046 85.3681C87.4425 85.9366 89.6497 87.1189 91.4507 88.7987C93.2516 90.4785 94.5842 92.5979 95.3173 94.9484C96.0504 97.299 96.1589 99.7997 95.632 102.205L95.636 102.205C95.636 102.205 92.9554 114.576 97.3099 123.517L97.3123 123.516C98.271 125.281 99.4799 126.898 100.902 128.317C101.486 128.901 106.63 133.975 110.844 138.055C112.298 139.462 114.247 140.242 116.271 140.225C118.295 140.209 120.231 139.398 121.662 137.967C122.381 137.248 122.95 136.394 123.338 135.455C123.726 134.515 123.924 133.508 123.92 132.491C123.917 131.475 123.713 130.469 123.319 129.531C122.925 128.594 122.35 127.743 121.627 127.029C117.805 123.255 113.37 118.846 113.049 118.525C108.966 114.444 108.836 106.44 109.418 100.554C110.088 93.7768 108.605 86.9355 104.986 81.1647C104.257 79.96 103.398 78.839 102.425 77.8217C99.6792 75.077 96.4175 72.9025 92.8278 71.4234C89.238 69.9443 85.3911 69.1898 81.5086 69.2034C77.6262 69.217 73.785 69.9985 70.2063 71.5028C66.6276 73.007 63.3822 75.2044 60.6571 77.9682Z" fill="#00BFA6"/>
<path d="M120.653 133.973C119.222 135.404 117.286 136.215 115.262 136.231C113.238 136.248 111.289 135.468 109.835 134.061C105.621 129.981 100.477 124.907 99.8925 124.323C98.4709 122.904 97.2619 121.287 96.3033 119.521L96.3009 119.523C95.8555 118.601 95.4778 117.648 95.1709 116.672C95.5133 119.07 96.2113 121.404 97.2418 123.597L97.2442 123.596C98.2029 125.361 99.4118 126.978 100.833 128.398C101.417 128.981 106.562 134.055 110.776 138.135C112.23 139.542 114.179 140.322 116.203 140.305C118.227 140.289 120.163 139.478 121.594 138.047C122.773 136.868 123.538 135.337 123.774 133.686C124.01 132.035 123.704 130.351 122.902 128.888C122.814 130.805 122.012 132.618 120.653 133.973Z" fill="#3F3D56"/>
<path d="M140.542 159.457C139.072 160.035 137.487 160.263 135.913 160.124C134.339 159.984 132.819 159.481 131.473 158.654C130.126 157.827 128.991 156.699 128.155 155.358C127.32 154.017 126.808 152.501 126.659 150.928C126.436 152.356 126.52 153.816 126.905 155.209C127.289 156.603 127.966 157.899 128.89 159.011C129.814 160.123 130.963 161.026 132.263 161.66C133.563 162.294 134.982 162.645 136.428 162.689C137.873 162.732 139.311 162.468 140.646 161.914C141.982 161.36 143.184 160.528 144.173 159.473C145.162 158.419 145.915 157.167 146.383 155.799C146.851 154.431 147.022 152.98 146.885 151.541C146.612 153.299 145.883 154.955 144.77 156.344C143.657 157.733 142.199 158.806 140.542 159.457Z" fill="#3F3D56"/>
<path d="M231.225 114.972C233.491 116.281 236.388 115.504 237.696 113.237C239.004 110.971 238.228 108.072 235.962 106.764C233.696 105.455 230.799 106.232 229.491 108.498C228.183 110.765 228.959 113.663 231.225 114.972Z" fill="#00BFA6"/>
<path d="M257.869 67.789C251.432 64.1311 243.174 66.3113 239.381 72.6724C239.346 72.7311 239.106 73.1472 238.791 73.6918C238.331 74.4903 238.206 75.4392 238.444 76.3298C238.683 77.2204 239.265 77.9797 240.063 78.4408C240.459 78.6693 240.896 78.8175 241.349 78.8769C241.802 78.9364 242.262 78.906 242.703 78.7875C243.144 78.669 243.558 78.4646 243.92 78.1861C244.282 77.9077 244.586 77.5605 244.814 77.1645C245.028 76.7939 245.176 76.5374 245.185 76.5216C245.756 75.5303 246.576 74.7049 247.564 74.1268C248.551 73.5486 249.672 73.2375 250.816 73.2242C251.96 73.2108 253.088 73.4956 254.089 74.0505C255.089 74.6055 255.928 75.4114 256.523 76.3891C257.118 77.3669 257.448 78.4826 257.481 79.6267C257.514 80.7708 257.249 81.9038 256.712 82.9142C256.174 83.9247 255.383 84.7778 254.416 85.3896C253.449 86.0014 252.34 86.3508 251.197 86.4036L251.197 86.4055C251.197 86.4055 245.322 86.6901 241.832 89.7202L241.833 89.7211C241.156 90.3637 240.575 91.1009 240.109 91.9098C239.917 92.2421 238.258 95.1616 236.934 97.5439C236.477 98.3659 236.362 99.3347 236.612 100.241C236.863 101.148 237.46 101.919 238.275 102.389C238.684 102.626 239.135 102.779 239.604 102.839C240.072 102.9 240.548 102.868 241.004 102.744C241.46 102.621 241.887 102.408 242.261 102.119C242.634 101.829 242.947 101.469 243.18 101.058C244.415 98.8886 245.86 96.3674 245.966 96.1847C247.307 93.861 250.884 92.84 253.596 92.3932C256.719 91.8788 259.611 90.3905 261.766 88.0716C262.219 87.5997 262.619 87.0793 262.959 86.52C263.861 84.9575 264.444 83.2318 264.677 81.4426C264.909 79.6533 264.785 77.8357 264.312 76.0946C263.839 74.3535 263.026 72.7232 261.92 71.2978C260.814 69.8723 259.438 68.6798 257.869 67.789Z" fill="#00BFA6"/>
<path d="M239.946 101.456C239.132 100.986 238.535 100.214 238.284 99.3079C238.033 98.4014 238.149 97.4326 238.605 96.6106C239.93 94.2283 241.589 91.3088 241.781 90.9765C242.247 90.1676 242.827 89.4304 243.504 88.7878L243.503 88.7869C243.864 88.4761 244.246 88.1919 244.647 87.9367C243.612 88.3789 242.648 88.9729 241.788 89.6993L241.789 89.7002C241.112 90.3428 240.531 91.08 240.065 91.8889C239.873 92.2212 238.214 95.1407 236.89 97.523C236.433 98.345 236.318 99.3138 236.568 100.22C236.819 101.127 237.416 101.898 238.23 102.368C238.902 102.756 239.681 102.915 240.45 102.823C241.22 102.73 241.939 102.39 242.499 101.854C241.628 102.045 240.717 101.903 239.946 101.456Z" fill="#3F3D56"/>
<path d="M230.899 113.449C230.463 112.858 230.17 112.175 230.043 111.451C229.916 110.728 229.959 109.985 230.168 109.281C230.378 108.578 230.748 107.932 231.249 107.396C231.75 106.86 232.369 106.447 233.057 106.191C232.39 106.263 231.745 106.476 231.165 106.817C230.586 107.157 230.086 107.616 229.698 108.165C229.31 108.713 229.042 109.338 228.914 109.998C228.786 110.657 228.799 111.337 228.953 111.991C229.108 112.645 229.399 113.259 229.808 113.791C230.218 114.324 230.736 114.764 231.328 115.081C231.92 115.398 232.573 115.585 233.243 115.631C233.914 115.676 234.586 115.579 235.215 115.344C234.393 115.433 233.562 115.305 232.805 114.972C232.047 114.64 231.39 114.115 230.899 113.449Z" fill="#3F3D56"/>
</g>
<defs>
<clipPath id="clip0_1415_1268">
<rect width="781.013" height="550" fill="white"/>
</clipPath>
</defs>
</svg>
