<svg width="577" height="550" viewBox="0 0 577 550" fill="none" xmlns="http://www.w3.org/2000/svg">
<g clip-path="url(#clip0_1415_422)">
<path d="M314.292 521.878C459.382 521.878 577 508.731 577 492.513C577 476.296 459.382 463.149 314.292 463.149C169.202 463.149 51.5837 476.296 51.5837 492.513C51.5837 508.731 169.202 521.878 314.292 521.878Z" fill="#22937E" fill-opacity="0.2"/>
<path d="M444.58 460.021L449.111 473.986C449.111 473.986 470.931 496.539 463.039 502.652C455.147 508.765 437.441 476.54 437.441 476.54L434.177 460.774L444.58 460.021Z" fill="#A0616A"/>
<path d="M402.717 351.93L409.322 349.727C409.322 349.727 419.595 352.664 421.063 362.941C422.53 373.219 433.538 425.342 433.538 425.342C433.538 425.342 437.941 427.544 435.005 431.215C432.07 434.885 449.682 467.921 449.682 467.921L435.739 474.528C435.739 474.528 407.854 445.163 407.854 442.226C407.854 439.29 408.588 436.353 408.588 433.417C408.588 430.48 407.854 430.48 408.588 428.278C409.078 426.359 409.324 424.386 409.322 422.405L404.185 410.659L402.717 351.93Z" fill="#B18DFE"/>
<path d="M66.3505 402.288C102.995 402.288 132.701 341.65 132.701 266.851C132.701 192.051 102.995 131.414 66.3505 131.414C29.7061 131.414 0 192.051 0 266.851C0 341.65 29.7061 402.288 66.3505 402.288Z" fill="#22937E"/>
<path d="M65.7413 268.255C69.0511 209.301 75.7196 169.479 75.7866 169.083L74.3398 168.838C74.2728 169.234 67.5924 209.12 64.2773 268.15C61.218 322.632 60.4799 405.039 74.3394 488.229L75.787 487.988C61.9511 404.94 62.6875 322.657 65.7413 268.255Z" fill="#3F3D56"/>
<path d="M125.653 239.384L65.6613 271.506L66.3539 272.801L126.345 240.679L125.653 239.384Z" fill="#3F3D56"/>
<path d="M3.02252 255.484L2.33026 256.779L62.3302 288.885L63.0224 287.59L3.02252 255.484Z" fill="#3F3D56"/>
<path d="M223.496 370.669C273.641 370.669 314.292 287.692 314.292 185.335C314.292 82.9771 273.641 0 223.496 0C173.352 0 132.701 82.9771 132.701 185.335C132.701 287.692 173.352 370.669 223.496 370.669Z" fill="#1BA8C4"/>
<path d="M222.394 187.233C226.923 106.545 236.051 52.0435 236.142 51.5023L234.696 51.2571C234.604 51.7987 225.465 106.364 220.93 187.128C216.743 261.669 215.734 374.415 234.695 488.229L236.143 487.988C217.205 374.314 218.213 261.694 222.394 187.233Z" fill="#3F3D56"/>
<path d="M304.774 147.987L222.681 191.944L223.373 193.239L305.467 149.282L304.774 147.987Z" fill="#3F3D56"/>
<path d="M136.71 170.018L136.017 171.313L218.123 215.248L218.815 213.953L136.71 170.018Z" fill="#3F3D56"/>
<path d="M147.859 442.889C166.594 442.889 181.782 411.887 181.782 373.643C181.782 335.4 166.594 304.397 147.859 304.397C129.123 304.397 113.935 335.4 113.935 373.643C113.935 411.887 129.123 442.889 147.859 442.889Z" fill="#1DCFBD"/>
<path d="M147.829 376.627L148.03 377.002L178.702 360.578L178.01 359.284L147.893 375.41C149.559 344.723 152.968 324.123 153.037 323.717L151.59 323.472C151.515 323.915 147.465 348.378 146.027 383.776L115.652 367.511L114.96 368.806L145.632 385.229L145.998 384.545C144.848 413.761 145.493 450.292 151.59 486.888L153.037 486.648C146.39 446.746 146.243 406.92 147.829 376.627Z" fill="#3F3D56"/>
<path d="M411.697 282.243C399.901 262.131 376.565 261.194 376.565 261.194C376.565 261.194 353.824 258.259 339.237 288.89C325.64 317.439 306.874 345.005 336.216 351.688L341.515 335.043L344.798 352.927C348.975 353.23 353.166 353.303 357.352 353.144C388.774 352.12 418.699 353.443 417.735 342.065C416.454 326.94 423.046 301.594 411.697 282.243Z" fill="#2F2E41"/>
<path d="M329.478 443.334C329.149 445.436 328.671 447.513 328.048 449.547C327.346 451.538 326.263 453.379 325.621 455.391C323.576 461.802 326.411 468.951 330.939 473.9C334.854 478.168 339.924 481.206 345.533 482.645C349.618 483.681 353.865 483.83 358.074 483.975C369.731 484.373 381.687 484.73 392.732 480.95C396.224 479.726 399.595 478.18 402.802 476.334C403.816 475.846 404.709 475.137 405.414 474.259C406.257 473.048 406.365 471.479 406.357 470C406.332 465.014 405.331 460.053 405.568 455.072C405.7 452.313 406.212 449.557 405.96 446.807C405.621 443.694 404.33 440.762 402.263 438.411C400.196 436.06 397.454 434.405 394.411 433.672C391.278 432.993 388.028 433.363 384.838 433.672C376.558 434.475 368.242 434.851 359.924 434.797C351.425 434.742 342.978 433.433 334.521 433.296C332.02 433.256 332.071 434.034 331.274 436.476C330.541 438.724 329.941 441.015 329.478 443.334Z" fill="#2F2E41"/>
<path d="M296.243 439.282C293.958 438.702 291.603 438.449 289.248 438.531C286.771 438.687 284.356 439.364 282.158 440.517C279.961 441.669 278.031 443.273 276.495 445.222C274.973 447.2 273.88 449.473 273.285 451.897C272.69 454.321 272.606 456.842 273.038 459.3C273.608 461.963 274.541 464.535 275.81 466.944C277.665 470.743 279.89 474.533 283.325 476.968C285.392 478.305 287.621 479.376 289.957 480.153L308.046 487.029C310.707 488.041 313.368 489.053 316.056 489.991C329.55 494.698 343.628 497.522 357.893 498.383C362.236 498.644 366.646 498.717 370.883 497.719C371.919 497.582 372.867 497.065 373.543 496.269C373.888 495.662 374.091 494.984 374.138 494.288L375.251 486.425C375.5 485.33 375.467 484.189 375.156 483.11C374.646 481.788 373.368 480.957 372.149 480.251C360.257 473.359 346.372 469.556 336.362 460.097C334.005 457.87 332.033 454.34 329.17 452.828C325.924 451.112 322.1 450.133 318.744 448.552C311.408 445.097 304.194 441.126 296.243 439.282Z" fill="#2F2E41"/>
<path opacity="0.1" d="M314.302 449.882C320.696 451.903 347.69 465.909 352.317 470.799C351.697 471.025 330.654 459.125 330.023 458.934C324.283 457.196 318.512 455.446 313.062 452.903C311.965 452.391 305.938 449.986 306.211 448.59C306.519 447.015 313.167 449.523 314.302 449.882Z" fill="black"/>
<path d="M394.067 502.461C394.431 502.488 394.791 502.381 395.081 502.16C395.209 501.994 395.302 501.805 395.357 501.603C395.411 501.401 395.425 501.191 395.398 500.983L395.368 490.271C392.315 488.803 388.9 488.333 385.549 487.881L369.91 485.771C370.269 485.82 367.465 492.568 367.895 493.469C368.653 495.057 374.445 496.464 376.08 497.214C381.762 499.82 387.667 502.686 394.067 502.461Z" fill="#A0616A"/>
<path d="M345.001 490.234C342.049 490.708 338.753 491.128 336.841 493.447C334.416 496.388 335.448 500.773 336.605 504.417C336.776 505.153 337.121 505.837 337.611 506.413C338.4 507.199 339.61 507.314 340.717 507.384C343.41 507.556 346.275 507.691 348.628 506.358C349.694 505.647 350.72 504.878 351.701 504.053C353.434 502.889 355.342 502.009 357.352 501.447C361.042 500.275 364.843 499.485 368.694 499.088C370.212 499.018 371.714 498.751 373.162 498.293C373.888 498.056 374.55 497.654 375.095 497.12C375.641 496.585 376.056 495.932 376.309 495.211C376.854 493.264 375.733 491.279 374.657 489.572C373.318 487.445 371.899 485.206 369.901 483.64C366.987 481.356 365.546 483.11 362.61 484.571C357.06 487.336 351.123 489.245 345.001 490.234Z" fill="#A0616A"/>
<path d="M337.285 492.918L318.536 487.326C316.289 486.536 313.939 486.076 311.559 485.962C309.182 485.963 306.694 486.75 305.152 488.576C303.698 490.298 303.282 492.651 302.92 494.884L302.144 499.659C301.627 502.066 301.481 504.539 301.71 506.991C302.065 509.424 303.296 511.855 305.435 513.032C308.029 514.461 311.209 513.763 314.105 513.166C319.952 511.959 325.902 511.316 331.872 511.243C334.116 511.216 336.47 511.244 338.453 510.184C340.81 508.923 342.22 506.258 342.462 503.577C342.831 499.498 341.484 494.17 337.285 492.918Z" fill="#2F2E41"/>
<path d="M401.437 488.045C403.868 487.615 406.013 486.221 408.342 485.399C411.62 484.24 415.172 484.24 418.645 484.253C419.92 484.258 421.278 484.287 422.339 485C423.869 486.028 424.261 488.084 424.522 489.92L426.091 500.997C426.386 503.08 426.68 505.219 426.219 507.272C425.759 509.325 424.372 511.304 422.354 511.833C419.902 512.476 417.499 510.896 415.184 509.858C409.398 507.263 402.673 507.926 396.64 505.987C395.52 505.627 394.321 505.077 393.865 503.985C393.658 503.369 393.585 502.716 393.649 502.07C393.752 498.51 393.008 493.648 394.07 490.246C395.025 487.185 398.724 488.045 401.437 488.045Z" fill="#2F2E41"/>
<path d="M441.113 434.823C444.858 433.875 448.743 433.607 452.582 434.032C455.649 434.373 458.808 435.234 461.046 437.375C463.771 439.982 464.646 444.013 464.719 447.801C464.843 455.335 462.365 462.682 457.704 468.602C456.569 470.093 455.217 471.407 453.693 472.498C452.052 473.534 450.302 474.385 448.474 475.036L407.965 491.158C397.308 495.4 386.613 499.654 375.497 502.45C375.193 502.598 374.862 502.683 374.524 502.7C374.186 502.717 373.848 502.666 373.53 502.55C373.213 502.433 372.922 502.254 372.675 502.023C372.427 501.792 372.229 501.514 372.092 501.204C368.54 496.084 365.563 490.588 363.214 484.816C363.107 484.632 363.042 484.427 363.023 484.215C363.003 484.003 363.029 483.79 363.099 483.589C363.247 483.366 363.454 483.188 363.697 483.075L392.35 466.463C394.453 465.356 396.411 463.994 398.182 462.408C399.421 461.195 400.435 459.771 401.176 458.202C401.77 456.95 401.825 453.996 402.584 453.071C403.327 452.165 405.867 452.093 407.041 451.737C408.696 451.225 410.317 450.607 411.893 449.886C418.303 446.992 424.01 442.788 430.154 439.401C433.597 437.414 437.28 435.875 441.113 434.823Z" fill="#2F2E41"/>
<path opacity="0.1" d="M424.87 447.229C419.947 450.96 413.573 454.389 408.694 458.218C407.029 459.525 379.272 475.272 378.879 477.363C383.431 478.137 412.426 457.669 416.574 455.627C420.723 453.585 424.4 450.705 428.044 447.846C428.973 447.117 432.908 444.927 430.242 444.113C428.741 443.654 425.979 446.483 424.87 447.229Z" fill="black"/>
<path d="M375.566 332.842C390.967 332.842 403.451 320.353 403.451 304.946C403.451 289.539 390.967 277.049 375.566 277.049C360.165 277.049 347.681 289.539 347.681 304.946C347.681 320.353 360.165 332.842 375.566 332.842Z" fill="#A0616A"/>
<path d="M387.307 328.438C387.307 328.438 382.904 339.449 390.976 343.854C399.048 348.259 366.026 383.497 366.026 383.497L351.35 340.918C351.35 340.918 363.825 336.513 361.623 324.767L387.307 328.438Z" fill="#A0616A"/>
<path d="M368.962 358.537L386.733 338.909L410.789 351.195L407.12 437.822L401.25 444.429C401.25 444.429 376.3 466.452 338.141 448.099C338.141 448.099 324.932 437.087 325.666 420.203C326.4 403.318 324.198 401.116 324.198 401.116L323.465 341.652L359.694 334.54L368.962 358.537Z" fill="#B998FF"/>
<path d="M287.473 451.946L282.942 465.911C282.942 465.911 261.121 488.463 269.013 494.576C276.905 500.689 294.612 468.465 294.612 468.465L297.875 452.699L287.473 451.946Z" fill="#A0616A"/>
<path d="M329.335 343.854L322.731 341.652C322.731 341.652 312.457 344.588 310.99 354.866C309.522 365.144 298.515 417.266 298.515 417.266C298.515 417.266 294.112 419.468 297.047 423.139C299.982 426.81 282.371 459.845 282.371 459.845L296.313 466.452C296.313 466.452 324.198 437.087 324.198 434.151C324.198 431.214 323.465 428.278 323.465 425.341C323.465 422.405 324.198 422.405 323.465 420.203C322.975 418.284 322.728 416.31 322.731 414.33L327.868 402.584L329.335 343.854Z" fill="#B18DFE"/>
<path d="M406.482 280.304L383.426 268.118L351.588 273.103L345 302.461L361.398 301.825L365.979 291.039V301.646L373.545 301.352L377.937 284.181L380.682 302.461L407.58 301.907L406.482 280.304Z" fill="#2F2E41"/>
<mask id="path-30-inside-1_1415_422" fill="white">
<path fill-rule="evenodd" clip-rule="evenodd" d="M239.662 427.398L251.401 413.162C251.777 412.379 252.382 411.728 253.136 411.297C253.891 410.865 254.758 410.674 255.624 410.748C256.49 410.823 257.312 411.159 257.982 411.712C258.652 412.265 259.138 413.01 259.374 413.846L265.315 434.827C274.895 440.922 281.812 450.833 283.926 462.422C286.064 463.365 287.68 467.748 287.68 473.013C287.68 478.965 285.613 483.791 283.063 483.791C282.8 483.791 282.542 483.74 282.29 483.641C279.716 491.019 275.12 497.449 269.168 502.268H285.372C286.392 502.268 287.371 502.674 288.093 503.395C288.814 504.117 289.22 505.096 289.22 506.117C289.22 507.138 288.814 508.117 288.093 508.839C287.572 509.361 286.916 509.717 286.208 509.875C286.082 510.053 285.941 510.222 285.784 510.379C285.062 511.101 284.084 511.506 283.063 511.506H243.103L243.046 511.506L242.989 511.506H222.268V511.505H113.76C113.761 500.275 118.221 489.505 126.158 481.564C134.096 473.623 144.862 469.162 156.087 469.161C168.21 465.381 182.226 464.177 197.431 464.573C198.881 464.61 200.341 464.662 201.812 464.727C203.159 453.94 208.638 444.437 216.613 437.853L221.498 418.122C221.498 417.253 221.763 416.404 222.257 415.689C222.751 414.974 223.45 414.426 224.263 414.119C225.076 413.812 225.963 413.759 226.806 413.968C227.649 414.178 228.409 414.639 228.983 415.29L239.662 427.398ZM113.76 511.506H126.073V537.682C126.073 539.3 125.754 540.902 125.136 542.396C124.517 543.89 123.61 545.248 122.466 546.392C121.323 547.536 119.966 548.443 118.472 549.062C116.978 549.681 115.377 550 113.76 550V511.506Z"/>
</mask>
<path d="M251.401 413.162L252.335 413.932L252.429 413.818L252.492 413.685L251.401 413.162ZM239.662 427.398L238.755 428.198L239.693 429.262L240.596 428.168L239.662 427.398ZM253.136 411.297L252.536 410.246L252.536 410.246L253.136 411.297ZM257.982 411.712L257.212 412.645V412.645L257.982 411.712ZM259.374 413.846L258.21 414.175V414.175L259.374 413.846ZM265.315 434.827L264.151 435.156L264.276 435.6L264.665 435.848L265.315 434.827ZM283.926 462.422L282.736 462.639L282.851 463.27L283.438 463.529L283.926 462.422ZM282.29 483.641L282.733 482.515L281.563 482.055L281.148 483.242L282.29 483.641ZM269.168 502.268L268.407 501.328L265.751 503.478H269.168V502.268ZM288.093 508.839L287.237 507.984L287.237 507.984L288.093 508.839ZM286.208 509.875L285.945 508.694L285.489 508.796L285.219 509.178L286.208 509.875ZM285.784 510.379L286.639 511.234L286.639 511.234L285.784 510.379ZM243.103 511.506V510.297H243.102L243.103 511.506ZM243.046 511.506L243.045 512.716H243.047L243.046 511.506ZM242.989 511.506L242.99 510.297H242.989V511.506ZM222.268 511.506H221.058V512.716H222.268V511.506ZM222.268 511.505H223.478V510.296H222.268V511.505ZM113.76 511.505L112.551 511.505L112.551 512.715H113.76V511.505ZM126.158 481.564L125.303 480.709L126.158 481.564ZM156.087 469.161L156.087 470.371L156.272 470.371L156.447 470.316L156.087 469.161ZM197.431 464.573L197.399 465.782L197.4 465.782L197.431 464.573ZM201.812 464.727L201.759 465.936L202.874 465.986L203.013 464.877L201.812 464.727ZM216.613 437.853L217.383 438.786L217.691 438.531L217.787 438.144L216.613 437.853ZM221.498 418.122L222.673 418.412L222.708 418.269V418.122L221.498 418.122ZM222.257 415.689L223.252 416.377L222.257 415.689ZM224.263 414.119L224.691 415.25L224.263 414.119ZM226.806 413.968L226.514 415.142V415.142L226.806 413.968ZM228.983 415.29L229.891 414.49L229.891 414.49L228.983 415.29ZM126.073 511.506H127.283V510.297H126.073V511.506ZM113.76 511.506V510.297H112.55V511.506H113.76ZM125.136 542.396L126.253 542.859L125.136 542.396ZM122.466 546.392L123.322 547.247H123.322L122.466 546.392ZM118.472 549.062L118.009 547.945L118.472 549.062ZM113.76 550H112.55V551.21H113.76V550ZM250.468 412.393L247.533 415.952L249.4 417.491L252.335 413.932L250.468 412.393ZM241.664 423.07L238.729 426.629L240.596 428.168L243.53 424.609L241.664 423.07ZM240.569 426.598L237.9 423.571L236.085 425.171L238.755 428.198L240.569 426.598ZM232.56 417.517L229.891 414.49L228.076 416.091L230.746 419.118L232.56 417.517ZM229.891 414.49C229.707 414.282 229.508 414.089 229.297 413.912L227.744 415.767C227.862 415.866 227.973 415.974 228.076 416.091L229.891 414.49ZM227.884 413.054C227.63 412.948 227.367 412.861 227.097 412.794L226.514 415.142C226.665 415.18 226.812 415.228 226.954 415.288L227.884 413.054ZM227.097 412.794C226.827 412.727 226.554 412.681 226.28 412.656L226.058 415.065C226.211 415.079 226.364 415.105 226.514 415.142L227.097 412.794ZM224.63 412.754C224.361 412.811 224.095 412.889 223.835 412.988L224.691 415.25C224.836 415.196 224.985 415.152 225.135 415.12L224.63 412.754ZM223.835 412.988C223.575 413.086 223.324 413.203 223.084 413.339L224.271 415.447C224.405 415.371 224.546 415.305 224.691 415.25L223.835 412.988ZM221.783 414.357C221.594 414.558 221.419 414.773 221.261 415.002L223.252 416.377C223.34 416.249 223.438 416.128 223.543 416.016L221.783 414.357ZM221.261 415.002C221.103 415.23 220.964 415.47 220.843 415.717L223.018 416.777C223.086 416.638 223.164 416.504 223.252 416.377L221.261 415.002ZM220.351 417.295C220.31 417.568 220.289 417.844 220.289 418.122L222.708 418.122C222.708 417.966 222.72 417.812 222.743 417.659L220.351 417.295ZM220.324 417.831L219.103 422.764L221.451 423.345L222.673 418.412L220.324 417.831ZM216.66 432.629L215.439 437.562L217.787 438.144L219.009 433.211L216.66 432.629ZM215.843 436.92C214.803 437.778 213.805 438.685 212.852 439.636L214.56 441.349C215.46 440.451 216.402 439.596 217.383 438.786L215.843 436.92ZM207.697 445.847C206.185 448.063 204.877 450.428 203.797 452.916L206.017 453.879C207.035 451.532 208.269 449.301 209.695 447.211L207.697 445.847ZM201.302 460.595C201.011 461.901 200.78 463.23 200.612 464.577L203.013 464.877C203.172 463.606 203.389 462.353 203.664 461.121L201.302 460.595ZM201.866 463.519C201.499 463.503 201.132 463.487 200.766 463.472L200.669 465.89C201.032 465.904 201.395 465.92 201.759 465.936L201.866 463.519ZM198.563 463.395C198.195 463.383 197.828 463.373 197.462 463.364L197.4 465.782C197.762 465.792 198.126 465.802 198.49 465.813L198.563 463.395ZM197.462 463.364C196.288 463.333 195.121 463.312 193.96 463.301L193.937 465.72C195.084 465.731 196.238 465.752 197.399 465.782L197.462 463.364ZM186.952 463.36C184.581 463.426 182.244 463.539 179.944 463.705L180.118 466.118C182.38 465.955 184.681 465.843 187.019 465.779L186.952 463.36ZM172.952 464.387C170.588 464.682 168.268 465.042 165.997 465.471L166.446 467.848C168.664 467.429 170.934 467.077 173.252 466.788L172.952 464.387ZM159.12 467.027C157.974 467.332 156.843 467.658 155.727 468.006L156.447 470.316C157.53 469.978 158.629 469.661 159.743 469.364L159.12 467.027ZM156.087 467.952C154.656 467.952 153.232 468.022 151.82 468.161L152.057 470.569C153.391 470.438 154.735 470.371 156.087 470.371L156.087 467.952ZM143.449 469.828C140.72 470.656 138.079 471.751 135.564 473.095L136.705 475.229C139.08 473.959 141.574 472.925 144.151 472.143L143.449 469.828ZM128.468 477.839C127.371 478.739 126.315 479.697 125.303 480.709L127.014 482.419C127.97 481.463 128.968 480.559 130.003 479.709L128.468 477.839ZM125.303 480.709C124.291 481.722 123.334 482.779 122.433 483.876L124.304 485.411C125.154 484.374 126.058 483.376 127.014 482.419L125.303 480.709ZM117.692 490.976C116.347 493.491 115.253 496.134 114.426 498.863L116.741 499.566C117.523 496.987 118.556 494.492 119.825 492.116L117.692 490.976ZM112.76 507.237C112.621 508.649 112.551 510.074 112.551 511.505L114.97 511.505C114.97 510.153 115.037 508.808 115.168 507.474L112.76 507.237ZM113.76 512.715H117.636V510.296H113.76V512.715ZM125.386 512.715H133.137V510.296H125.386V512.715ZM140.887 512.715H148.638V510.296H140.887V512.715ZM156.388 512.715H164.139V510.296H156.388V512.715ZM171.889 512.715H179.64V510.296H171.889V512.715ZM187.39 512.715H195.141V510.296H187.39V512.715ZM202.892 512.715H210.642V510.296H202.892V512.715ZM218.393 512.715H222.268V510.296H218.393V512.715ZM221.058 511.505V511.506H223.478V511.505H221.058ZM221.058 511.506V511.506H223.478V511.506H221.058ZM222.268 512.716H227.448V510.297H222.268V512.716ZM237.809 512.716H242.989V510.297H237.809V512.716ZM242.988 512.716L243.002 512.716L243.004 510.297L242.99 510.297L242.988 512.716ZM243.031 512.716L243.045 512.716L243.047 510.297L243.033 510.297L243.031 512.716ZM243.047 512.716L243.061 512.716L243.059 510.297L243.045 510.297L243.047 512.716ZM243.089 512.716L243.104 512.716L243.102 510.297L243.088 510.297L243.089 512.716ZM243.103 512.716H248.098V510.297H243.103V512.716ZM258.088 512.716H268.078V510.297H258.088V512.716ZM278.068 512.716H283.063V510.297H278.068V512.716ZM283.063 512.716C283.397 512.716 283.727 512.683 284.05 512.619L283.578 510.246C283.41 510.28 283.237 510.297 283.063 510.297V512.716ZM285.873 511.863C286.147 511.681 286.404 511.47 286.639 511.234L284.928 509.524C284.805 509.647 284.671 509.757 284.529 509.852L285.873 511.863ZM286.639 511.234C286.691 511.183 286.741 511.131 286.789 511.078L285.007 509.442C284.981 509.47 284.955 509.497 284.928 509.524L286.639 511.234ZM287.069 510.746C287.113 510.689 287.156 510.63 287.197 510.571L285.219 509.178C285.198 509.209 285.175 509.239 285.152 509.269L287.069 510.746ZM286.471 511.055C286.705 511.003 286.934 510.935 287.157 510.851L286.303 508.587C286.186 508.631 286.067 508.667 285.945 508.694L286.471 511.055ZM288.408 510.163C288.598 510.021 288.778 509.864 288.948 509.694L287.237 507.984C287.148 508.073 287.054 508.154 286.955 508.229L288.408 510.163ZM288.948 509.694C289.184 509.458 289.394 509.201 289.577 508.928L287.565 507.584C287.47 507.727 287.36 507.861 287.237 507.984L288.948 509.694ZM290.332 507.104C290.396 506.781 290.429 506.451 290.429 506.117H288.01C288.01 506.292 287.993 506.464 287.959 506.632L290.332 507.104ZM290.429 506.117C290.429 505.784 290.396 505.453 290.332 505.131L287.959 505.602C287.993 505.771 288.01 505.943 288.01 506.117H290.429ZM289.577 503.307C289.394 503.033 289.184 502.776 288.948 502.54L287.237 504.251C287.36 504.374 287.47 504.508 287.565 504.651L289.577 503.307ZM288.948 502.54C288.712 502.304 288.455 502.094 288.182 501.911L286.837 503.922C286.98 504.018 287.114 504.127 287.237 504.251L288.948 502.54ZM286.359 501.156C286.036 501.091 285.706 501.058 285.372 501.058V503.478C285.546 503.478 285.718 503.495 285.886 503.528L286.359 501.156ZM285.372 501.058H281.321V503.478H285.372V501.058ZM273.219 501.058H269.168V503.478H273.219V501.058ZM269.929 503.208C271.468 501.962 272.919 500.611 274.271 499.167L272.505 497.513C271.229 498.877 269.859 500.152 268.407 501.328L269.929 503.208ZM281.091 489.492C281.992 487.741 282.776 485.92 283.432 484.039L281.148 483.242C280.529 485.016 279.79 486.733 278.94 488.385L281.091 489.492ZM281.848 484.767C281.942 484.803 282.037 484.837 282.135 484.865L282.82 482.545C282.792 482.537 282.763 482.527 282.733 482.515L281.848 484.767ZM282.747 484.985C282.852 484.996 282.957 485.001 283.063 485.001V482.581C283.037 482.581 283.01 482.58 282.984 482.577L282.747 484.985ZM283.063 485.001C284.575 485.001 285.75 483.977 286.562 482.758L284.549 481.416C283.924 482.354 283.387 482.581 283.063 482.581V485.001ZM288.681 476.306C288.817 475.261 288.89 474.155 288.89 473.013H286.471C286.471 474.053 286.405 475.054 286.282 475.994L288.681 476.306ZM288.89 473.013C288.89 471.955 288.828 470.928 288.71 469.952L286.308 470.24C286.414 471.119 286.471 472.049 286.471 473.013H288.89ZM286.961 463.928C286.334 462.785 285.495 461.793 284.414 461.316L283.438 463.529C283.826 463.701 284.334 464.169 284.841 465.092L286.961 463.928ZM285.116 462.205C284.85 460.75 284.511 459.32 284.102 457.92L281.78 458.597C282.165 459.918 282.485 461.267 282.736 462.639L285.116 462.205ZM280.777 449.777C279.386 447.175 277.733 444.734 275.855 442.489L273.999 444.042C275.772 446.16 277.331 448.463 278.644 450.918L280.777 449.777ZM269.552 436.357C268.403 435.448 267.205 434.596 265.964 433.806L264.665 435.848C265.836 436.592 266.966 437.396 268.051 438.255L269.552 436.357ZM266.479 434.497L264.993 429.252L262.666 429.911L264.151 435.156L266.479 434.497ZM262.023 418.762L260.538 413.516L258.21 414.175L259.696 419.421L262.023 418.762ZM260.538 413.516C260.463 413.249 260.367 412.989 260.253 412.738L258.051 413.74C258.115 413.88 258.168 414.026 258.21 414.175L260.538 413.516ZM259.35 411.354C259.166 411.148 258.967 410.956 258.752 410.779L257.212 412.645C257.332 412.744 257.443 412.851 257.546 412.966L259.35 411.354ZM258.752 410.779C258.538 410.602 258.312 410.443 258.075 410.301L256.833 412.377C256.965 412.456 257.092 412.546 257.212 412.645L258.752 410.779ZM256.545 409.676C256.278 409.611 256.004 409.567 255.727 409.543L255.521 411.954C255.675 411.967 255.828 411.992 255.978 412.028L256.545 409.676ZM255.727 409.543C255.45 409.519 255.173 409.517 254.899 409.535L255.057 411.949C255.211 411.939 255.366 411.94 255.521 411.954L255.727 409.543ZM253.285 409.891C253.028 409.99 252.777 410.108 252.536 410.246L253.737 412.347C253.872 412.27 254.012 412.203 254.155 412.148L253.285 409.891ZM252.536 410.246C252.295 410.384 252.065 410.54 251.85 410.711L253.353 412.606C253.474 412.511 253.602 412.424 253.737 412.347L252.536 410.246ZM250.724 411.921C250.569 412.149 250.431 412.389 250.311 412.64L252.492 413.685C252.56 413.545 252.637 413.411 252.724 413.283L250.724 411.921ZM126.073 510.297H122.995V512.716H126.073V510.297ZM116.838 510.297H113.76V512.716H116.838V510.297ZM112.55 511.506V516.318H114.97V511.506H112.55ZM112.55 525.942V535.565H114.97V525.942H112.55ZM112.55 545.188V550H114.97V545.188H112.55ZM113.76 551.21C114.203 551.21 114.646 551.188 115.085 551.145L114.848 548.737C114.487 548.772 114.124 548.79 113.76 548.79V551.21ZM117.685 550.627C118.108 550.499 118.525 550.35 118.935 550.18L118.009 547.945C117.672 548.084 117.33 548.207 116.983 548.312L117.685 550.627ZM118.935 550.18C119.345 550.01 119.745 549.821 120.135 549.612L118.994 547.479C118.674 547.65 118.345 547.806 118.009 547.945L118.935 550.18ZM122.339 548.139C122.68 547.859 123.008 547.561 123.322 547.247L121.611 545.537C121.353 545.795 121.084 546.039 120.804 546.269L122.339 548.139ZM123.322 547.247C123.636 546.934 123.933 546.605 124.213 546.264L122.343 544.729C122.113 545.01 121.868 545.279 121.611 545.537L123.322 547.247ZM125.686 544.059C125.894 543.669 126.084 543.269 126.253 542.859L124.018 541.933C123.879 542.27 123.723 542.599 123.552 542.919L125.686 544.059ZM126.253 542.859C126.423 542.449 126.572 542.032 126.7 541.609L124.385 540.907C124.28 541.254 124.157 541.597 124.018 541.933L126.253 542.859ZM127.217 539.008C127.261 538.568 127.283 538.126 127.283 537.682H124.863C124.863 538.046 124.845 538.41 124.81 538.771L127.217 539.008ZM127.283 537.682V534.41H124.863V537.682H127.283ZM127.283 527.866V521.322H124.863V527.866H127.283ZM127.283 514.778V511.506H124.863V514.778H127.283ZM251.401 413.162L253.268 414.702L253.456 414.474L253.583 414.208L251.401 413.162ZM239.662 427.398L237.848 428.999L239.724 431.126L241.529 428.937L239.662 427.398ZM253.136 411.297L251.936 409.196L251.936 409.196L253.136 411.297ZM257.982 411.712L256.441 413.577L256.441 413.577L257.982 411.712ZM259.374 413.846L257.047 414.505V414.505L259.374 413.846ZM265.315 434.827L262.987 435.486L263.238 436.373L264.016 436.868L265.315 434.827ZM283.926 462.422L281.546 462.857L281.776 464.118L282.949 464.636L283.926 462.422ZM282.29 483.641L283.176 481.389L280.835 480.469L280.006 482.844L282.29 483.641ZM269.168 502.268L267.646 500.388L262.334 504.687H269.168V502.268ZM288.093 508.839L286.382 507.129V507.129L288.093 508.839ZM286.208 509.875L285.682 507.513L284.769 507.717L284.23 508.481L286.208 509.875ZM285.784 510.379L287.495 512.089L287.495 512.089L285.784 510.379ZM243.103 511.506V509.087L243.101 509.087L243.103 511.506ZM243.046 511.506L243.044 513.926H243.048L243.046 511.506ZM242.989 511.506L242.991 509.087H242.989V511.506ZM222.268 511.506H219.848V513.926H222.268V511.506ZM222.268 511.505H224.687V509.086H222.268V511.505ZM113.76 511.505L111.341 511.505L111.341 513.925H113.76V511.505ZM126.158 481.564L124.447 479.854H124.447L126.158 481.564ZM156.087 469.161L156.087 471.581L156.456 471.581L156.808 471.471L156.087 469.161ZM197.431 464.573L197.368 466.992L197.369 466.992L197.431 464.573ZM201.812 464.727L201.705 467.144L203.936 467.244L204.213 465.027L201.812 464.727ZM216.613 437.853L218.153 439.719L218.77 439.21L218.962 438.434L216.613 437.853ZM221.498 418.122L223.847 418.703L223.918 418.417L223.918 418.122L221.498 418.122ZM222.257 415.689L224.247 417.064V417.064L222.257 415.689ZM224.263 414.119L225.119 416.382V416.382L224.263 414.119ZM226.806 413.968L226.223 416.316L226.223 416.316L226.806 413.968ZM228.983 415.29L230.798 413.69L230.798 413.69L228.983 415.29ZM126.073 511.506H128.492V509.087H126.073V511.506ZM113.76 511.506V509.087H111.341V511.506H113.76ZM125.136 542.396L127.371 543.322L125.136 542.396ZM122.466 546.392L124.178 548.103H124.178L122.466 546.392ZM118.472 549.062L117.546 546.827H117.546L118.472 549.062ZM113.76 550H111.341V552.419H113.76V550ZM249.535 411.623L246.6 415.182L250.333 418.26L253.268 414.702L249.535 411.623ZM240.73 422.3L237.796 425.859L241.529 428.937L244.464 425.378L240.73 422.3ZM241.477 425.798L238.807 422.771L235.178 425.972L237.848 428.999L241.477 425.798ZM233.468 416.717L230.798 413.69L227.169 416.891L229.839 419.918L233.468 416.717ZM230.798 413.69C230.573 413.436 230.331 413.2 230.073 412.984L226.968 416.695C227.039 416.755 227.107 416.82 227.169 416.891L230.798 413.69ZM228.349 411.937C228.039 411.808 227.718 411.702 227.388 411.62L226.223 416.316C226.314 416.339 226.403 416.369 226.489 416.404L228.349 411.937ZM227.388 411.62C227.059 411.539 226.726 411.482 226.391 411.451L225.946 416.27C226.039 416.278 226.132 416.294 226.223 416.316L227.388 411.62ZM224.377 411.571C224.049 411.641 223.724 411.736 223.407 411.856L225.119 416.382C225.207 416.349 225.297 416.322 225.388 416.303L224.377 411.571ZM223.407 411.856C223.09 411.976 222.784 412.119 222.491 412.284L224.865 416.501C224.946 416.455 225.031 416.415 225.119 416.382L223.407 411.856ZM220.902 413.528C220.671 413.772 220.459 414.035 220.266 414.314L224.247 417.064C224.301 416.987 224.36 416.914 224.424 416.846L220.902 413.528ZM220.266 414.314C220.073 414.593 219.903 414.885 219.756 415.187L224.106 417.307C224.147 417.223 224.194 417.142 224.247 417.064L220.266 414.314ZM219.155 417.113C219.105 417.446 219.079 417.783 219.079 418.122L223.918 418.122C223.918 418.027 223.925 417.934 223.939 417.842L219.155 417.113ZM219.15 417.54L217.929 422.473L222.626 423.636L223.847 418.703L219.15 417.54ZM215.486 432.339L214.265 437.271L218.962 438.434L220.183 433.502L215.486 432.339ZM215.073 435.987C214.004 436.87 212.978 437.801 211.997 438.779L215.414 442.205C216.288 441.334 217.202 440.504 218.153 439.719L215.073 435.987ZM206.697 445.166C205.143 447.444 203.797 449.876 202.687 452.435L207.126 454.36C208.114 452.085 209.311 449.92 210.695 447.892L206.697 445.166ZM200.121 460.333C199.822 461.676 199.585 463.042 199.412 464.428L204.213 465.027C204.367 463.794 204.579 462.578 204.844 461.384L200.121 460.333ZM201.92 462.31C201.551 462.294 201.182 462.278 200.814 462.264L200.621 467.099C200.981 467.113 201.343 467.128 201.705 467.144L201.92 462.31ZM198.6 462.186C198.23 462.174 197.861 462.164 197.493 462.154L197.369 466.992C197.729 467.001 198.091 467.011 198.453 467.022L198.6 462.186ZM197.494 462.155C196.313 462.124 195.139 462.102 193.972 462.091L193.925 466.93C195.065 466.941 196.213 466.962 197.368 466.992L197.494 462.155ZM186.919 462.151C184.531 462.217 182.177 462.331 179.857 462.498L180.205 467.324C182.448 467.163 184.731 467.052 187.053 466.988L186.919 462.151ZM172.802 463.187C170.415 463.485 168.07 463.848 165.773 464.282L166.67 469.037C168.862 468.623 171.107 468.275 173.402 467.988L172.802 463.187ZM158.809 465.858C157.647 466.167 156.5 466.498 155.367 466.852L156.808 471.471C157.874 471.138 158.956 470.826 160.055 470.533L158.809 465.858ZM156.087 466.742C154.616 466.742 153.152 466.815 151.701 466.958L152.176 471.773C153.47 471.645 154.775 471.581 156.087 471.581L156.087 466.742ZM143.097 468.67C140.293 469.522 137.578 470.647 134.993 472.029L137.275 476.296C139.58 475.063 142.001 474.06 144.503 473.3L143.097 468.67ZM127.7 476.904C126.573 477.829 125.487 478.813 124.447 479.854L127.869 483.275C128.797 482.347 129.766 481.469 130.771 480.644L127.7 476.904ZM124.447 479.854C123.407 480.894 122.423 481.981 121.498 483.109L125.239 486.178C126.064 485.172 126.942 484.203 127.869 483.275L124.447 479.854ZM116.625 490.406C115.243 492.991 114.119 495.707 113.268 498.512L117.898 499.917C118.657 497.414 119.66 494.992 120.892 492.686L116.625 490.406ZM111.557 507.118C111.414 508.57 111.341 510.034 111.341 511.505L116.18 511.505C116.18 510.193 116.245 508.887 116.372 507.592L111.557 507.118ZM113.76 513.925H117.636V509.086H113.76V513.925ZM125.386 513.925H133.137V509.086H125.386V513.925ZM140.887 513.925H148.638V509.086H140.887V513.925ZM156.388 513.925H164.139V509.086H156.388V513.925ZM171.889 513.925H179.64V509.086H171.889V513.925ZM187.39 513.925H195.141V509.086H187.39V513.925ZM202.892 513.925H210.642V509.086H202.892V513.925ZM218.393 513.925H222.268V509.086H218.393V513.925ZM219.848 511.505V511.506H224.687V511.505H219.848ZM219.848 511.506V511.506H224.687V511.506H219.848ZM222.268 513.926H227.448V509.087H222.268V513.926ZM237.809 513.926H242.989V509.087H237.809V513.926ZM242.987 513.926L243.002 513.926L243.005 509.087L242.991 509.087L242.987 513.926ZM243.03 513.926L243.044 513.926L243.048 509.087L243.033 509.087L243.03 513.926ZM243.048 513.926L243.062 513.926L243.059 509.087L243.044 509.087L243.048 513.926ZM243.09 513.926L243.104 513.926L243.101 509.087L243.087 509.087L243.09 513.926ZM243.103 513.926H248.098V509.087H243.103V513.926ZM258.088 513.926H268.078V509.087H258.088V513.926ZM278.068 513.926H283.063V509.087H278.068V513.926ZM283.063 513.926C283.477 513.926 283.886 513.885 284.286 513.805L283.342 509.06C283.251 509.078 283.157 509.087 283.063 509.087V513.926ZM286.545 512.869C286.884 512.642 287.203 512.382 287.495 512.089L284.073 508.669C284.006 508.735 283.934 508.795 283.856 508.846L286.545 512.869ZM287.495 512.089C287.558 512.026 287.62 511.961 287.681 511.895L284.115 508.624C284.101 508.639 284.087 508.654 284.073 508.669L287.495 512.089ZM288.027 511.484C288.081 511.413 288.135 511.341 288.186 511.268L284.23 508.481C284.219 508.498 284.207 508.514 284.194 508.531L288.027 511.484ZM286.734 512.236C287.024 512.172 287.308 512.087 287.584 511.983L285.876 507.455C285.813 507.479 285.748 507.499 285.682 507.513L286.734 512.236ZM289.134 511.131C289.37 510.954 289.593 510.76 289.804 510.55L286.382 507.129C286.333 507.177 286.282 507.221 286.229 507.261L289.134 511.131ZM289.804 510.55C290.096 510.257 290.357 509.939 290.583 509.6L286.559 506.912C286.508 506.989 286.448 507.062 286.382 507.129L289.804 510.55ZM291.519 507.34C291.598 506.94 291.639 506.531 291.639 506.117H286.8C286.8 506.212 286.791 506.305 286.773 506.396L291.519 507.34ZM291.639 506.117C291.639 505.704 291.598 505.294 291.519 504.895L286.773 505.838C286.791 505.929 286.8 506.023 286.8 506.117H291.639ZM290.583 502.635C290.357 502.296 290.096 501.978 289.804 501.685L286.382 505.106C286.448 505.173 286.508 505.245 286.559 505.323L290.583 502.635ZM289.804 501.685C289.511 501.393 289.193 501.132 288.854 500.905L286.165 504.928C286.242 504.98 286.315 505.039 286.382 505.106L289.804 501.685ZM286.595 499.969C286.195 499.89 285.785 499.849 285.372 499.849V504.687C285.466 504.687 285.559 504.697 285.65 504.715L286.595 499.969ZM285.372 499.849H281.321V504.687H285.372V499.849ZM273.219 499.849H269.168V504.687H273.219V499.849ZM270.69 504.148C272.273 502.867 273.765 501.478 275.155 499.993L271.622 496.687C270.384 498.01 269.055 499.247 267.646 500.388L270.69 504.148ZM282.167 490.045C283.093 488.245 283.9 486.372 284.575 484.438L280.006 482.844C279.406 484.564 278.689 486.229 277.864 487.831L282.167 490.045ZM281.405 485.892C281.531 485.942 281.66 485.986 281.792 486.025L283.163 481.385C283.17 481.387 283.174 481.389 283.176 481.389L281.405 485.892ZM282.629 486.189C282.773 486.203 282.917 486.21 283.063 486.21V481.372C283.076 481.372 283.089 481.372 283.102 481.374L282.629 486.189ZM283.063 486.21C285.169 486.21 286.662 484.789 287.569 483.43L283.543 480.745C283.301 481.108 283.106 481.285 283.002 481.358C282.915 481.419 282.944 481.372 283.063 481.372V486.21ZM289.881 476.463C290.024 475.364 290.1 474.206 290.1 473.013H285.261C285.261 474.002 285.198 474.951 285.083 475.838L289.881 476.463ZM290.1 473.013C290.1 471.908 290.035 470.833 289.911 469.807L285.107 470.385C285.207 471.215 285.261 472.096 285.261 473.013H290.1ZM288.022 463.346C287.334 462.093 286.329 460.838 284.902 460.209L282.949 464.636C282.992 464.655 283.334 464.861 283.78 465.675L288.022 463.346ZM286.306 461.988C286.033 460.491 285.684 459.021 285.264 457.581L280.619 458.936C280.993 460.217 281.303 461.525 281.546 462.857L286.306 461.988ZM281.844 449.206C280.413 446.53 278.714 444.021 276.783 441.713L273.071 444.818C274.791 446.873 276.304 449.108 277.577 451.488L281.844 449.206ZM270.303 435.408C269.121 434.473 267.889 433.597 266.613 432.786L264.016 436.868C265.152 437.591 266.248 438.371 267.301 439.203L270.303 435.408ZM267.642 434.168L266.157 428.923L261.502 430.241L262.987 435.486L267.642 434.168ZM263.187 418.432L261.702 413.187L257.047 414.505L258.532 419.75L263.187 418.432ZM261.702 413.187C261.61 412.86 261.493 412.543 261.354 412.237L256.95 414.241C256.988 414.326 257.021 414.414 257.047 414.505L261.702 413.187ZM260.252 410.548C260.028 410.297 259.784 410.062 259.523 409.847L256.441 413.577C256.514 413.637 256.582 413.702 256.644 413.772L260.252 410.548ZM259.523 409.847C259.261 409.631 258.985 409.436 258.696 409.263L256.212 413.416C256.292 413.463 256.369 413.517 256.441 413.577L259.523 409.847ZM256.829 408.5C256.502 408.421 256.169 408.367 255.831 408.338L255.417 413.159C255.511 413.167 255.604 413.182 255.694 413.204L256.829 408.5ZM255.831 408.338C255.493 408.309 255.155 408.306 254.819 408.328L255.137 413.156C255.23 413.15 255.324 413.151 255.417 413.159L255.831 408.338ZM252.849 408.762C252.536 408.883 252.23 409.028 251.936 409.196L254.337 413.397C254.419 413.35 254.504 413.31 254.591 413.276L252.849 408.762ZM251.936 409.196C251.641 409.364 251.361 409.554 251.098 409.763L254.105 413.554C254.178 413.496 254.256 413.444 254.337 413.397L251.936 409.196ZM249.724 411.24C249.535 411.518 249.366 411.811 249.22 412.117L253.583 414.208C253.624 414.123 253.671 414.041 253.723 413.964L249.724 411.24ZM126.073 509.087H122.995V513.926H126.073V509.087ZM116.838 509.087H113.76V513.926H116.838V509.087ZM111.341 511.506V516.318H116.179V511.506H111.341ZM111.341 525.942V535.565H116.179V525.942H111.341ZM111.341 545.188V550H116.179V545.188H111.341ZM113.76 552.419C114.243 552.419 114.725 552.396 115.204 552.348L114.73 547.533C114.408 547.565 114.084 547.581 113.76 547.581V552.419ZM118.037 551.785C118.497 551.645 118.952 551.482 119.398 551.298L117.546 546.827C117.246 546.952 116.941 547.061 116.632 547.155L118.037 551.785ZM119.398 551.298C119.844 551.113 120.281 550.906 120.705 550.679L118.423 546.412C118.138 546.565 117.845 546.703 117.546 546.827L119.398 551.298ZM123.106 549.074C123.478 548.768 123.836 548.444 124.178 548.103L120.755 544.682C120.526 544.911 120.286 545.129 120.036 545.334L123.106 549.074ZM124.178 548.103C124.519 547.761 124.843 547.403 125.149 547.031L121.407 543.962C121.202 544.212 120.985 544.452 120.755 544.682L124.178 548.103ZM126.753 544.629C126.98 544.204 127.186 543.768 127.371 543.322L122.9 541.47C122.776 541.77 122.637 542.063 122.485 542.349L126.753 544.629ZM127.371 543.322C127.556 542.875 127.718 542.421 127.858 541.96L123.227 540.556C123.134 540.865 123.024 541.171 122.9 541.47L127.371 543.322ZM128.421 539.127C128.468 538.647 128.492 538.165 128.492 537.682H123.653C123.653 538.007 123.638 538.331 123.606 538.652L128.421 539.127ZM128.492 537.682V534.41H123.653V537.682H128.492ZM128.492 527.866V521.322H123.653V527.866H128.492ZM128.492 514.778V511.506H123.653V514.778H128.492Z" fill="black" mask="url(#path-30-inside-1_1415_422)"/>
<path d="M433.557 254.888C438.432 257.704 444.667 256.033 447.482 251.156C450.296 246.278 448.626 240.042 443.75 237.226C438.875 234.41 432.641 236.081 429.826 240.958C427.011 245.836 428.681 252.072 433.557 254.888Z" fill="#00BFA6"/>
<path d="M490.891 153.357C477.038 145.486 459.269 150.178 451.108 163.866C451.032 163.992 450.514 164.888 449.838 166.06C448.847 167.778 448.578 169.82 449.091 171.736C449.604 173.653 450.858 175.287 452.575 176.279C453.426 176.77 454.366 177.089 455.341 177.217C456.316 177.345 457.306 177.28 458.256 177.025C459.205 176.77 460.095 176.33 460.875 175.731C461.654 175.131 462.308 174.384 462.799 173.532C463.258 172.735 463.576 172.183 463.596 172.149C464.826 170.016 466.591 168.24 468.716 166.995C470.84 165.751 473.252 165.082 475.714 165.053C478.176 165.024 480.603 165.637 482.756 166.831C484.909 168.026 486.714 169.76 487.994 171.864C489.274 173.968 489.985 176.369 490.056 178.831C490.127 181.293 489.556 183.731 488.4 185.905C487.244 188.079 485.541 189.915 483.461 191.231C481.38 192.548 478.992 193.3 476.533 193.413L476.534 193.417C476.534 193.417 463.891 194.03 456.381 200.55L456.383 200.552C454.926 201.935 453.677 203.521 452.674 205.262C452.261 205.977 448.692 212.26 445.841 217.386C444.858 219.155 444.61 221.239 445.15 223.19C445.689 225.141 446.974 226.801 448.726 227.812C449.607 228.321 450.579 228.65 451.587 228.781C452.595 228.912 453.619 228.843 454.6 228.577C455.581 228.31 456.5 227.853 457.304 227.23C458.107 226.607 458.78 225.831 459.283 224.947C461.939 220.279 465.05 214.854 465.277 214.461C468.162 209.461 475.859 207.264 481.695 206.302C488.415 205.195 494.64 201.993 499.277 197.003C500.252 195.987 501.113 194.868 501.843 193.664C503.784 190.302 505.04 186.588 505.54 182.738C506.039 178.888 505.772 174.977 504.754 171.23C503.736 167.483 501.987 163.975 499.608 160.908C497.229 157.84 494.266 155.274 490.891 153.357Z" fill="#00BFA6"/>
<path d="M452.323 225.804C450.571 224.792 449.286 223.132 448.747 221.181C448.207 219.231 448.455 217.146 449.438 215.377C452.288 210.251 455.858 203.969 456.271 203.253C457.274 201.513 458.523 199.927 459.98 198.544L459.978 198.542C460.753 197.873 461.576 197.262 462.44 196.712C460.212 197.664 458.138 198.942 456.286 200.505L456.288 200.507C454.831 201.89 453.582 203.476 452.579 205.217C452.166 205.932 448.597 212.214 445.746 217.341C444.763 219.11 444.515 221.194 445.055 223.145C445.594 225.095 446.879 226.756 448.631 227.767C450.076 228.601 451.752 228.944 453.408 228.745C455.064 228.545 456.611 227.814 457.817 226.661C455.943 227.071 453.983 226.766 452.323 225.804Z" fill="#3F3D56"/>
<path d="M432.855 251.611C431.916 250.34 431.286 248.869 431.013 247.312C430.74 245.756 430.833 244.158 431.283 242.643C431.733 241.129 432.529 239.74 433.608 238.586C434.687 237.432 436.02 236.544 437.5 235.994C436.063 236.148 434.675 236.607 433.428 237.339C432.182 238.071 431.105 239.06 430.27 240.24C429.435 241.421 428.86 242.765 428.584 244.185C428.308 245.604 428.337 247.066 428.669 248.473C429 249.881 429.628 251.201 430.509 252.348C431.39 253.494 432.504 254.44 433.779 255.123C435.053 255.805 436.458 256.208 437.9 256.306C439.342 256.404 440.789 256.194 442.143 255.69C440.374 255.881 438.585 255.605 436.956 254.889C435.326 254.174 433.912 253.043 432.855 251.611Z" fill="#3F3D56"/>
</g>
<defs>
<clipPath id="clip0_1415_422">
<rect width="577" height="550" fill="white"/>
</clipPath>
</defs>
</svg>
