<svg width="807" height="697" viewBox="0 0 807 697" fill="none" xmlns="http://www.w3.org/2000/svg">
<g clip-path="url(#clip0_1702_58)">
<path d="M515.068 248.226C515.068 248.226 515.087 276.183 505.03 271C498.486 267.627 449.249 254.611 440.53 244C436.189 238.716 441.896 229.377 447.53 225.5C447.53 225.5 459.409 215.781 468.53 209.5C477.693 203.191 492.849 194.667 492.849 194.667L500.969 208.141C500.969 208.141 489.956 216.9 482.53 222C475.478 226.843 463.984 233.658 463.984 233.658C463.984 233.658 479.27 234.641 490.03 238C499.935 241.091 515.068 248.226 515.068 248.226Z" fill="#FFB6B6"/>
<path d="M504.495 209.5C510.57 209.5 516.495 207.575 516.495 201.5C516.495 195.425 507.106 192 501.03 192C494.955 192 490.03 194.425 490.03 200.5C490.03 206.575 498.42 209.5 504.495 209.5Z" fill="#FFB6B6"/>
<path d="M133.229 535.308C129.344 535.726 125.106 536.354 120.598 537.272C101.484 541.164 101.087 554.143 101.254 557.119L101.124 557.038C99.2025 560.121 97.9987 563.241 97.2712 566.186L96.3959 526.406C96.9619 525.226 97.4769 523.888 97.9062 522.517C99.337 526.923 101.682 531.085 103.704 530.809C106.333 530.451 107.479 522.715 106.989 517.218C110.332 521.523 115.959 526.128 118.081 524.708C119.777 523.574 118.772 518.903 116.92 514.656C120.778 516.981 125.051 518.508 126.377 517.032C128.187 515.018 123.851 508.146 119.852 504.309C125.205 504.808 132.012 503.955 132.458 501.519C132.826 499.512 128.775 496.98 124.438 495.349C128.794 494.201 132.867 492.2 132.732 490.22C132.571 487.869 126.524 486.293 121.308 486.053C125.242 482.975 128.858 478.72 127.752 476.795C126.736 475.026 122.007 475.711 117.645 477.269C120.226 473.578 122.041 469.419 120.659 467.996C118.937 466.223 112.826 469.283 108.655 472.666C109.467 467.396 109.056 460.743 106.693 460.142C104.715 459.638 101.913 463.508 99.9912 467.723C99.1419 463.299 97.4227 459.1 95.4386 459.1C92.612 459.1 90.3207 467.622 90.3207 473.174C90.3207 473.488 90.329 473.783 90.3433 474.065C90.0596 473.737 89.7345 473.393 89.3637 473.033C85.3807 469.165 77.6708 464.871 75.7016 466.899C74.3192 468.322 76.1343 472.482 78.7161 476.173C74.3534 474.614 69.6249 473.929 68.6084 475.698C67.2427 478.076 73.0807 484.011 77.8261 486.889C77.5408 486.854 77.2411 486.825 76.9222 486.804C71.3829 486.426 62.7246 488.132 62.5321 490.952C62.3971 492.931 66.4701 494.932 70.8256 496.081C66.4892 497.711 62.4378 500.243 62.8056 502.251C63.2519 504.687 70.0592 505.539 75.4116 505.04C71.4129 508.877 67.0771 515.749 68.8866 517.764C70.2126 519.24 74.4857 517.712 78.344 515.387C76.4923 519.634 75.4866 524.305 77.1827 525.439C79.4241 526.939 85.5713 521.72 88.8124 517.23C88.4822 522.723 89.7966 530.27 92.4046 530.568C93.4953 530.692 94.651 529.529 95.6941 527.738L92.74 570.496C92.0495 575.476 96.4664 578.725 96.8612 580.777L97.4983 609.732C96.7792 607.669 95.8107 605.559 94.505 603.464L94.3752 603.545C94.5427 600.569 94.1457 587.591 75.0315 583.699C70.5234 582.781 66.2854 582.153 62.4005 581.735C57.8148 581.242 56.026 587.519 60.1686 589.547C66.1681 592.483 71.8116 596.183 74.7532 600.564C82.2736 611.765 92.6647 605.29 94.1421 604.285C95.7923 607.032 96.8743 609.799 97.5578 612.433L97.8961 627.81C97.8132 628.173 97.7558 628.377 97.7514 628.392L97.91 628.439L98.7288 665.652L106.325 665.591L103.608 627.553C104.065 625.501 105.469 618.511 103.608 611.251L100.891 581.364C100.884 581.341 101.045 582.149 100.891 581.364L97.3468 569.621C97.8622 565.988 99.0582 561.901 101.487 557.858C102.965 558.863 113.356 565.338 120.876 554.137C123.818 549.756 129.461 546.056 135.461 543.12C139.604 541.092 137.815 534.815 133.229 535.308ZM98.5292 623.355L98.386 616.847C98.6748 619.307 98.6602 621.528 98.5292 623.355Z" fill="#BADBD9"/>
<path d="M714.562 535.308C710.677 535.726 706.439 536.354 701.931 537.272C682.816 541.164 682.42 554.143 682.587 557.119L682.457 557.038C680.535 560.121 679.331 563.241 678.604 566.186L677.729 526.406C678.295 525.226 678.81 523.888 679.239 522.517C680.67 526.923 683.015 531.085 685.037 530.809C687.666 530.451 688.812 522.715 688.322 517.218C691.665 521.523 697.291 526.128 699.414 524.708C701.11 523.574 700.104 518.903 698.253 514.656C702.111 516.981 706.384 518.508 707.71 517.032C709.52 515.018 705.184 508.146 701.185 504.309C706.537 504.808 713.345 503.955 713.791 501.519C714.159 499.512 710.107 496.98 705.771 495.349C710.127 494.201 714.2 492.2 714.065 490.22C713.904 487.869 707.857 486.293 702.64 486.053C706.575 482.975 710.191 478.72 709.085 476.795C708.068 475.026 703.34 475.711 698.977 477.269C701.559 473.578 703.374 469.419 701.992 467.996C700.27 466.223 694.158 469.283 689.988 472.666C690.8 467.396 690.389 460.743 688.026 460.142C686.048 459.638 683.245 463.508 681.324 467.723C680.475 463.299 678.756 459.1 676.771 459.1C673.945 459.1 671.653 467.622 671.653 473.174C671.653 473.488 671.662 473.783 671.676 474.065C671.392 473.737 671.067 473.393 670.696 473.033C666.713 469.165 659.004 464.871 657.034 466.899C655.652 468.322 657.467 472.482 660.049 476.173C655.686 474.614 650.958 473.929 649.941 475.698C648.575 478.076 654.413 484.011 659.159 486.889C658.874 486.854 658.574 486.825 658.255 486.804C652.716 486.426 644.057 488.132 643.865 490.952C643.73 492.931 647.803 494.932 652.158 496.081C647.822 497.711 643.771 500.243 644.138 502.251C644.585 504.687 651.392 505.539 656.744 505.04C652.746 508.877 648.41 515.749 650.219 517.764C651.545 519.24 655.818 517.712 659.677 515.387C657.825 519.634 656.819 524.305 658.515 525.439C660.757 526.939 666.904 521.72 670.145 517.23C669.815 522.723 671.129 530.27 673.737 530.568C674.828 530.692 675.984 529.529 677.027 527.738L674.073 570.496C673.382 575.476 677.799 578.725 678.194 580.777L678.831 609.732C678.112 607.669 677.143 605.559 675.838 603.464L675.708 603.545C675.875 600.569 675.478 587.591 656.364 583.699C651.856 582.781 647.618 582.153 643.733 581.735C639.148 581.242 637.359 587.519 641.501 589.547C647.501 592.483 653.144 596.183 656.086 600.564C663.606 611.765 673.997 605.29 675.475 604.285C677.125 607.032 678.207 609.799 678.89 612.433L679.229 627.81C679.146 628.173 679.089 628.377 679.084 628.392L679.243 628.439L680.062 665.652L687.658 665.591L684.941 627.553C685.397 625.501 686.802 618.511 684.941 611.251L682.224 581.364C682.217 581.341 682.378 582.149 682.224 581.364L678.68 569.621C679.195 565.988 680.391 561.901 682.82 557.858C684.297 558.863 694.689 565.338 702.209 554.137C705.151 549.756 710.794 546.056 716.794 543.12C720.936 541.092 719.148 534.815 714.562 535.308ZM679.862 623.355L679.719 616.847C680.008 619.307 679.993 621.528 679.862 623.355Z" fill="#BADBD9"/>
<path d="M596.626 413.525L593.064 328.607C593.064 328.607 589.063 278.193 585.862 260.588C582.661 242.983 561.055 247.784 561.055 247.784L563.455 298.198L573.813 349.791L581.875 420.045C581.46 422.077 581.225 424.286 581.225 426.605C581.225 436.447 585.335 444.426 590.405 444.426C595.476 444.426 599.586 436.447 599.586 426.605C599.586 421.428 598.442 416.781 596.626 413.525Z" fill="#FFB6B6"/>
<path d="M528.646 240.982L534.203 219.618L555.853 218.576L562.331 248.027L528.646 240.982Z" fill="#FFB6B6"/>
<path opacity="0.1" d="M528.646 240.982L534.203 219.618L555.853 218.576L562.331 248.027L528.646 240.982Z" fill="black"/>
<path d="M473.361 590.997L453.083 589.838L455.743 652.07L469.484 652.856L473.361 590.997Z" fill="#FFB6B6"/>
<path d="M453.986 632.394L461.027 635.605L461.018 639.874C461.018 639.874 462.716 634.934 471.835 633.856L472.923 637.994C472.923 637.994 476.459 642.053 475.853 649.395L473.532 669.057L466.655 668.899L465.545 655.217C465.545 655.217 463.65 652.112 454.925 666.865C454.925 666.865 445.313 669.287 430.429 664.297C428.383 663.611 426.962 661.701 426.989 659.543C427.004 658.353 427.469 657.252 428.962 656.857C432.762 655.853 436.474 657.127 438.928 654.093C441.382 651.06 453.986 632.394 453.986 632.394Z" fill="#2F2E41"/>
<path d="M582.191 590.997L561.914 589.838L564.574 652.07L578.314 652.856L582.191 590.997Z" fill="#FFB6B6"/>
<path d="M562.816 632.394L569.857 635.605L569.848 639.874C569.848 639.874 571.547 634.934 580.665 633.856L581.753 637.994C581.753 637.994 585.29 642.053 584.683 649.395L582.362 669.057L575.486 668.899L574.375 655.217C574.375 655.217 572.481 652.112 563.755 666.865C563.755 666.865 554.144 669.287 539.259 664.297C537.214 663.611 535.792 661.701 535.819 659.543C535.834 658.353 536.299 657.252 537.792 656.857C541.593 655.853 545.304 657.127 547.758 654.093C550.213 651.06 562.816 632.394 562.816 632.394Z" fill="#2F2E41"/>
<path d="M545.292 232.199C558.55 232.199 569.298 221.451 569.298 208.193C569.298 194.934 558.55 184.186 545.292 184.186C532.033 184.186 521.285 194.934 521.285 208.193C521.285 221.451 532.033 232.199 545.292 232.199Z" fill="#FFB6B6"/>
<path d="M558.905 212.184C558.905 212.184 548.35 194.913 537.785 196.819C527.219 198.726 521.711 200.447 521.711 200.447C521.711 200.447 517.409 186.677 531.854 180.071C531.854 180.071 511.412 162.955 533.199 151.971C554.985 140.987 568.543 151.632 568.543 151.632C568.543 151.632 586.575 166.925 566.582 181.078C566.582 181.078 583.886 200.789 566.409 219.618C566.409 219.618 569.494 205.281 565.297 208.22C561.1 211.159 558.905 212.184 558.905 212.184Z" fill="#2F2E41"/>
<path d="M561.455 242.583L528.646 238.582L503.439 258.987C503.439 258.987 490.902 293.917 500.238 315.003C500.462 315.508 500.638 350.613 500.638 350.613H570.346C570.346 350.613 570.278 326.719 572.942 318.065C573.322 316.829 573.758 315.903 574.258 315.403C578.26 311.402 587.862 285.795 583.061 274.592C578.26 263.389 561.455 242.583 561.455 242.583Z" fill="#1DCFBD"/>
<path d="M500.238 349.013L456.226 489.052L446.623 599.483H473.43L496.237 497.054L527.644 437.762L558.654 607.485H585.714L585.062 377.821L570.289 349.013H500.238Z" fill="#2F2E41"/>
<path d="M806.246 665.845H0V668.303H806.246V665.845Z" fill="#3F3D56"/>
<mask id="path-17-inside-1_1702_58" fill="white">
<path fill-rule="evenodd" clip-rule="evenodd" d="M372.795 367.597C386.643 361.459 405.288 364.486 413.279 377.355L414.007 377.325L457.059 377.372C461.879 388.086 455.292 400.616 446.869 408.806C444.042 411.554 440.975 414.088 437.911 416.619C431.847 421.628 425.799 426.624 421.667 433.245C413.349 446.575 414.769 462.437 416.212 478.555C417.163 489.18 418.124 499.916 416.313 510.113C413.003 528.753 400.939 543.666 388.795 558.679C378.422 571.502 367.99 584.398 362.907 599.751C356.665 618.602 359.502 640.239 370.393 656.843C370.683 657.286 370.98 657.727 371.277 658.169C373.04 660.794 374.827 663.454 375.429 666.533C376.385 671.425 373.81 676.798 369.398 679.117C364.985 681.437 359.1 680.511 355.612 676.949C359.018 680.819 357.901 687.353 354.078 690.812C350.255 694.271 344.559 695.008 339.515 693.943C323.168 690.491 314.939 671.608 314.278 654.913C314.017 648.327 314.511 641.706 315.004 635.097C315.761 624.954 316.516 614.839 314.537 604.919C313.494 616.676 306.322 626.288 299.149 635.9C291.977 645.512 284.804 655.124 283.762 666.881C283.576 668.974 289.034 673.084 294.509 677.208C300.435 681.671 306.381 686.15 305.216 688.103C299.551 697.601 286.049 697.633 275.048 696.495C256.11 694.536 235.078 691.484 223.199 676.605C220.63 673.387 218.671 669.81 217.188 666.013C216.605 666.466 216.004 666.893 215.387 667.292C206.366 673.126 194.709 673.73 184.296 671.091C164.159 665.987 147.621 648.746 143.359 628.414C142.803 625.761 142.434 623.048 142.065 620.337C141.258 614.41 140.452 608.495 137.698 603.244C136.966 601.848 136.095 600.491 135.226 599.135C133.1 595.821 130.978 592.514 130.893 588.662C130.795 584.25 133.659 580.062 137.566 578.01C141.473 575.958 146.231 575.886 150.437 577.222C160.461 580.408 166.614 590.56 169.803 600.583C170.97 604.251 171.87 608.013 172.768 611.771C174.325 618.28 175.878 624.779 178.818 630.765C183.453 640.206 193.035 648.451 203.454 647.01C206.768 646.552 209.895 645.164 212.973 643.646C212.919 642.516 212.882 641.388 212.859 640.265C212.172 606.784 222.146 573.164 240.981 545.474C251.718 529.689 265.167 515.874 278.582 502.094C296.486 483.702 314.328 465.374 325.578 442.512C329.045 435.468 331.814 428.115 334.584 420.761C337.158 413.927 339.732 407.093 342.867 400.504C349.374 386.825 358.947 373.736 372.795 367.597Z"/>
</mask>
<path d="M413.279 377.355L412.855 377.618L413.008 377.866L413.3 377.854L413.279 377.355ZM372.795 367.597L372.592 367.14L372.795 367.597ZM414.007 377.325L414.007 376.825L413.997 376.825L413.986 376.825L414.007 377.325ZM457.059 377.372L457.515 377.167L457.382 376.872L457.059 376.872L457.059 377.372ZM446.869 408.806L446.521 408.447L446.869 408.806ZM437.911 416.619L437.593 416.234V416.234L437.911 416.619ZM421.667 433.245L421.243 432.981L421.667 433.245ZM416.212 478.555L416.71 478.511L416.212 478.555ZM416.313 510.113L416.805 510.201L416.313 510.113ZM388.795 558.679L388.406 558.364L388.795 558.679ZM362.907 599.751L363.381 599.908L362.907 599.751ZM370.393 656.843L370.811 656.569L370.393 656.843ZM371.277 658.169L370.862 658.448L371.277 658.169ZM375.429 666.533L374.938 666.628L375.429 666.533ZM355.612 676.949L355.969 676.599L355.237 677.279L355.612 676.949ZM339.515 693.943L339.618 693.454L339.515 693.943ZM314.278 654.913L314.777 654.893L314.278 654.913ZM315.004 635.097L315.503 635.134L315.004 635.097ZM314.537 604.919L315.027 604.821L314.039 604.875L314.537 604.919ZM299.149 635.9L298.748 635.601L299.149 635.9ZM283.762 666.881L284.26 666.925L283.762 666.881ZM294.509 677.208L294.208 677.608L294.509 677.208ZM305.216 688.103L305.645 688.359L305.216 688.103ZM275.048 696.495L274.997 696.992L275.048 696.495ZM223.199 676.605L223.59 676.293L223.199 676.605ZM217.188 666.013L217.653 665.831L217.41 665.208L216.881 665.618L217.188 666.013ZM215.387 667.292L215.658 667.712L215.658 667.712L215.387 667.292ZM184.296 671.091L184.419 670.606L184.296 671.091ZM143.359 628.414L143.849 628.312H143.849L143.359 628.414ZM142.065 620.337L142.56 620.27L142.065 620.337ZM137.698 603.244L137.256 603.477H137.256L137.698 603.244ZM135.226 599.135L135.646 598.865L135.226 599.135ZM130.893 588.662L130.393 588.673L130.893 588.662ZM137.566 578.01L137.333 577.567L137.566 578.01ZM150.437 577.222L150.588 576.746H150.588L150.437 577.222ZM169.803 600.583L169.326 600.734L169.803 600.583ZM172.768 611.771L172.282 611.887L172.768 611.771ZM178.818 630.765L179.266 630.544L178.818 630.765ZM203.454 647.01L203.386 646.515L203.454 647.01ZM212.973 643.646L213.194 644.094L213.488 643.95L213.472 643.622L212.973 643.646ZM212.859 640.265L212.359 640.275L212.859 640.265ZM240.981 545.474L241.394 545.755L240.981 545.474ZM278.582 502.094L278.224 501.745L278.582 502.094ZM325.578 442.512L325.13 442.292L325.578 442.512ZM334.584 420.761L334.116 420.585L334.584 420.761ZM342.867 400.504L343.318 400.719L342.867 400.504ZM410.122 372.59C409.926 372.395 409.609 372.396 409.414 372.592C409.22 372.788 409.22 373.104 409.416 373.299L410.122 372.59ZM400.146 367.347C400.403 367.448 400.693 367.322 400.794 367.065C400.895 366.808 400.769 366.518 400.512 366.417L400.146 367.347ZM389.343 364.081C389.067 364.068 388.833 364.281 388.82 364.557C388.806 364.833 389.02 365.067 389.295 365.08L389.343 364.081ZM378.25 366.225C378.517 366.156 378.677 365.883 378.608 365.615C378.538 365.348 378.265 365.188 377.998 365.258L378.25 366.225ZM367.509 369.804C367.273 369.948 367.198 370.256 367.342 370.491C367.486 370.727 367.793 370.802 368.029 370.659L367.509 369.804ZM359.19 377.57C359.387 377.377 359.392 377.061 359.199 376.863C359.007 376.665 358.69 376.66 358.492 376.853L359.19 377.57ZM351.051 385.527C350.889 385.751 350.939 386.063 351.163 386.225C351.387 386.387 351.699 386.337 351.861 386.114L351.051 385.527ZM345.878 395.68C346.009 395.438 345.919 395.134 345.676 395.002C345.434 394.871 345.13 394.961 344.999 395.203L345.878 395.68ZM340.152 405.292C340.043 405.546 340.16 405.84 340.413 405.949C340.667 406.059 340.961 405.942 341.07 405.688L340.152 405.292ZM336.989 415.822C337.088 415.564 336.959 415.275 336.701 415.176C336.443 415.077 336.154 415.206 336.055 415.464L336.989 415.822ZM332.031 426.088C331.932 426.346 332.061 426.635 332.318 426.734C332.576 426.833 332.865 426.704 332.964 426.446L332.031 426.088ZM328.517 437.375C328.628 437.122 328.514 436.827 328.261 436.716C328.008 436.604 327.713 436.719 327.602 436.972L328.517 437.375ZM322.194 447.896C322.059 448.137 322.146 448.442 322.388 448.576C322.629 448.71 322.934 448.623 323.068 448.382L322.194 447.896ZM316.376 459.227C316.531 458.998 316.471 458.687 316.243 458.532C316.014 458.377 315.703 458.437 315.548 458.666L316.376 459.227ZM308.061 468.88C307.89 469.098 307.927 469.412 308.145 469.583C308.362 469.753 308.676 469.716 308.847 469.499L308.061 468.88ZM300.704 479.282C300.886 479.074 300.865 478.758 300.657 478.576C300.45 478.395 300.134 478.416 299.952 478.624L300.704 479.282ZM291.423 488.014C291.234 488.216 291.244 488.532 291.446 488.721C291.647 488.91 291.964 488.9 292.152 488.698L291.423 488.014ZM283.369 497.887C283.561 497.689 283.556 497.372 283.358 497.18C283.159 496.988 282.843 496.993 282.651 497.191L283.369 497.887ZM273.215 506.899C273.023 507.098 273.028 507.414 273.226 507.606C273.425 507.798 273.741 507.793 273.934 507.595L273.215 506.899ZM264.036 518C264.224 517.798 264.212 517.481 264.01 517.294C263.807 517.106 263.491 517.118 263.303 517.32L264.036 518ZM253.727 528.064C253.548 528.274 253.574 528.59 253.784 528.769C253.995 528.948 254.31 528.922 254.489 528.712L253.727 528.064ZM245.548 539.918C245.713 539.696 245.666 539.383 245.445 539.218C245.223 539.054 244.91 539.1 244.745 539.322L245.548 539.918ZM237.129 550.469C236.983 550.703 237.055 551.012 237.289 551.158C237.523 551.304 237.832 551.233 237.978 550.998L237.129 550.469ZM231.776 561.866C231.903 561.621 231.808 561.32 231.563 561.192C231.318 561.065 231.016 561.16 230.888 561.405L231.776 561.866ZM225.513 572.791C225.405 573.045 225.523 573.339 225.777 573.447C226.031 573.555 226.325 573.437 226.433 573.183L225.513 572.791ZM221.972 584.875C222.061 584.613 221.92 584.33 221.659 584.241C221.397 584.152 221.113 584.293 221.025 584.554L221.972 584.875ZM217.444 596.625C217.375 596.892 217.537 597.165 217.804 597.233C218.072 597.302 218.344 597.14 218.413 596.873L217.444 596.625ZM215.776 609.106C215.824 608.834 215.642 608.575 215.37 608.527C215.098 608.479 214.839 608.661 214.791 608.933L215.776 609.106ZM213.087 621.408C213.061 621.683 213.262 621.927 213.537 621.954C213.811 621.981 214.056 621.78 214.083 621.505L213.087 621.408ZM213.355 633.997C213.36 633.721 213.14 633.493 212.864 633.488C212.588 633.482 212.36 633.702 212.355 633.978L213.355 633.997ZM212.379 641.124C212.387 641.4 212.616 641.618 212.892 641.61C213.169 641.603 213.386 641.373 213.379 641.097L212.379 641.124ZM213.435 642.781C213.424 642.505 213.191 642.29 212.915 642.301C212.64 642.313 212.425 642.545 212.436 642.821L213.435 642.781ZM210.477 644.278C210.225 644.392 210.114 644.688 210.227 644.94C210.341 645.191 210.637 645.303 210.889 645.19L210.477 644.278ZM206.066 646.979C206.333 646.907 206.49 646.632 206.418 646.366C206.345 646.099 206.07 645.942 205.804 646.014L206.066 646.979ZM195.829 645.875C195.564 645.795 195.285 645.944 195.204 646.208C195.124 646.472 195.273 646.751 195.537 646.832L195.829 645.875ZM182.669 637.681C182.843 637.895 183.158 637.927 183.372 637.752C183.586 637.578 183.618 637.263 183.443 637.049L182.669 637.681ZM177.316 626.001C177.219 625.743 176.93 625.612 176.672 625.709C176.413 625.806 176.282 626.094 176.38 626.353L177.316 626.001ZM173.467 616.746C173.535 617.013 173.807 617.175 174.074 617.107C174.342 617.04 174.504 616.768 174.436 616.5L173.467 616.746ZM172.577 608.838C172.511 608.57 172.241 608.406 171.972 608.471C171.704 608.536 171.54 608.807 171.605 609.075L172.577 608.838ZM170.153 603.491C170.228 603.757 170.504 603.911 170.77 603.836C171.036 603.761 171.19 603.485 171.115 603.219L170.153 603.491ZM167.347 593.048C167.226 592.8 166.927 592.697 166.678 592.818C166.43 592.939 166.327 593.238 166.448 593.486L167.347 593.048ZM157.054 581.292C157.272 581.461 157.586 581.421 157.755 581.203C157.924 580.984 157.884 580.67 157.666 580.501L157.054 581.292ZM147.281 575.999C147.008 575.962 146.756 576.154 146.718 576.427C146.681 576.701 146.873 576.953 147.146 576.99L147.281 575.999ZM140.773 577.314C141.04 577.245 141.201 576.972 141.132 576.705C141.063 576.438 140.791 576.277 140.523 576.346L140.773 577.314ZM134.536 579.539C134.332 579.726 134.318 580.042 134.505 580.246C134.692 580.449 135.008 580.463 135.211 580.276L134.536 579.539ZM131.829 585.55C131.91 585.286 131.761 585.007 131.496 584.926C131.232 584.846 130.953 584.995 130.873 585.259L131.829 585.55ZM130.835 591.627C130.908 591.893 131.183 592.05 131.449 591.977C131.715 591.905 131.872 591.63 131.799 591.363L130.835 591.627ZM134.128 596.445C133.987 596.208 133.679 596.131 133.443 596.273C133.206 596.415 133.129 596.722 133.271 596.959L134.128 596.445ZM135.449 600.413C135.597 600.647 135.906 600.716 136.139 600.568C136.372 600.42 136.442 600.111 136.294 599.878L135.449 600.413ZM137.553 601.945C137.415 601.705 137.11 601.623 136.87 601.76C136.631 601.898 136.549 602.204 136.686 602.443L137.553 601.945ZM138.963 607.481C139.053 607.742 139.337 607.882 139.598 607.792C139.86 607.703 139.999 607.418 139.91 607.157L138.963 607.481ZM141.93 615.87C141.887 615.597 141.631 615.411 141.358 615.454C141.086 615.497 140.899 615.753 140.942 616.026L141.93 615.87ZM141.848 622.433C141.887 622.707 142.14 622.897 142.413 622.859C142.687 622.82 142.877 622.568 142.839 622.294L141.848 622.433ZM143.465 626.319C143.417 626.047 143.158 625.865 142.886 625.913C142.614 625.961 142.432 626.221 142.48 626.493L143.465 626.319ZM144.198 633.576C144.281 633.839 144.562 633.985 144.826 633.902C145.089 633.819 145.235 633.538 145.152 633.274L144.198 633.576ZM149.166 642.711C149.034 642.468 148.731 642.378 148.488 642.509C148.245 642.641 148.155 642.944 148.286 643.187L149.166 642.711ZM154.067 651.882C154.239 652.097 154.554 652.132 154.77 651.959C154.985 651.786 155.019 651.472 154.847 651.256L154.067 651.882ZM161.952 658.663C161.744 658.482 161.428 658.503 161.246 658.711C161.064 658.919 161.086 659.235 161.294 659.416L161.952 658.663ZM169.741 665.554C169.978 665.695 170.285 665.617 170.426 665.38C170.568 665.143 170.49 664.836 170.253 664.695L169.741 665.554ZM179.515 669.098C179.255 669.004 178.968 669.138 178.874 669.397C178.78 669.657 178.914 669.944 179.174 670.038L179.515 669.098ZM192.185 672.925C192.46 672.948 192.702 672.744 192.725 672.469C192.748 672.193 192.544 671.952 192.269 671.928L192.185 672.925ZM207.977 670.261C207.714 670.347 207.572 670.63 207.658 670.892C207.744 671.155 208.027 671.297 208.289 671.211L207.977 670.261ZM216.128 667.401C216.356 667.246 216.416 666.935 216.261 666.706C216.106 666.478 215.795 666.418 215.567 666.573L216.128 667.401ZM216.45 665.946C216.228 666.111 216.182 666.424 216.346 666.646C216.511 666.867 216.824 666.914 217.046 666.749L216.45 665.946ZM217.941 669.034C218.058 669.284 218.356 669.391 218.606 669.274C218.856 669.156 218.963 668.858 218.846 668.609L217.941 669.034ZM221.809 673.862C221.655 673.632 221.345 673.571 221.115 673.725C220.886 673.879 220.825 674.19 220.979 674.419L221.809 673.862ZM227.824 682.107C228.034 682.287 228.349 682.263 228.529 682.054C228.709 681.844 228.685 681.529 228.476 681.349L227.824 682.107ZM240.485 688.659C240.231 688.55 239.938 688.668 239.829 688.922C239.72 689.175 239.838 689.469 240.092 689.578L240.485 688.659ZM253.781 693.85C254.051 693.91 254.318 693.74 254.378 693.47C254.437 693.201 254.267 692.934 253.998 692.874L253.781 693.85ZM268.021 695.203C267.747 695.169 267.497 695.364 267.463 695.638C267.429 695.912 267.624 696.161 267.898 696.195L268.021 695.203ZM283.293 697.498C283.569 697.5 283.795 697.278 283.797 697.002C283.799 696.726 283.577 696.5 283.301 696.498L283.293 697.498ZM299.084 693.336C298.843 693.471 298.758 693.776 298.894 694.017C299.029 694.257 299.334 694.343 299.575 694.207L299.084 693.336ZM304.026 684.372C303.836 684.172 303.519 684.163 303.319 684.353C303.119 684.543 303.11 684.859 303.3 685.06L304.026 684.372ZM297.351 679.991C297.57 680.16 297.884 680.119 298.053 679.9C298.221 679.681 298.18 679.367 297.961 679.199L297.351 679.991ZM291.792 674.522C291.573 674.354 291.259 674.395 291.091 674.614C290.923 674.833 290.964 675.147 291.183 675.315L291.792 674.522ZM285.336 670.388C285.53 670.585 285.847 670.587 286.043 670.393C286.24 670.199 286.242 669.882 286.048 669.686L285.336 670.388ZM286.102 658.501C286.193 658.24 286.055 657.955 285.794 657.865C285.533 657.774 285.248 657.912 285.157 658.173L286.102 658.501ZM293.569 642.694C293.41 642.921 293.466 643.232 293.692 643.39C293.918 643.549 294.23 643.493 294.388 643.267L293.569 642.694ZM304.73 629.106C304.888 628.88 304.833 628.568 304.606 628.41C304.38 628.251 304.068 628.307 303.91 628.533L304.73 629.106ZM312.196 613.299C312.106 613.56 312.244 613.845 312.505 613.935C312.766 614.026 313.05 613.888 313.141 613.627L312.196 613.299ZM315.055 612.455C315.076 612.73 315.317 612.936 315.592 612.915C315.867 612.893 316.073 612.653 316.051 612.377L315.055 612.455ZM316.025 627.574C316.041 627.298 315.831 627.061 315.555 627.046C315.279 627.03 315.043 627.24 315.027 627.516L316.025 627.574ZM314.148 640.01C314.129 640.286 314.337 640.524 314.613 640.543C314.888 640.562 315.127 640.353 315.145 640.078L314.148 640.01ZM314.712 649.959C314.715 649.683 314.493 649.457 314.217 649.454C313.941 649.451 313.715 649.672 313.712 649.948L314.712 649.959ZM314.368 661.192C314.409 661.466 314.663 661.654 314.937 661.613C315.21 661.573 315.398 661.318 315.357 661.045L314.368 661.192ZM318.497 672.975C318.397 672.718 318.107 672.591 317.849 672.691C317.592 672.792 317.465 673.082 317.566 673.339L318.497 672.975ZM323.733 684.3C323.905 684.516 324.219 684.553 324.436 684.381C324.652 684.209 324.688 683.895 324.516 683.679L323.733 684.3ZM333.863 691.45C333.615 691.327 333.315 691.428 333.192 691.675C333.069 691.922 333.17 692.222 333.417 692.345L333.863 691.45ZM343.335 694.889C343.611 694.895 343.84 694.676 343.846 694.4C343.852 694.124 343.633 693.895 343.357 693.889L343.335 694.889ZM350.653 692.474C350.402 692.59 350.294 692.887 350.41 693.138C350.526 693.388 350.824 693.497 351.074 693.38L350.653 692.474ZM356.833 688.002C356.959 687.756 356.862 687.455 356.616 687.329C356.371 687.203 356.069 687.3 355.943 687.545L356.833 688.002ZM356.878 680.445C356.945 680.713 357.217 680.875 357.485 680.808C357.753 680.74 357.915 680.469 357.848 680.201L356.878 680.445ZM358.398 679.566C358.645 679.689 358.945 679.588 359.068 679.34C359.19 679.093 359.089 678.793 358.842 678.67L358.398 679.566ZM365.796 679.764C365.522 679.805 365.334 680.059 365.375 680.332C365.416 680.605 365.67 680.794 365.943 680.753L365.796 679.764ZM372.704 677.199C372.892 676.997 372.882 676.681 372.68 676.493C372.478 676.304 372.162 676.315 371.973 676.517L372.704 677.199ZM375.015 670.169C374.976 670.442 375.166 670.696 375.439 670.735C375.712 670.774 375.966 670.584 376.005 670.311L375.015 670.169ZM375.234 664.099C375.134 663.841 374.845 663.714 374.587 663.814C374.33 663.913 374.202 664.203 374.302 664.461L375.234 664.099ZM372.151 660.4C372.3 660.633 372.609 660.701 372.842 660.552C373.074 660.404 373.143 660.095 372.994 659.862L372.151 660.4ZM371.47 657.56C371.316 657.331 371.006 657.27 370.776 657.423C370.547 657.577 370.486 657.888 370.64 658.117L371.47 657.56ZM370.196 657.452C370.348 657.682 370.659 657.745 370.889 657.593C371.119 657.44 371.182 657.13 371.029 656.9L370.196 657.452ZM367.136 650.173C367.013 649.926 366.712 649.825 366.465 649.949C366.218 650.072 366.118 650.372 366.241 650.62L367.136 650.173ZM361.106 636.568C361.171 636.836 361.442 637 361.71 636.935C361.978 636.869 362.143 636.599 362.077 636.331L361.106 636.568ZM360.161 621.714C360.155 621.438 359.926 621.219 359.65 621.225C359.374 621.231 359.155 621.459 359.161 621.735L360.161 621.714ZM360.5 606.834C360.444 607.105 360.618 607.369 360.889 607.425C361.159 607.48 361.424 607.306 361.479 607.036L360.5 606.834ZM365.537 594.245C365.646 593.991 365.528 593.697 365.275 593.588C365.021 593.479 364.727 593.596 364.618 593.85L365.537 594.245ZM370.27 582.963C370.127 583.2 370.203 583.507 370.439 583.65C370.676 583.793 370.983 583.717 371.126 583.481L370.27 582.963ZM377.911 573.39C378.074 573.168 378.026 572.855 377.803 572.692C377.58 572.528 377.267 572.577 377.104 572.799L377.911 573.39ZM384.574 563.118C384.402 563.334 384.437 563.649 384.652 563.821C384.868 563.994 385.183 563.959 385.355 563.743L384.574 563.118ZM393.612 553.493C393.784 553.277 393.749 552.962 393.533 552.79C393.317 552.618 393.002 552.653 392.83 552.869L393.612 553.493ZM401.342 541.648C401.182 541.873 401.236 542.185 401.462 542.345C401.688 542.504 401.999 542.45 402.159 542.224L401.342 541.648ZM409.659 530.204C409.789 529.96 409.696 529.657 409.453 529.527C409.209 529.398 408.906 529.49 408.776 529.734L409.659 530.204ZM414.189 516.828C414.109 517.092 414.258 517.371 414.522 517.451C414.787 517.531 415.066 517.381 415.146 517.117L414.189 516.828ZM417.701 502.282C417.716 502.006 417.505 501.77 417.23 501.755C416.954 501.74 416.718 501.951 416.703 502.226L417.701 502.282ZM416.378 486.478C416.398 486.753 416.638 486.96 416.914 486.94C417.189 486.919 417.396 486.68 417.375 486.404L416.378 486.478ZM416.208 472.722C416.186 472.447 415.945 472.242 415.669 472.264C415.394 472.286 415.189 472.528 415.211 472.803L416.208 472.722ZM414.614 461.156C414.616 461.432 414.842 461.654 415.118 461.651C415.394 461.649 415.616 461.423 415.614 461.147L414.614 461.156ZM416.342 449.634C416.383 449.361 416.196 449.106 415.923 449.064C415.65 449.023 415.395 449.21 415.353 449.483L416.342 449.634ZM418.512 438.193C418.403 438.446 418.519 438.74 418.773 438.85C419.026 438.96 419.32 438.843 419.43 438.59L418.512 438.193ZM425.495 428.86C425.673 428.649 425.646 428.334 425.434 428.156C425.223 427.978 424.908 428.005 424.73 428.216L425.495 428.86ZM433.108 419.987C432.899 420.167 432.875 420.482 433.055 420.692C433.235 420.901 433.55 420.925 433.76 420.745L433.108 419.987ZM440.52 415.106C440.732 414.929 440.761 414.614 440.584 414.402C440.407 414.19 440.091 414.161 439.879 414.338L440.52 415.106ZM444.364 410.467C444.16 410.652 444.144 410.968 444.329 411.173C444.514 411.378 444.831 411.394 445.035 411.208L444.364 410.467ZM452.97 402.422C453.128 402.196 453.073 401.885 452.847 401.726C452.621 401.568 452.309 401.623 452.151 401.849L452.97 402.422ZM458.176 385.904C458.166 386.18 458.381 386.412 458.657 386.422C458.933 386.433 459.165 386.218 459.176 385.942L458.176 385.904ZM451.678 376.866C451.401 376.866 451.177 377.089 451.177 377.365C451.177 377.642 451.4 377.866 451.677 377.866L451.678 376.866ZM440.914 377.854C441.19 377.855 441.414 377.631 441.414 377.355C441.414 377.079 441.191 376.855 440.915 376.854L440.914 377.854ZM430.152 376.842C429.875 376.842 429.651 377.066 429.651 377.342C429.651 377.618 429.874 377.842 430.151 377.842L430.152 376.842ZM419.388 377.831C419.664 377.831 419.888 377.607 419.888 377.331C419.888 377.055 419.665 376.831 419.389 376.831L419.388 377.831ZM413.804 376.833C413.528 376.844 413.314 377.077 413.325 377.353C413.336 377.629 413.569 377.843 413.845 377.832L413.804 376.833ZM413.482 377.847C413.757 377.835 413.972 377.603 413.961 377.327C413.949 377.051 413.717 376.836 413.441 376.848L413.482 377.847ZM413.704 377.091C412.673 375.43 411.468 373.93 410.122 372.59L409.416 373.299C410.709 374.586 411.865 376.025 412.855 377.618L413.704 377.091ZM400.512 366.417C397.003 365.037 393.199 364.263 389.343 364.081L389.295 365.08C393.051 365.257 396.746 366.011 400.146 367.347L400.512 366.417ZM377.998 365.258C376.142 365.742 374.331 366.37 372.592 367.14L372.998 368.054C374.685 367.307 376.445 366.696 378.25 366.225L377.998 365.258ZM372.592 367.14C370.83 367.922 369.136 368.814 367.509 369.804L368.029 370.659C369.621 369.69 371.276 368.818 372.998 368.054L372.592 367.14ZM358.492 376.853C355.776 379.495 353.302 382.42 351.051 385.527L351.861 386.114C354.083 383.047 356.52 380.166 359.19 377.57L358.492 376.853ZM344.999 395.203C344.088 396.882 343.228 398.581 342.415 400.289L343.318 400.719C344.124 399.025 344.976 397.342 345.878 395.68L344.999 395.203ZM342.415 400.289C341.628 401.943 340.877 403.612 340.152 405.292L341.07 405.688C341.791 404.018 342.537 402.36 343.318 400.719L342.415 400.289ZM336.055 415.464C335.403 417.169 334.759 418.878 334.116 420.585L335.052 420.938C335.695 419.23 336.338 417.524 336.989 415.822L336.055 415.464ZM334.116 420.585C333.424 422.422 332.733 424.258 332.031 426.088L332.964 426.446C333.668 424.612 334.36 422.774 335.052 420.938L334.116 420.585ZM327.602 436.972C326.814 438.762 325.993 440.537 325.13 442.292L326.027 442.733C326.897 440.964 327.724 439.176 328.517 437.375L327.602 436.972ZM325.13 442.292C324.195 444.19 323.216 446.057 322.194 447.896L323.068 448.382C324.097 446.529 325.085 444.647 326.027 442.733L325.13 442.292ZM315.548 458.666C313.182 462.157 310.676 465.555 308.061 468.88L308.847 469.499C311.475 466.157 313.995 462.74 316.376 459.227L315.548 458.666ZM299.952 478.624C297.176 481.797 294.323 484.92 291.423 488.014L292.152 488.698C295.058 485.597 297.919 482.466 300.704 479.282L299.952 478.624ZM282.651 497.191C281.178 498.71 279.701 500.227 278.224 501.745L278.94 502.442C280.418 500.925 281.895 499.407 283.369 497.887L282.651 497.191ZM278.224 501.745C276.553 503.461 274.882 505.178 273.215 506.899L273.934 507.595C275.599 505.875 277.27 504.158 278.94 502.442L278.224 501.745ZM263.303 517.32C260.036 520.842 256.83 524.414 253.727 528.064L254.489 528.712C257.58 525.075 260.776 521.515 264.036 518L263.303 517.32ZM244.745 539.322C243.313 541.25 241.919 543.206 240.567 545.193L241.394 545.755C242.738 543.78 244.124 541.836 245.548 539.918L244.745 539.322ZM240.567 545.193C239.386 546.929 238.24 548.688 237.129 550.469L237.978 550.998C239.082 549.229 240.221 547.48 241.394 545.755L240.567 545.193ZM230.888 561.405C228.951 565.129 227.158 568.928 225.513 572.791L226.433 573.183C228.068 569.344 229.85 565.568 231.776 561.866L230.888 561.405ZM221.025 584.554C219.679 588.53 218.484 592.558 217.444 596.625L218.413 596.873C219.446 592.83 220.634 588.827 221.972 584.875L221.025 584.554ZM214.791 608.933C214.064 613.068 213.495 617.23 213.087 621.408L214.083 621.505C214.487 617.353 215.053 613.216 215.776 609.106L214.791 608.933ZM212.355 633.978C212.315 636.077 212.316 638.176 212.359 640.275L213.359 640.255C213.316 638.169 213.315 636.083 213.355 633.997L212.355 633.978ZM212.359 640.275C212.365 640.558 212.372 640.841 212.379 641.124L213.379 641.097C213.371 640.816 213.365 640.535 213.359 640.255L212.359 640.275ZM212.436 642.821C212.447 643.104 212.46 643.387 212.473 643.67L213.472 643.622C213.459 643.342 213.446 643.061 213.435 642.781L212.436 642.821ZM212.752 643.198C211.995 643.571 211.238 643.935 210.477 644.278L210.889 645.19C211.663 644.84 212.431 644.47 213.194 644.094L212.752 643.198ZM205.804 646.014C205.006 646.231 204.2 646.402 203.386 646.515L203.523 647.505C204.385 647.386 205.232 647.206 206.066 646.979L205.804 646.014ZM203.386 646.515C200.795 646.873 198.255 646.615 195.829 645.875L195.537 646.832C198.09 647.61 200.776 647.885 203.523 647.505L203.386 646.515ZM183.443 637.049C181.798 635.033 180.386 632.824 179.266 630.544L178.369 630.985C179.521 633.333 180.975 635.607 182.669 637.681L183.443 637.049ZM179.266 630.544C178.538 629.061 177.895 627.545 177.316 626.001L176.38 626.353C176.969 627.922 177.624 629.469 178.369 630.985L179.266 630.544ZM174.436 616.5C174.029 614.892 173.642 613.276 173.254 611.654L172.282 611.887C172.669 613.507 173.057 615.13 173.467 616.746L174.436 616.5ZM173.254 611.654C173.03 610.716 172.805 609.777 172.577 608.838L171.605 609.075C171.833 610.011 172.057 610.948 172.282 611.887L173.254 611.654ZM171.115 603.219C170.851 602.286 170.574 601.356 170.279 600.431L169.326 600.734C169.617 601.647 169.891 602.567 170.153 603.491L171.115 603.219ZM170.279 600.431C169.488 597.945 168.516 595.448 167.347 593.048L166.448 593.486C167.593 595.838 168.548 598.289 169.326 600.734L170.279 600.431ZM157.666 580.501C155.558 578.87 153.203 577.577 150.588 576.746L150.285 577.699C152.778 578.491 155.029 579.726 157.054 581.292L157.666 580.501ZM150.588 576.746C149.514 576.404 148.404 576.153 147.281 575.999L147.146 576.99C148.211 577.136 149.265 577.375 150.285 577.699L150.588 576.746ZM140.523 576.346C139.422 576.629 138.35 577.033 137.333 577.567L137.798 578.453C138.743 577.956 139.741 577.579 140.773 577.314L140.523 576.346ZM137.333 577.567C136.322 578.098 135.38 578.766 134.536 579.539L135.211 580.276C135.994 579.559 136.866 578.942 137.798 578.453L137.333 577.567ZM130.873 585.259C130.538 586.358 130.367 587.506 130.393 588.673L131.393 588.651C131.369 587.597 131.524 586.554 131.829 585.55L130.873 585.259ZM130.393 588.673C130.416 589.695 130.575 590.677 130.835 591.627L131.799 591.363C131.559 590.482 131.413 589.582 131.393 588.651L130.393 588.673ZM133.271 596.959C133.764 597.783 134.287 598.597 134.805 599.405L135.646 598.865C135.127 598.055 134.613 597.253 134.128 596.445L133.271 596.959ZM134.805 599.405C135.021 599.742 135.236 600.077 135.449 600.413L136.294 599.878C136.079 599.539 135.862 599.201 135.646 598.865L134.805 599.405ZM136.686 602.443C136.884 602.787 137.074 603.131 137.256 603.477L138.141 603.012C137.953 602.653 137.756 602.297 137.553 601.945L136.686 602.443ZM137.256 603.477C137.934 604.771 138.494 606.109 138.963 607.481L139.91 607.157C139.425 605.743 138.847 604.357 138.141 603.012L137.256 603.477ZM140.942 616.026C141.17 617.476 141.369 618.937 141.569 620.405L142.56 620.27C142.36 618.804 142.16 617.332 141.93 615.87L140.942 616.026ZM141.569 620.405C141.661 621.08 141.753 621.757 141.848 622.433L142.839 622.294C142.744 621.62 142.652 620.946 142.56 620.27L141.569 620.405ZM142.48 626.493C142.6 627.17 142.729 627.845 142.87 628.517L143.849 628.312C143.71 627.651 143.583 626.987 143.465 626.319L142.48 626.493ZM142.87 628.517C143.228 630.227 143.673 631.915 144.198 633.576L145.152 633.274C144.636 631.644 144.2 629.989 143.849 628.312L142.87 628.517ZM148.286 643.187C149.944 646.25 151.884 649.162 154.067 651.882L154.847 651.256C152.701 648.582 150.794 645.72 149.166 642.711L148.286 643.187ZM161.294 659.416C163.92 661.71 166.75 663.77 169.741 665.554L170.253 664.695C167.314 662.943 164.534 660.918 161.952 658.663L161.294 659.416ZM179.174 670.038C180.811 670.632 182.479 671.146 184.173 671.575L184.419 670.606C182.758 670.185 181.122 669.681 179.515 669.098L179.174 670.038ZM184.173 671.575C186.785 672.237 189.476 672.698 192.185 672.925L192.269 671.928C189.616 671.706 186.98 671.255 184.419 670.606L184.173 671.575ZM208.289 671.211C210.871 670.361 213.349 669.206 215.658 667.712L215.115 666.872C212.882 668.316 210.483 669.436 207.977 670.261L208.289 671.211ZM215.658 667.712C215.816 667.61 215.972 667.506 216.128 667.401L215.567 666.573C215.417 666.675 215.267 666.774 215.115 666.872L215.658 667.712ZM217.046 666.749C217.197 666.637 217.346 666.524 217.494 666.408L216.881 665.618C216.738 665.729 216.595 665.839 216.45 665.946L217.046 666.749ZM216.722 666.195C217.097 667.156 217.503 668.103 217.941 669.034L218.846 668.609C218.418 667.698 218.021 666.772 217.653 665.831L216.722 666.195ZM220.979 674.419C221.552 675.272 222.161 676.106 222.809 676.917L223.59 676.293C222.96 675.504 222.367 674.693 221.809 673.862L220.979 674.419ZM222.809 676.917C224.339 678.834 226.019 680.557 227.824 682.107L228.476 681.349C226.716 679.837 225.08 678.159 223.59 676.293L222.809 676.917ZM240.092 689.578C244.42 691.43 249.042 692.798 253.781 693.85L253.998 692.874C249.302 691.831 244.742 690.48 240.485 688.659L240.092 689.578ZM267.898 696.195C270.283 696.491 272.657 696.75 274.997 696.992L275.1 695.998C272.763 695.756 270.397 695.498 268.021 695.203L267.898 696.195ZM274.997 696.992C277.659 697.268 280.473 697.476 283.293 697.498L283.301 696.498C280.523 696.476 277.742 696.271 275.1 695.998L274.997 696.992ZM299.575 694.207C302.019 692.831 304.11 690.932 305.645 688.359L304.787 687.847C303.35 690.254 301.393 692.035 299.084 693.336L299.575 694.207ZM305.645 688.359C306.005 687.756 305.878 687.066 305.569 686.432C305.258 685.793 304.713 685.097 304.026 684.372L303.3 685.06C303.962 685.759 304.426 686.367 304.67 686.87C304.918 687.378 304.892 687.67 304.787 687.847L305.645 688.359ZM297.961 679.199C296.936 678.411 295.871 677.609 294.81 676.809L294.208 677.608C295.271 678.408 296.331 679.207 297.351 679.991L297.961 679.199ZM294.81 676.809C293.79 676.04 292.772 675.274 291.792 674.522L291.183 675.315C292.168 676.071 293.189 676.84 294.208 677.608L294.81 676.809ZM286.048 669.686C285.432 669.062 284.96 668.502 284.653 668.014C284.338 667.515 284.239 667.159 284.26 666.925L283.264 666.837C283.214 667.399 283.453 667.986 283.807 668.548C284.169 669.122 284.697 669.741 285.336 670.388L286.048 669.686ZM284.26 666.925C284.519 663.997 285.165 661.201 286.102 658.501L285.157 658.173C284.197 660.941 283.531 663.818 283.264 666.837L284.26 666.925ZM294.388 643.267C296.047 640.893 297.796 638.55 299.55 636.199L298.748 635.601C296.996 637.95 295.238 640.306 293.569 642.694L294.388 643.267ZM299.55 636.199C301.303 633.85 303.061 631.494 304.73 629.106L303.91 628.533C302.251 630.907 300.503 633.25 298.748 635.601L299.55 636.199ZM313.141 613.627C314.102 610.859 314.767 607.982 315.035 604.963L314.039 604.875C313.779 607.803 313.133 610.599 312.196 613.299L313.141 613.627ZM314.046 605.017C314.538 607.482 314.86 609.962 315.055 612.455L316.051 612.377C315.855 609.851 315.528 607.331 315.027 604.821L314.046 605.017ZM315.027 627.516C314.881 630.025 314.694 632.539 314.505 635.06L315.503 635.134C315.691 632.615 315.879 630.092 316.025 627.574L315.027 627.516ZM314.505 635.06C314.382 636.708 314.259 638.359 314.148 640.01L315.145 640.078C315.257 638.43 315.38 636.783 315.503 635.134L314.505 635.06ZM313.712 649.948C313.694 651.61 313.712 653.272 313.778 654.933L314.777 654.893C314.712 653.252 314.694 651.607 314.712 649.959L313.712 649.948ZM313.778 654.933C313.86 656.998 314.056 659.095 314.368 661.192L315.357 661.045C315.051 658.983 314.857 656.922 314.777 654.893L313.778 654.933ZM317.566 673.339C319.13 677.338 321.182 681.084 323.733 684.3L324.516 683.679C322.037 680.553 320.032 676.897 318.497 672.975L317.566 673.339ZM333.417 692.345C335.28 693.273 337.278 693.982 339.411 694.432L339.618 693.454C337.57 693.021 335.652 692.341 333.863 691.45L333.417 692.345ZM339.411 694.432C340.691 694.702 342.011 694.859 343.335 694.889L343.357 693.889C342.097 693.861 340.838 693.711 339.618 693.454L339.411 694.432ZM351.074 693.38C352.28 692.82 353.408 692.093 354.414 691.183L353.743 690.441C352.817 691.279 351.775 691.952 350.653 692.474L351.074 693.38ZM354.414 691.183C355.406 690.285 356.221 689.194 356.833 688.002L355.943 687.545C355.382 688.639 354.639 689.631 353.743 690.441L354.414 691.183ZM357.848 680.201C357.519 678.897 356.91 677.667 355.987 676.619L355.237 677.279C356.046 678.198 356.585 679.281 356.878 680.445L357.848 680.201ZM355.255 677.299C356.169 678.232 357.238 678.991 358.398 679.566L358.842 678.67C357.777 678.142 356.8 677.448 355.969 676.599L355.255 677.299ZM365.943 680.753C367.223 680.561 368.474 680.168 369.63 679.56L369.165 678.675C368.114 679.227 366.972 679.588 365.796 679.764L365.943 680.753ZM369.63 679.56C370.787 678.952 371.821 678.145 372.704 677.199L371.973 676.517C371.161 677.386 370.217 678.122 369.165 678.675L369.63 679.56ZM376.005 670.311C376.189 669.03 376.17 667.719 375.92 666.437L374.938 666.628C375.166 667.794 375.184 668.992 375.015 670.169L376.005 670.311ZM375.92 666.437C375.762 665.628 375.526 664.851 375.234 664.099L374.302 664.461C374.575 665.165 374.793 665.886 374.938 666.628L375.92 666.437ZM372.994 659.862C372.569 659.196 372.128 658.539 371.692 657.89L370.862 658.448C371.299 659.099 371.734 659.746 372.151 660.4L372.994 659.862ZM371.692 657.89C371.618 657.78 371.544 657.67 371.47 657.56L370.64 658.117C370.714 658.227 370.788 658.338 370.862 658.448L371.692 657.89ZM371.029 656.9C370.956 656.789 370.884 656.679 370.811 656.569L369.975 657.118C370.048 657.229 370.122 657.341 370.196 657.452L371.029 656.9ZM370.811 656.569C369.461 654.51 368.235 652.373 367.136 650.173L366.241 650.62C367.358 652.854 368.603 655.025 369.975 657.118L370.811 656.569ZM362.077 636.331C360.91 631.548 360.266 626.635 360.161 621.714L359.161 621.735C359.268 626.73 359.921 631.715 361.106 636.568L362.077 636.331ZM361.479 607.036C361.974 604.626 362.607 602.245 363.381 599.908L362.432 599.593C361.645 601.969 361.002 604.387 360.5 606.834L361.479 607.036ZM363.381 599.908C364.018 597.984 364.74 596.098 365.537 594.245L364.618 593.85C363.811 595.728 363.079 597.64 362.432 599.593L363.381 599.908ZM371.126 583.481C373.208 580.036 375.497 576.685 377.911 573.39L377.104 572.799C374.678 576.111 372.371 579.487 370.27 582.963L371.126 583.481ZM385.355 563.743C386.625 562.156 387.904 560.575 389.184 558.993L388.406 558.364C387.127 559.945 385.846 561.529 384.574 563.118L385.355 563.743ZM389.184 558.993C390.665 557.162 392.147 555.33 393.612 553.493L392.83 552.869C391.368 554.703 389.888 556.532 388.406 558.364L389.184 558.993ZM402.159 542.224C404.909 538.326 407.456 534.339 409.659 530.204L408.776 529.734C406.598 533.823 404.075 537.774 401.342 541.648L402.159 542.224ZM415.146 517.117C415.827 514.867 416.386 512.564 416.805 510.201L415.821 510.026C415.408 512.348 414.859 514.613 414.189 516.828L415.146 517.117ZM416.805 510.201C417.269 507.59 417.552 504.946 417.701 502.282L416.703 502.226C416.556 504.857 416.276 507.46 415.821 510.026L416.805 510.201ZM417.375 486.404C417.181 483.771 416.945 481.135 416.71 478.511L415.714 478.6C415.949 481.225 416.184 483.853 416.378 486.478L417.375 486.404ZM416.71 478.511C416.537 476.574 416.364 474.644 416.208 472.722L415.211 472.803C415.367 474.73 415.541 476.664 415.714 478.6L416.71 478.511ZM415.614 461.147C415.579 457.22 415.771 453.371 416.342 449.634L415.353 449.483C414.772 453.287 414.579 457.192 414.614 461.156L415.614 461.147ZM419.43 438.59C420.178 436.859 421.059 435.165 422.091 433.51L421.243 432.981C420.183 434.679 419.279 436.418 418.512 438.193L419.43 438.59ZM422.091 433.51C423.115 431.87 424.259 430.329 425.495 428.86L424.73 428.216C423.468 429.716 422.295 431.295 421.243 432.981L422.091 433.51ZM433.76 420.745C435.228 419.484 436.726 418.247 438.229 417.005L437.593 416.234C436.09 417.475 434.585 418.718 433.108 419.987L433.76 420.745ZM438.229 417.005C438.993 416.374 439.758 415.742 440.52 415.106L439.879 414.338C439.12 414.972 438.357 415.602 437.593 416.234L438.229 417.005ZM445.035 411.208C445.775 410.539 446.504 409.859 447.218 409.164L446.521 408.447C445.816 409.132 445.096 409.804 444.364 410.467L445.035 411.208ZM447.218 409.164C449.291 407.148 451.255 404.871 452.97 402.422L452.151 401.849C450.474 404.243 448.552 406.473 446.521 408.447L447.218 409.164ZM459.176 385.942C459.289 382.971 458.793 380.008 457.515 377.167L456.603 377.577C457.812 380.265 458.284 383.073 458.176 385.904L459.176 385.942ZM457.059 376.872L451.678 376.866L451.677 377.866L457.058 377.872L457.059 376.872ZM440.915 376.854L430.152 376.842L430.151 377.842L440.914 377.854L440.915 376.854ZM419.389 376.831L414.007 376.825L414.006 377.825L419.388 377.831L419.389 376.831ZM413.986 376.825L413.804 376.833L413.845 377.832L414.027 377.824L413.986 376.825ZM413.441 376.848L413.259 376.855L413.3 377.854L413.482 377.847L413.441 376.848ZM413.279 377.355L412.43 377.882L412.737 378.378L413.32 378.354L413.279 377.355ZM372.795 367.597L372.39 366.683L372.795 367.597ZM414.007 377.325L414.008 376.325L413.987 376.325L413.966 376.326L414.007 377.325ZM457.059 377.372L457.971 376.962L457.706 376.373L457.06 376.372L457.059 377.372ZM446.869 408.806L446.172 408.089H446.172L446.869 408.806ZM437.911 416.619L437.274 415.848L437.911 416.619ZM421.667 433.245L420.819 432.716L421.667 433.245ZM416.212 478.555L417.208 478.466L416.212 478.555ZM416.313 510.113L417.298 510.288L416.313 510.113ZM388.795 558.679L388.018 558.05L388.795 558.679ZM362.907 599.751L363.856 600.065L362.907 599.751ZM370.393 656.843L371.23 656.295H371.229L370.393 656.843ZM371.277 658.169L370.447 658.727L371.277 658.169ZM375.429 666.533L374.448 666.724L375.429 666.533ZM355.612 676.949L356.327 676.249L354.861 677.609L355.612 676.949ZM339.515 693.943L339.721 692.964L339.515 693.943ZM314.278 654.913L315.277 654.874L314.278 654.913ZM315.004 635.097L316.001 635.171L315.004 635.097ZM314.537 604.919L315.517 604.723L313.541 604.831L314.537 604.919ZM299.149 635.9L298.348 635.302L299.149 635.9ZM283.762 666.881L284.758 666.969L283.762 666.881ZM294.509 677.208L293.907 678.007L294.509 677.208ZM305.216 688.103L306.075 688.615L305.216 688.103ZM275.048 696.495L274.945 697.49L275.048 696.495ZM223.199 676.605L223.981 675.981L223.199 676.605ZM217.188 666.013L218.119 665.65L217.632 664.403L216.574 665.224L217.188 666.013ZM215.387 667.292L215.93 668.132H215.93L215.387 667.292ZM184.296 671.091L184.542 670.121L184.296 671.091ZM143.359 628.414L144.338 628.209L143.359 628.414ZM142.065 620.337L143.056 620.203L142.065 620.337ZM137.698 603.244L136.813 603.709H136.813L137.698 603.244ZM135.226 599.135L136.067 598.595H136.067L135.226 599.135ZM130.893 588.662L129.893 588.684L130.893 588.662ZM137.566 578.01L137.101 577.125L137.566 578.01ZM150.437 577.222L150.739 576.269H150.739L150.437 577.222ZM169.803 600.583L168.85 600.886L169.803 600.583ZM172.768 611.771L171.796 612.003L172.768 611.771ZM178.818 630.765L179.715 630.324L178.818 630.765ZM203.454 647.01L203.317 646.02H203.317L203.454 647.01ZM212.973 643.646L213.415 644.543L214.003 644.253L213.971 643.599L212.973 643.646ZM212.859 640.265L211.859 640.286L212.859 640.265ZM240.981 545.474L241.808 546.037L240.981 545.474ZM278.582 502.094L277.866 501.396L278.582 502.094ZM325.578 442.512L324.681 442.071L325.578 442.512ZM334.584 420.761L333.648 420.409L334.584 420.761ZM342.867 400.504L343.77 400.933V400.933L342.867 400.504ZM410.474 372.236C410.083 371.846 409.45 371.848 409.06 372.239C408.67 372.63 408.672 373.264 409.063 373.653L410.474 372.236ZM399.963 367.813C400.477 368.015 401.058 367.762 401.26 367.248C401.462 366.734 401.209 366.153 400.695 365.951L399.963 367.813ZM389.366 363.582C388.815 363.555 388.346 363.982 388.32 364.533C388.294 365.085 388.72 365.553 389.272 365.579L389.366 363.582ZM378.376 366.709C378.911 366.57 379.231 366.024 379.091 365.489C378.952 364.955 378.406 364.635 377.871 364.774L378.376 366.709ZM367.249 369.377C366.777 369.664 366.628 370.28 366.915 370.751C367.202 371.223 367.817 371.373 368.289 371.086L367.249 369.377ZM359.538 377.928C359.934 377.543 359.943 376.91 359.558 376.514C359.173 376.118 358.54 376.109 358.144 376.494L359.538 377.928ZM350.647 385.234C350.323 385.681 350.423 386.306 350.87 386.63C351.317 386.954 351.942 386.854 352.266 386.407L350.647 385.234ZM346.317 395.919C346.58 395.433 346.4 394.826 345.915 394.563C345.429 394.3 344.822 394.48 344.559 394.965L346.317 395.919ZM339.693 405.094C339.474 405.601 339.708 406.189 340.215 406.408C340.722 406.627 341.311 406.393 341.529 405.886L339.693 405.094ZM337.456 416C337.653 415.484 337.395 414.906 336.879 414.709C336.364 414.512 335.785 414.77 335.588 415.285L337.456 416ZM331.564 425.909C331.366 426.425 331.624 427.003 332.139 427.201C332.655 427.399 333.233 427.141 333.431 426.625L331.564 425.909ZM328.975 437.576C329.197 437.071 328.968 436.481 328.462 436.258C327.957 436.036 327.367 436.265 327.144 436.77L328.975 437.576ZM321.757 447.653C321.488 448.136 321.662 448.744 322.145 449.013C322.628 449.281 323.236 449.107 323.505 448.625L321.757 447.653ZM316.79 459.507C317.1 459.05 316.981 458.428 316.523 458.118C316.066 457.808 315.444 457.928 315.135 458.385L316.79 459.507ZM307.668 468.571C307.326 469.006 307.401 469.634 307.835 469.976C308.27 470.317 308.898 470.242 309.24 469.808L307.668 468.571ZM301.081 479.611C301.444 479.196 301.402 478.564 300.987 478.2C300.571 477.837 299.939 477.879 299.576 478.294L301.081 479.611ZM291.058 487.673C290.68 488.076 290.701 488.708 291.104 489.086C291.507 489.464 292.14 489.443 292.517 489.04L291.058 487.673ZM283.728 498.235C284.112 497.839 284.102 497.206 283.706 496.821C283.309 496.437 282.676 496.447 282.292 496.843L283.728 498.235ZM272.856 506.551C272.472 506.948 272.482 507.581 272.879 507.965C273.275 508.35 273.909 508.339 274.293 507.943L272.856 506.551ZM264.403 518.34C264.779 517.935 264.755 517.303 264.35 516.927C263.945 516.551 263.312 516.575 262.937 516.98L264.403 518.34ZM253.346 527.74C252.988 528.161 253.04 528.792 253.46 529.15C253.881 529.507 254.512 529.456 254.87 529.035L253.346 527.74ZM245.949 540.216C246.279 539.772 246.186 539.146 245.743 538.817C245.299 538.488 244.673 538.58 244.344 539.024L245.949 540.216ZM236.705 550.204C236.413 550.673 236.556 551.29 237.024 551.582C237.493 551.874 238.11 551.732 238.402 551.263L236.705 550.204ZM232.219 562.097C232.474 561.607 232.283 561.003 231.794 560.749C231.304 560.494 230.7 560.684 230.445 561.174L232.219 562.097ZM225.053 572.595C224.837 573.103 225.073 573.69 225.581 573.907C226.089 574.123 226.677 573.887 226.893 573.379L225.053 572.595ZM222.446 585.035C222.623 584.512 222.342 583.944 221.819 583.767C221.296 583.59 220.728 583.871 220.551 584.394L222.446 585.035ZM216.959 596.501C216.823 597.036 217.145 597.581 217.68 597.718C218.215 597.854 218.76 597.532 218.897 596.996L216.959 596.501ZM216.268 609.193C216.364 608.649 216.001 608.13 215.457 608.035C214.913 607.939 214.394 608.302 214.298 608.846L216.268 609.193ZM212.59 621.359C212.536 621.909 212.938 622.398 213.488 622.452C214.038 622.505 214.527 622.103 214.58 621.553L212.59 621.359ZM213.854 634.007C213.865 633.454 213.426 632.998 212.874 632.988C212.322 632.977 211.865 633.416 211.855 633.969L213.854 634.007ZM211.879 641.137C211.894 641.689 212.354 642.125 212.906 642.11C213.458 642.095 213.894 641.636 213.879 641.084L211.879 641.137ZM213.935 642.761C213.913 642.209 213.447 641.78 212.895 641.802C212.344 641.824 211.914 642.289 211.936 642.841L213.935 642.761ZM210.271 643.823C209.768 644.05 209.544 644.642 209.772 645.146C209.999 645.649 210.591 645.873 211.095 645.645L210.271 643.823ZM206.197 647.462C206.73 647.317 207.045 646.768 206.9 646.235C206.755 645.702 206.206 645.387 205.673 645.532L206.197 647.462ZM195.974 645.397C195.446 645.236 194.887 645.534 194.726 646.062C194.565 646.59 194.863 647.149 195.391 647.31L195.974 645.397ZM182.281 637.997C182.631 638.425 183.261 638.489 183.688 638.14C184.116 637.79 184.18 637.16 183.831 636.733L182.281 637.997ZM177.784 625.826C177.59 625.309 177.013 625.047 176.496 625.241C175.979 625.435 175.717 626.012 175.911 626.529L177.784 625.826ZM172.982 616.869C173.118 617.404 173.662 617.728 174.197 617.592C174.733 617.456 175.057 616.912 174.921 616.377L172.982 616.869ZM173.062 608.72C172.931 608.183 172.39 607.854 171.854 607.985C171.317 608.116 170.988 608.657 171.119 609.194L173.062 608.72ZM169.672 603.627C169.822 604.159 170.375 604.468 170.906 604.317C171.437 604.167 171.746 603.614 171.596 603.083L169.672 603.627ZM167.796 592.829C167.555 592.333 166.956 592.126 166.46 592.368C165.963 592.61 165.756 593.208 165.998 593.705L167.796 592.829ZM156.748 581.688C157.185 582.026 157.813 581.945 158.151 581.509C158.489 581.072 158.409 580.444 157.972 580.106L156.748 581.688ZM147.349 575.504C146.802 575.429 146.298 575.812 146.223 576.36C146.148 576.907 146.531 577.411 147.079 577.486L147.349 575.504ZM140.897 577.798C141.432 577.66 141.754 577.115 141.616 576.58C141.479 576.045 140.933 575.724 140.398 575.861L140.897 577.798ZM134.198 579.171C133.791 579.544 133.763 580.176 134.136 580.583C134.509 580.991 135.142 581.018 135.549 580.645L134.198 579.171ZM132.308 585.696C132.468 585.167 132.17 584.609 131.642 584.448C131.114 584.287 130.555 584.585 130.394 585.114L132.308 585.696ZM130.353 591.759C130.498 592.291 131.048 592.605 131.581 592.46C132.114 592.314 132.427 591.764 132.282 591.231L130.353 591.759ZM134.557 596.188C134.274 595.714 133.659 595.56 133.186 595.844C132.712 596.128 132.558 596.742 132.842 597.216L134.557 596.188ZM135.027 600.681C135.323 601.148 135.941 601.286 136.407 600.99C136.873 600.694 137.012 600.077 136.716 599.61L135.027 600.681ZM137.986 601.695C137.711 601.216 137.1 601.052 136.621 601.327C136.142 601.602 135.977 602.214 136.253 602.693L137.986 601.695ZM138.49 607.643C138.669 608.165 139.238 608.444 139.76 608.265C140.283 608.086 140.562 607.518 140.383 606.995L138.49 607.643ZM142.424 615.792C142.338 615.247 141.826 614.874 141.281 614.96C140.735 615.046 140.362 615.558 140.448 616.103L142.424 615.792ZM141.353 622.503C141.43 623.05 141.936 623.431 142.483 623.354C143.03 623.277 143.411 622.771 143.334 622.225L141.353 622.503ZM143.958 626.231C143.861 625.688 143.342 625.325 142.799 625.421C142.255 625.517 141.892 626.036 141.988 626.58L143.958 626.231ZM143.721 633.727C143.888 634.253 144.45 634.545 144.976 634.379C145.503 634.212 145.795 633.65 145.628 633.124L143.721 633.727ZM149.605 642.473C149.342 641.987 148.736 641.807 148.25 642.07C147.764 642.332 147.583 642.939 147.846 643.425L149.605 642.473ZM153.677 652.195C154.022 652.626 154.652 652.695 155.082 652.349C155.513 652.003 155.582 651.374 155.237 650.943L153.677 652.195ZM162.28 658.287C161.864 657.923 161.233 657.966 160.869 658.382C160.506 658.798 160.549 659.43 160.965 659.793L162.28 658.287ZM169.485 665.983C169.959 666.266 170.573 666.111 170.856 665.636C171.139 665.162 170.983 664.548 170.509 664.265L169.485 665.983ZM179.685 668.628C179.166 668.44 178.592 668.708 178.404 669.227C178.216 669.746 178.484 670.32 179.003 670.508L179.685 668.628ZM192.143 673.423C192.694 673.469 193.177 673.061 193.223 672.51C193.269 671.96 192.861 671.476 192.31 671.43L192.143 673.423ZM207.82 669.786C207.296 669.959 207.01 670.524 207.183 671.049C207.356 671.573 207.921 671.859 208.446 671.686L207.82 669.786ZM216.408 667.815C216.866 667.505 216.985 666.883 216.675 666.426C216.365 665.969 215.743 665.849 215.286 666.159L216.408 667.815ZM216.151 665.545C215.708 665.874 215.616 666.5 215.945 666.944C216.274 667.387 216.901 667.48 217.344 667.15L216.151 665.545ZM217.488 669.247C217.723 669.747 218.319 669.961 218.819 669.726C219.319 669.491 219.533 668.896 219.298 668.396L217.488 669.247ZM222.224 673.583C221.916 673.124 221.295 673.002 220.837 673.31C220.378 673.618 220.256 674.239 220.564 674.698L222.224 673.583ZM227.499 682.487C227.917 682.846 228.549 682.798 228.909 682.379C229.269 681.961 229.221 681.329 228.802 680.969L227.499 682.487ZM240.682 688.199C240.174 687.982 239.587 688.217 239.369 688.725C239.152 689.233 239.388 689.82 239.895 690.038L240.682 688.199ZM253.673 694.338C254.212 694.458 254.746 694.118 254.866 693.579C254.985 693.04 254.645 692.505 254.106 692.386L253.673 694.338ZM268.082 694.707C267.534 694.639 267.035 695.028 266.967 695.576C266.899 696.124 267.288 696.624 267.836 696.692L268.082 694.707ZM283.289 697.998C283.841 698.002 284.292 697.558 284.297 697.006C284.301 696.454 283.857 696.002 283.305 695.998L283.289 697.998ZM298.839 692.9C298.357 693.171 298.187 693.781 298.458 694.262C298.729 694.743 299.339 694.914 299.82 694.643L298.839 692.9ZM304.389 684.028C304.009 683.627 303.376 683.61 302.975 683.99C302.574 684.37 302.557 685.003 302.937 685.404L304.389 684.028ZM297.047 680.388C297.484 680.724 298.112 680.643 298.449 680.205C298.786 679.767 298.704 679.139 298.266 678.802L297.047 680.388ZM292.097 674.125C291.659 673.789 291.031 673.871 290.695 674.309C290.358 674.747 290.441 675.375 290.879 675.711L292.097 674.125ZM284.98 670.739C285.368 671.132 286.001 671.137 286.394 670.749C286.787 670.361 286.792 669.727 286.404 669.334L284.98 670.739ZM286.575 658.665C286.756 658.143 286.479 657.573 285.958 657.392C285.436 657.211 284.866 657.487 284.685 658.009L286.575 658.665ZM293.159 642.408C292.842 642.86 292.953 643.484 293.406 643.8C293.858 644.117 294.482 644.006 294.798 643.553L293.159 642.408ZM305.14 629.392C305.456 628.94 305.345 628.316 304.893 628C304.44 627.683 303.817 627.794 303.5 628.247L305.14 629.392ZM311.724 613.135C311.543 613.657 311.819 614.227 312.341 614.408C312.862 614.589 313.432 614.313 313.613 613.791L311.724 613.135ZM314.556 612.494C314.599 613.044 315.08 613.456 315.631 613.413C316.181 613.37 316.593 612.889 316.55 612.338L314.556 612.494ZM316.524 627.603C316.556 627.051 316.135 626.578 315.584 626.546C315.033 626.514 314.56 626.935 314.528 627.487L316.524 627.603ZM313.649 639.977C313.612 640.528 314.028 641.005 314.579 641.042C315.13 641.079 315.607 640.663 315.644 640.112L313.649 639.977ZM315.212 649.964C315.218 649.412 314.775 648.96 314.222 648.954C313.67 648.948 313.218 649.391 313.212 649.943L315.212 649.964ZM313.874 661.266C313.955 661.812 314.464 662.189 315.01 662.108C315.556 662.027 315.933 661.518 315.852 660.972L313.874 661.266ZM318.963 672.793C318.762 672.278 318.182 672.025 317.667 672.226C317.153 672.427 316.899 673.007 317.1 673.521L318.963 672.793ZM323.341 684.611C323.685 685.043 324.314 685.116 324.746 684.773C325.179 684.43 325.251 683.801 324.908 683.368L323.341 684.611ZM334.085 691.003C333.591 690.757 332.991 690.958 332.744 691.452C332.498 691.946 332.699 692.547 333.194 692.793L334.085 691.003ZM343.324 695.388C343.876 695.401 344.333 694.963 344.346 694.411C344.358 693.859 343.92 693.401 343.368 693.389L343.324 695.388ZM350.442 692.02C349.941 692.253 349.724 692.848 349.957 693.349C350.189 693.849 350.784 694.067 351.285 693.834L350.442 692.02ZM357.278 688.23C357.53 687.739 357.336 687.136 356.845 686.884C356.353 686.632 355.751 686.826 355.498 687.317L357.278 688.23ZM356.393 680.568C356.528 681.103 357.072 681.428 357.607 681.293C358.143 681.158 358.467 680.614 358.332 680.079L356.393 680.568ZM358.176 680.014C358.67 680.259 359.27 680.057 359.516 679.562C359.761 679.068 359.559 678.467 359.064 678.222L358.176 680.014ZM365.722 679.269C365.175 679.351 364.799 679.86 364.88 680.406C364.962 680.952 365.471 681.329 366.017 681.247L365.722 679.269ZM373.069 677.541C373.446 677.137 373.425 676.504 373.021 676.127C372.617 675.75 371.985 675.772 371.608 676.175L373.069 677.541ZM374.52 670.098C374.442 670.645 374.821 671.151 375.368 671.23C375.915 671.308 376.422 670.929 376.5 670.382L374.52 670.098ZM375.7 663.918C375.501 663.403 374.921 663.148 374.406 663.347C373.891 663.547 373.636 664.127 373.836 664.641L375.7 663.918ZM371.73 660.669C372.027 661.134 372.645 661.271 373.111 660.974C373.576 660.677 373.713 660.059 373.416 659.593L371.73 660.669ZM371.885 657.281C371.578 656.823 370.957 656.7 370.498 657.008C370.039 657.316 369.917 657.937 370.225 658.396L371.885 657.281ZM369.779 657.728C370.084 658.189 370.705 658.315 371.165 658.009C371.626 657.704 371.751 657.084 371.446 656.623L369.779 657.728ZM367.583 649.949C367.336 649.455 366.736 649.255 366.242 649.502C365.748 649.748 365.547 650.349 365.794 650.843L367.583 649.949ZM360.62 636.686C360.751 637.223 361.292 637.552 361.829 637.421C362.365 637.29 362.694 636.749 362.563 636.212L360.62 636.686ZM360.661 621.703C360.649 621.151 360.192 620.713 359.639 620.725C359.087 620.737 358.649 621.194 358.661 621.746L360.661 621.703ZM360.01 606.734C359.899 607.275 360.247 607.803 360.788 607.915C361.329 608.026 361.858 607.677 361.969 607.136L360.01 606.734ZM365.996 594.442C366.214 593.935 365.979 593.347 365.472 593.129C364.965 592.911 364.376 593.145 364.158 593.653L365.996 594.442ZM369.842 582.705C369.556 583.177 369.708 583.792 370.181 584.078C370.653 584.363 371.268 584.212 371.554 583.739L369.842 582.705ZM378.314 573.686C378.641 573.24 378.544 572.615 378.098 572.288C377.653 571.962 377.027 572.058 376.701 572.504L378.314 573.686ZM384.184 562.806C383.839 563.237 383.909 563.867 384.34 564.212C384.771 564.557 385.4 564.487 385.745 564.056L384.184 562.806ZM394.003 553.804C394.347 553.372 394.276 552.743 393.844 552.399C393.413 552.055 392.783 552.126 392.439 552.558L394.003 553.804ZM400.933 541.36C400.615 541.811 400.722 542.435 401.174 542.753C401.625 543.072 402.249 542.964 402.567 542.513L400.933 541.36ZM410.1 530.439C410.36 529.951 410.175 529.346 409.688 529.086C409.2 528.826 408.595 529.011 408.335 529.499L410.1 530.439ZM413.71 516.683C413.55 517.211 413.849 517.77 414.378 517.93C414.906 518.089 415.465 517.791 415.624 517.262L413.71 516.683ZM418.2 502.31C418.231 501.759 417.809 501.287 417.258 501.256C416.706 501.225 416.234 501.647 416.203 502.198L418.2 502.31ZM415.879 486.515C415.92 487.065 416.4 487.479 416.95 487.438C417.501 487.398 417.915 486.918 417.874 486.367L415.879 486.515ZM416.707 472.682C416.662 472.131 416.18 471.721 415.629 471.766C415.079 471.81 414.668 472.293 414.713 472.843L416.707 472.682ZM414.114 461.16C414.119 461.712 414.57 462.156 415.122 462.151C415.675 462.146 416.119 461.695 416.114 461.143L414.114 461.16ZM416.836 449.71C416.919 449.164 416.544 448.654 415.998 448.57C415.452 448.487 414.942 448.862 414.859 449.408L416.836 449.71ZM418.053 437.994C417.834 438.501 418.067 439.09 418.574 439.309C419.081 439.528 419.67 439.295 419.889 438.788L418.053 437.994ZM425.877 429.182C426.233 428.76 426.179 428.129 425.756 427.773C425.334 427.418 424.703 427.472 424.347 427.894L425.877 429.182ZM432.782 419.607C432.363 419.967 432.316 420.599 432.676 421.018C433.035 421.437 433.667 421.484 434.086 421.124L432.782 419.607ZM440.84 415.49C441.264 415.136 441.321 414.506 440.968 414.081C440.614 413.657 439.983 413.601 439.559 413.954L440.84 415.49ZM444.029 410.096C443.619 410.467 443.588 411.099 443.958 411.509C444.329 411.918 444.961 411.95 445.371 411.579L444.029 410.096ZM453.379 402.709C453.696 402.257 453.586 401.633 453.134 401.317C452.681 401 452.058 401.11 451.741 401.562L453.379 402.709ZM457.677 385.884C457.656 386.436 458.086 386.901 458.638 386.922C459.19 386.943 459.654 386.513 459.675 385.961L457.677 385.884ZM451.678 376.366C451.126 376.365 450.678 376.813 450.677 377.365C450.676 377.917 451.124 378.365 451.676 378.366L451.678 376.366ZM440.913 378.354C441.465 378.355 441.913 377.908 441.914 377.355C441.915 376.803 441.467 376.355 440.915 376.354L440.913 378.354ZM430.152 376.342C429.6 376.342 429.152 376.789 429.151 377.341C429.15 377.894 429.598 378.342 430.15 378.342L430.152 376.342ZM419.387 378.331C419.939 378.331 420.387 377.884 420.388 377.332C420.389 376.78 419.941 376.331 419.389 376.331L419.387 378.331ZM413.784 376.333C413.232 376.356 412.803 376.821 412.826 377.373C412.848 377.925 413.314 378.354 413.866 378.331L413.784 376.333ZM413.502 378.346C414.054 378.324 414.483 377.858 414.46 377.306C414.438 376.754 413.972 376.325 413.42 376.348L413.502 378.346ZM414.129 376.827C413.076 375.133 411.847 373.602 410.474 372.236L409.063 373.653C410.33 374.914 411.461 376.323 412.43 377.882L414.129 376.827ZM400.695 365.951C397.131 364.55 393.273 363.766 389.366 363.582L389.272 365.579C392.977 365.754 396.618 366.498 399.963 367.813L400.695 365.951ZM377.871 364.774C375.991 365.265 374.154 365.901 372.39 366.683L373.2 368.511C374.862 367.775 376.596 367.174 378.376 366.709L377.871 364.774ZM372.39 366.683C370.607 367.474 368.894 368.376 367.249 369.377L368.289 371.086C369.863 370.128 371.499 369.266 373.2 368.511L372.39 366.683ZM358.144 376.494C355.404 379.159 352.911 382.107 350.647 385.234L352.266 386.407C354.473 383.36 356.891 380.502 359.538 377.928L358.144 376.494ZM344.559 394.965C343.644 396.652 342.78 398.359 341.964 400.074L343.77 400.933C344.572 399.248 345.42 397.572 346.317 395.919L344.559 394.965ZM341.964 400.074C341.174 401.735 340.42 403.409 339.693 405.094L341.529 405.886C342.248 404.221 342.992 402.569 343.77 400.933L341.964 400.074ZM335.588 415.285C334.935 416.992 334.291 418.702 333.648 420.409L335.52 421.114C336.163 419.406 336.805 417.701 337.456 416L335.588 415.285ZM333.648 420.409C332.956 422.246 332.265 424.08 331.564 425.909L333.431 426.625C334.135 424.79 334.828 422.95 335.52 421.114L333.648 420.409ZM327.144 436.77C326.358 438.555 325.541 440.323 324.681 442.071L326.475 442.954C327.35 441.177 328.179 439.383 328.975 437.576L327.144 436.77ZM324.681 442.071C323.751 443.961 322.775 445.821 321.757 447.653L323.505 448.625C324.538 446.765 325.53 444.875 326.475 442.954L324.681 442.071ZM315.135 458.385C312.776 461.865 310.277 465.254 307.668 468.571L309.24 469.808C311.874 466.458 314.401 463.031 316.79 459.507L315.135 458.385ZM299.576 478.294C296.804 481.462 293.955 484.581 291.058 487.673L292.517 489.04C295.426 485.936 298.291 482.8 301.081 479.611L299.576 478.294ZM282.292 496.843C280.82 498.362 279.343 499.878 277.866 501.396L279.299 502.791C280.776 501.274 282.254 499.756 283.728 498.235L282.292 496.843ZM277.866 501.396C276.195 503.112 274.523 504.829 272.856 506.551L274.293 507.943C275.958 506.223 277.628 504.507 279.299 502.791L277.866 501.396ZM262.937 516.98C259.666 520.506 256.454 524.083 253.346 527.74L254.87 529.035C257.955 525.406 261.147 521.851 264.403 518.34L262.937 516.98ZM244.344 539.024C242.908 540.957 241.51 542.918 240.154 544.912L241.808 546.037C243.147 544.068 244.529 542.129 245.949 540.216L244.344 539.024ZM240.154 544.912C238.969 546.653 237.82 548.418 236.705 550.204L238.402 551.263C239.503 549.499 240.638 547.756 241.808 546.037L240.154 544.912ZM230.445 561.174C228.502 564.91 226.703 568.721 225.053 572.595L226.893 573.379C228.523 569.551 230.3 565.787 232.219 562.097L230.445 561.174ZM220.551 584.394C219.201 588.382 218.003 592.422 216.959 596.501L218.897 596.996C219.928 592.966 221.112 588.975 222.446 585.035L220.551 584.394ZM214.298 608.846C213.569 612.993 212.998 617.169 212.59 621.359L214.58 621.553C214.984 617.414 215.548 613.29 216.268 609.193L214.298 608.846ZM211.855 633.969C211.815 636.074 211.816 638.18 211.859 640.286L213.859 640.244C213.816 638.165 213.815 636.086 213.854 634.007L211.855 633.969ZM211.859 640.286C211.865 640.569 211.872 640.853 211.879 641.137L213.879 641.084C213.871 640.804 213.865 640.524 213.859 640.244L211.859 640.286ZM211.936 642.841C211.948 643.125 211.96 643.409 211.974 643.693L213.971 643.599C213.958 643.319 213.946 643.04 213.935 642.761L211.936 642.841ZM212.53 642.749C211.776 643.121 211.025 643.482 210.271 643.823L211.095 645.645C211.876 645.292 212.65 644.92 213.415 644.543L212.53 642.749ZM205.673 645.532C204.892 645.744 204.108 645.91 203.317 646.02L203.591 648.001C204.477 647.878 205.345 647.694 206.197 647.462L205.673 645.532ZM203.317 646.02C200.805 646.367 198.338 646.118 195.974 645.397L195.391 647.31C198.007 648.108 200.767 648.391 203.591 648.001L203.317 646.02ZM183.831 636.733C182.209 634.747 180.818 632.569 179.715 630.324L177.92 631.205C179.089 633.587 180.563 635.893 182.281 637.997L183.831 636.733ZM179.715 630.324C178.995 628.857 178.358 627.356 177.784 625.826L175.911 626.529C176.505 628.111 177.167 629.673 177.92 631.205L179.715 630.324ZM174.921 616.377C174.514 614.773 174.128 613.16 173.741 611.538L171.796 612.003C172.183 613.623 172.572 615.249 172.982 616.869L174.921 616.377ZM173.741 611.538C173.516 610.6 173.292 609.66 173.062 608.72L171.119 609.194C171.347 610.128 171.571 611.065 171.796 612.003L173.741 611.538ZM171.596 603.083C171.33 602.145 171.052 601.21 170.756 600.28L168.85 600.886C169.139 601.793 169.411 602.707 169.672 603.627L171.596 603.083ZM170.756 600.28C169.958 597.773 168.977 595.254 167.796 592.829L165.998 593.705C167.132 596.033 168.078 598.461 168.85 600.886L170.756 600.28ZM157.972 580.106C155.822 578.442 153.416 577.12 150.739 576.269L150.134 578.175C152.566 578.948 154.765 580.153 156.748 581.688L157.972 580.106ZM150.739 576.269C149.638 575.919 148.501 575.661 147.349 575.504L147.079 577.486C148.115 577.627 149.14 577.86 150.134 578.175L150.739 576.269ZM140.398 575.861C139.262 576.154 138.154 576.571 137.101 577.125L138.031 578.895C138.939 578.418 139.901 578.055 140.897 577.798L140.398 575.861ZM137.101 577.125C136.05 577.676 135.073 578.369 134.198 579.171L135.549 580.645C136.301 579.956 137.137 579.364 138.031 578.895L137.101 577.125ZM130.394 585.114C130.046 586.26 129.866 587.461 129.893 588.684L131.893 588.64C131.871 587.642 132.017 586.652 132.308 585.696L130.394 585.114ZM129.893 588.684C129.917 589.751 130.083 590.774 130.353 591.759L132.282 591.231C132.051 590.385 131.912 589.525 131.893 588.64L129.893 588.684ZM132.842 597.216C133.34 598.047 133.867 598.869 134.384 599.675L136.067 598.595C135.547 597.784 135.037 596.989 134.557 596.188L132.842 597.216ZM134.384 599.675C134.6 600.012 134.815 600.346 135.027 600.681L136.716 599.61C136.5 599.27 136.283 598.931 136.067 598.595L134.384 599.675ZM136.253 602.693C136.448 603.031 136.635 603.37 136.813 603.709L138.584 602.78C138.392 602.414 138.192 602.053 137.986 601.695L136.253 602.693ZM136.813 603.709C137.478 604.977 138.028 606.291 138.49 607.643L140.383 606.995C139.891 605.56 139.303 604.151 138.584 602.78L136.813 603.709ZM140.448 616.103C140.675 617.547 140.874 619.003 141.074 620.472L143.056 620.203C142.856 618.737 142.655 617.26 142.424 615.792L140.448 616.103ZM141.074 620.472C141.166 621.148 141.258 621.826 141.353 622.503L143.334 622.225C143.239 621.552 143.148 620.879 143.056 620.203L141.074 620.472ZM141.988 626.58C142.109 627.261 142.239 627.942 142.381 628.619L144.338 628.209C144.201 627.555 144.075 626.895 143.958 626.231L141.988 626.58ZM142.381 628.619C142.743 630.346 143.191 632.05 143.721 633.727L145.628 633.124C145.118 631.509 144.686 629.869 144.338 628.209L142.381 628.619ZM147.846 643.425C149.519 646.515 151.476 649.452 153.677 652.195L155.237 650.943C153.109 648.292 151.219 645.455 149.605 642.473L147.846 643.425ZM160.965 659.793C163.614 662.106 166.467 664.184 169.485 665.983L170.509 664.265C167.597 662.529 164.84 660.522 162.28 658.287L160.965 659.793ZM179.003 670.508C180.656 671.107 182.34 671.627 184.05 672.06L184.542 670.121C182.897 669.705 181.277 669.205 179.685 668.628L179.003 670.508ZM184.05 672.06C186.688 672.729 189.406 673.194 192.143 673.423L192.31 671.43C189.686 671.21 187.077 670.764 184.542 670.121L184.05 672.06ZM208.446 671.686C211.065 670.823 213.582 669.65 215.93 668.132L214.844 666.452C212.649 667.872 210.289 668.973 207.82 669.786L208.446 671.686ZM215.93 668.132C216.09 668.028 216.25 667.922 216.408 667.815L215.286 666.159C215.139 666.259 214.992 666.356 214.844 666.452L215.93 668.132ZM217.344 667.15C217.498 667.036 217.65 666.921 217.801 666.803L216.574 665.224C216.435 665.332 216.294 665.439 216.151 665.545L217.344 667.15ZM216.256 666.377C216.635 667.348 217.045 668.305 217.488 669.247L219.298 668.396C218.875 667.496 218.483 666.58 218.119 665.65L216.256 666.377ZM220.564 674.698C221.144 675.562 221.761 676.407 222.418 677.229L223.981 675.981C223.36 675.203 222.775 674.403 222.224 673.583L220.564 674.698ZM222.418 677.229C223.969 679.171 225.67 680.916 227.499 682.487L228.802 680.969C227.064 679.477 225.45 677.822 223.981 675.981L222.418 677.229ZM239.895 690.038C244.259 691.905 248.912 693.281 253.673 694.338L254.106 692.386C249.432 691.348 244.903 690.005 240.682 688.199L239.895 690.038ZM267.836 696.692C270.226 696.988 272.604 697.248 274.945 697.49L275.151 695.5C272.816 695.259 270.454 695.001 268.082 694.707L267.836 696.692ZM274.945 697.49C277.617 697.766 280.448 697.976 283.289 697.998L283.305 695.998C280.548 695.976 277.784 695.773 275.151 695.5L274.945 697.49ZM299.82 694.643C302.332 693.228 304.491 691.271 306.075 688.615L304.357 687.59C302.97 689.916 301.08 691.638 298.839 692.9L299.82 694.643ZM306.075 688.615C306.562 687.799 306.358 686.91 306.019 686.214C305.675 685.505 305.088 684.766 304.389 684.028L302.937 685.404C303.587 686.09 304.009 686.654 304.221 687.088C304.324 687.301 304.356 687.441 304.362 687.52C304.365 687.557 304.362 687.576 304.36 687.582C304.359 687.586 304.359 687.588 304.357 687.59L306.075 688.615ZM298.266 678.802C297.239 678.012 296.172 677.209 295.11 676.409L293.907 678.007C294.97 678.808 296.029 679.605 297.047 680.388L298.266 678.802ZM295.11 676.409C294.09 675.641 293.075 674.876 292.097 674.125L290.879 675.711C291.865 676.469 292.888 677.239 293.907 678.007L295.11 676.409ZM286.404 669.334C285.8 668.723 285.356 668.191 285.076 667.748C284.78 667.279 284.752 667.039 284.758 666.969L282.766 666.793C282.701 667.519 283.01 668.222 283.384 668.815C283.774 669.432 284.33 670.08 284.98 670.739L286.404 669.334ZM284.758 666.969C285.013 664.086 285.65 661.331 286.575 658.665L284.685 658.009C283.713 660.811 283.037 663.728 282.766 666.793L284.758 666.969ZM294.798 643.553C296.452 641.187 298.196 638.85 299.951 636.498L298.348 635.302C296.596 637.65 294.833 640.012 293.159 642.408L294.798 643.553ZM299.951 636.498C301.702 634.151 303.465 631.788 305.14 629.392L303.5 628.247C301.847 630.613 300.103 632.95 298.348 635.302L299.951 636.498ZM313.613 613.791C314.586 610.989 315.261 608.072 315.533 605.007L313.541 604.831C313.285 607.714 312.649 610.469 311.724 613.135L313.613 613.791ZM313.556 605.115C314.044 607.558 314.363 610.018 314.556 612.494L316.55 612.338C316.352 609.795 316.023 607.255 315.517 604.723L313.556 605.115ZM314.528 627.487C314.382 629.991 314.195 632.501 314.007 635.022L316.001 635.171C316.189 632.653 316.378 630.126 316.524 627.603L314.528 627.487ZM314.007 635.022C313.884 636.67 313.76 638.323 313.649 639.977L315.644 640.112C315.755 638.466 315.878 636.82 316.001 635.171L314.007 635.022ZM313.212 649.943C313.194 651.612 313.212 653.282 313.278 654.953L315.277 654.874C315.212 653.241 315.194 651.605 315.212 649.964L313.212 649.943ZM313.278 654.953C313.361 657.035 313.559 659.151 313.874 661.266L315.852 660.972C315.548 658.927 315.356 656.884 315.277 654.874L313.278 654.953ZM317.1 673.521C318.68 677.559 320.754 681.35 323.341 684.611L324.908 683.368C322.464 680.287 320.482 676.677 318.963 672.793L317.1 673.521ZM333.194 692.793C335.095 693.74 337.133 694.462 339.308 694.921L339.721 692.964C337.715 692.541 335.837 691.875 334.085 691.003L333.194 692.793ZM339.308 694.921C340.617 695.198 341.968 695.358 343.324 695.388L343.368 693.389C342.14 693.362 340.912 693.216 339.721 692.964L339.308 694.921ZM351.285 693.834C352.533 693.254 353.703 692.5 354.749 691.554L353.407 690.071C352.521 690.872 351.522 691.518 350.442 692.02L351.285 693.834ZM354.749 691.554C355.789 690.613 356.64 689.472 357.278 688.23L355.498 687.317C354.963 688.361 354.255 689.304 353.407 690.071L354.749 691.554ZM358.332 680.079C357.986 678.704 357.343 677.402 356.363 676.288L354.861 677.609C355.613 678.464 356.117 679.474 356.393 680.568L358.332 680.079ZM354.898 677.648C355.854 678.625 356.969 679.416 358.176 680.014L359.064 678.222C358.046 677.717 357.116 677.055 356.327 676.249L354.898 677.648ZM366.017 681.247C367.349 681.048 368.654 680.638 369.863 680.002L368.933 678.232C367.934 678.757 366.846 679.101 365.722 679.269L366.017 681.247ZM369.863 680.002C371.073 679.367 372.15 678.525 373.069 677.541L371.608 676.175C370.832 677.006 369.931 677.707 368.933 678.232L369.863 680.002ZM376.5 670.382C376.691 669.049 376.673 667.682 376.41 666.341L374.448 666.724C374.664 667.832 374.682 668.973 374.52 670.098L376.5 670.382ZM376.41 666.341C376.246 665.5 376.001 664.694 375.7 663.918L373.836 664.641C374.1 665.323 374.309 666.014 374.448 666.724L376.41 666.341ZM373.416 659.593C372.987 658.921 372.543 658.26 372.107 657.612L370.447 658.727C370.885 659.378 371.316 660.02 371.73 660.669L373.416 659.593ZM372.107 657.612C372.033 657.501 371.959 657.391 371.885 657.281L370.225 658.396C370.299 658.506 370.373 658.617 370.447 658.727L372.107 657.612ZM371.446 656.623C371.373 656.514 371.301 656.404 371.23 656.295L369.557 657.392C369.631 657.504 369.705 657.616 369.779 657.728L371.446 656.623ZM371.229 656.295C369.89 654.253 368.674 652.132 367.583 649.949L365.794 650.843C366.919 653.095 368.174 655.283 369.557 657.392L371.229 656.295ZM362.563 636.212C361.404 631.465 360.765 626.588 360.661 621.703L358.661 621.746C358.769 626.777 359.427 631.798 360.62 636.686L362.563 636.212ZM361.969 607.136C362.46 604.745 363.088 602.383 363.856 600.065L361.957 599.436C361.165 601.83 360.516 604.268 360.01 606.734L361.969 607.136ZM363.856 600.065C364.488 598.155 365.205 596.283 365.996 594.442L364.158 593.653C363.346 595.543 362.609 597.469 361.957 599.436L363.856 600.065ZM371.554 583.739C373.626 580.31 375.907 576.972 378.314 573.686L376.701 572.504C374.268 575.824 371.953 579.213 369.842 582.705L371.554 583.739ZM385.745 564.056C387.015 562.47 388.293 560.889 389.573 559.307L388.018 558.05C386.739 559.631 385.457 561.215 384.184 562.806L385.745 564.056ZM389.573 559.307C391.054 557.476 392.537 555.643 394.003 553.804L392.439 552.558C390.978 554.39 389.5 556.217 388.018 558.05L389.573 559.307ZM402.567 542.513C405.326 538.602 407.885 534.597 410.1 530.439L408.335 529.499C406.169 533.565 403.658 537.498 400.933 541.36L402.567 542.513ZM415.624 517.262C416.311 514.993 416.874 512.671 417.298 510.288L415.328 509.938C414.92 512.241 414.375 514.486 413.71 516.683L415.624 517.262ZM417.298 510.288C417.765 507.654 418.05 504.991 418.2 502.31L416.203 502.198C416.057 504.812 415.78 507.395 415.328 509.938L417.298 510.288ZM417.874 486.367C417.679 483.729 417.443 481.09 417.208 478.466L415.216 478.644C415.451 481.271 415.686 483.895 415.879 486.515L417.874 486.367ZM417.208 478.466C417.035 476.529 416.862 474.601 416.707 472.682L414.713 472.843C414.869 474.773 415.043 476.709 415.216 478.644L417.208 478.466ZM416.114 461.143C416.079 457.234 416.27 453.413 416.836 449.71L414.859 449.408C414.273 453.245 414.079 457.178 414.114 461.16L416.114 461.143ZM419.889 438.788C420.627 437.08 421.496 435.408 422.515 433.775L420.819 432.716C419.745 434.436 418.83 436.198 418.053 437.994L419.889 438.788ZM422.515 433.775C423.525 432.157 424.654 430.635 425.877 429.182L424.347 427.894C423.072 429.409 421.885 431.008 420.819 432.716L422.515 433.775ZM434.086 421.124C435.549 419.867 437.044 418.633 438.548 417.39L437.274 415.848C435.772 417.088 434.263 418.335 432.782 419.607L434.086 421.124ZM438.548 417.39C439.311 416.759 440.078 416.127 440.84 415.49L439.559 413.954C438.801 414.587 438.038 415.217 437.274 415.848L438.548 417.39ZM445.371 411.579C446.114 410.906 446.847 410.222 447.567 409.523L446.172 408.089C445.473 408.769 444.757 409.437 444.029 410.096L445.371 411.579ZM447.566 409.523C449.661 407.486 451.646 405.185 453.379 402.709L451.741 401.562C450.083 403.929 448.182 406.135 446.172 408.089L447.566 409.523ZM459.675 385.961C459.791 382.921 459.284 379.88 457.971 376.962L456.147 377.782C457.321 380.393 457.782 383.123 457.677 385.884L459.675 385.961ZM457.06 376.372L451.678 376.366L451.676 378.366L457.057 378.372L457.06 376.372ZM440.915 376.354L430.152 376.342L430.15 378.342L440.913 378.354L440.915 376.354ZM419.389 376.331L414.008 376.325L414.005 378.325L419.387 378.331L419.389 376.331ZM413.966 376.326L413.784 376.333L413.866 378.331L414.047 378.324L413.966 376.326ZM413.42 376.348L413.238 376.355L413.32 378.354L413.502 378.346L413.42 376.348Z" fill="black" mask="url(#path-17-inside-1_1702_58)"/>
</g>
<path d="M608.307 116.14C613.183 118.956 619.417 117.285 622.232 112.407C625.047 107.53 623.376 101.293 618.501 98.477C613.625 95.661 607.391 97.3321 604.576 102.21C601.761 107.087 603.432 113.324 608.307 116.14Z" fill="#00BFA6"/>
<path d="M665.642 14.6089C651.789 6.7376 634.019 11.4292 625.858 25.1173C625.782 25.2437 625.265 26.1391 624.588 27.3111C623.597 29.0293 623.328 31.0712 623.841 32.9876C624.355 34.904 625.608 36.538 627.325 37.5302C628.177 38.0218 629.117 38.3407 630.091 38.4687C631.066 38.5967 632.056 38.5313 633.006 38.2762C633.955 38.0211 634.845 37.5814 635.625 36.9821C636.404 36.3829 637.058 35.6358 637.549 34.7837C638.008 33.9861 638.326 33.4342 638.346 33.4003C639.576 31.2671 641.341 29.491 643.466 28.2469C645.59 27.0028 648.002 26.3334 650.464 26.3047C652.926 26.2759 655.353 26.8887 657.506 28.0829C659.659 29.277 661.465 31.0113 662.745 33.1152C664.025 35.2191 664.735 37.6201 664.806 40.0821C664.877 42.544 664.307 44.982 663.15 47.1564C661.994 49.3307 660.291 51.1664 658.211 52.4829C656.13 53.7994 653.742 54.5514 651.283 54.6649L651.284 54.6689C651.284 54.6689 638.641 55.2815 631.131 61.8017L631.133 61.8037C629.676 63.1865 628.427 64.7729 627.424 66.5135C627.011 67.2287 623.442 73.511 620.592 78.6372C619.609 80.4062 619.36 82.4909 619.9 84.4415C620.439 86.3921 621.724 88.0522 623.476 89.0638C624.357 89.5723 625.329 89.9015 626.337 90.0327C627.345 90.1638 628.369 90.0943 629.35 89.828C630.331 89.5618 631.25 89.1041 632.054 88.4812C632.857 87.8584 633.53 87.0827 634.033 86.1989C636.689 81.5309 639.8 76.1056 640.027 75.7125C642.912 70.7122 650.609 68.5151 656.445 67.5538C663.165 66.4469 669.39 63.2441 674.027 58.2543C675.002 57.2387 675.863 56.1191 676.593 54.9155C678.534 51.5531 679.79 47.8398 680.29 43.9895C680.789 40.1392 680.523 36.2281 679.505 32.4815C678.486 28.7348 676.737 25.2268 674.358 22.1594C671.979 19.092 669.017 16.5259 665.642 14.6089Z" fill="#00BFA6"/>
<path d="M627.073 87.0552C625.321 86.0437 624.036 84.3835 623.497 82.4329C622.957 80.4823 623.205 78.3977 624.188 76.6287C627.039 71.5025 630.608 65.2201 631.021 64.5049C632.024 62.7643 633.273 61.178 634.73 59.7952L634.728 59.7932C635.503 59.1244 636.326 58.513 637.19 57.9638C634.962 58.9153 632.888 60.1936 631.036 61.7566L631.038 61.7585C629.581 63.1414 628.332 64.7277 627.329 66.4683C626.916 67.1835 623.347 73.4658 620.497 78.592C619.514 80.361 619.265 82.4457 619.805 84.3963C620.344 86.3469 621.629 88.007 623.381 89.0186C624.826 89.8527 626.502 90.1958 628.158 89.9962C629.814 89.7967 631.361 89.0654 632.567 87.912C630.693 88.3228 628.733 88.0171 627.073 87.0552Z" fill="#3F3D56"/>
<path d="M607.605 112.862C606.667 111.592 606.036 110.12 605.763 108.564C605.49 107.008 605.583 105.409 606.033 103.895C606.484 102.38 607.28 100.991 608.359 99.8372C609.438 98.6833 610.77 97.796 612.25 97.2453C610.813 97.3999 609.425 97.8584 608.179 98.5906C606.932 99.3227 605.856 100.312 605.02 101.492C604.185 102.672 603.61 104.017 603.334 105.436C603.058 106.855 603.087 108.317 603.419 109.725C603.751 111.132 604.378 112.453 605.259 113.599C606.14 114.746 607.255 115.692 608.529 116.374C609.803 117.056 611.208 117.46 612.65 117.558C614.092 117.655 615.539 117.445 616.894 116.941C615.124 117.132 613.336 116.856 611.706 116.141C610.076 115.425 608.662 114.295 607.605 112.862Z" fill="#3F3D56"/>
<defs>
<clipPath id="clip0_1702_58">
<rect width="806.246" height="550" fill="white" transform="translate(0 147)"/>
</clipPath>
</defs>
</svg>
