<svg width="40" height="40" viewBox="0 0 40 40" fill="none" xmlns="http://www.w3.org/2000/svg">
<g clip-path="url(#clip0_1549_5969)">
<path d="M8.4 12.8C3.7836 12.8 0 16.572 0 21.176C0 22.96 0.5696 24.618 1.534 25.9808L7.3752 36.0784C8.1932 37.1472 8.7372 36.9444 9.4176 36.0224L15.86 25.0584C15.99 24.8224 16.092 24.572 16.1812 24.316C16.59 23.3196 16.8002 22.253 16.8 21.176C16.8 16.572 13.0176 12.8 8.4 12.8ZM8.4 16.7248C10.8864 16.7248 12.864 18.6972 12.864 21.1764C12.864 23.6556 10.8864 25.6272 8.4 25.6272C5.914 25.6272 3.936 23.6552 3.936 21.1764C3.936 18.6972 5.914 16.7248 8.4 16.7248ZM35.1 0C32.4072 0 30.2 2.2004 30.2 4.8864C30.2 5.9268 30.532 6.894 31.0948 7.6888L34.5024 13.5792C34.9796 14.2024 35.2968 14.084 35.6936 13.5464L39.4516 7.1504C39.5276 7.0132 39.5872 6.8672 39.6388 6.7176C39.8774 6.13657 40.0001 5.5145 40 4.8864C40 2.2 37.7936 0 35.1 0ZM35.1 2.2896C36.5504 2.2896 37.704 3.44 37.704 4.8864C37.704 6.3324 36.5504 7.4824 35.1 7.4824C33.65 7.4824 32.496 6.3324 32.496 4.8864C32.496 3.44 33.65 2.2896 35.1 2.2896Z" fill="#22B77E"/>
<path fill-rule="evenodd" clip-rule="evenodd" d="M35.2836 14.9648C34.3848 14.9848 33.4836 15.0228 32.5808 15.0896L32.72 17.3024C33.5872 17.2396 34.4559 17.1992 35.3252 17.1812L35.2836 14.9648ZM30.4936 15.2928C29.1056 15.4652 27.7056 15.7108 26.3216 16.1056L26.8428 18.25C28.1004 17.8916 29.4036 17.66 30.7272 17.4956L30.4936 15.2928ZM24.2492 16.848C23.8345 17.0311 23.433 17.2427 23.0476 17.4812L23.046 17.4832L23.0436 17.484C22.4936 17.8304 21.914 18.27 21.4408 18.9088C21.098 19.3716 20.8176 19.9568 20.752 20.6488L22.79 20.8748C22.8052 20.7124 22.8884 20.498 23.038 20.2964H23.0388V20.2956C23.28 19.9692 23.6416 19.6728 24.0716 19.4016L24.0732 19.4008C24.3797 19.2117 24.6989 19.0438 25.0284 18.8984L24.2492 16.848ZM23.2 21.862L21.8788 23.556C22.192 23.8424 22.5204 24.0624 22.8376 24.2464L22.8416 24.2484L22.8456 24.2508C23.8984 24.8496 24.984 25.1876 25.9904 25.5084L26.5688 23.3812C25.5628 23.0604 24.6144 22.7508 23.8016 22.2892C23.5688 22.154 23.3648 22.0128 23.2 21.862ZM28.534 23.9796L27.9692 26.1104L28.2364 26.1936L28.5644 26.2984C29.65 26.6516 30.69 27.0288 31.6196 27.5508L32.5628 25.5828C31.4388 24.9512 30.272 24.5384 29.1476 24.1728L29.1444 24.172L28.8076 24.0644L28.534 23.9796ZM34.4808 27.0596L33.0316 28.6276C33.374 28.9984 33.6304 29.4444 33.7552 29.9052L33.756 29.9076L33.7568 29.9112C33.9056 30.4492 33.906 31.082 33.7896 31.7212L35.7992 32.15C35.9632 31.2476 35.9896 30.2568 35.72 29.2788C35.4852 28.414 35.0372 27.6628 34.4808 27.0596ZM33.088 33.0572C32.8666 33.2911 32.6218 33.5018 32.3576 33.686H32.3568C31.6368 34.1924 30.8016 34.574 29.9144 34.902L30.576 36.9996C31.5464 36.6408 32.5428 36.2008 33.474 35.5456L33.4764 35.5436L33.4776 35.5428C33.86 35.2751 34.2138 34.9685 34.5332 34.628L33.088 33.0572ZM28.032 35.4928C26.7468 35.8384 25.4332 36.1016 24.1036 36.3248L24.4172 38.5164C25.7856 38.2864 27.1596 38.0116 28.5252 37.6444L28.032 35.4928ZM22.1032 36.6272C20.7648 36.81 19.4192 36.9592 18.0696 37.0864L18.2464 39.2952C19.6168 39.1664 20.9896 39.0148 22.3604 38.8272L22.1032 36.6272ZM16.0412 37.2604C14.6888 37.3676 13.3332 37.4548 11.9764 37.5284L12.0788 39.7428C13.4488 39.6688 14.82 39.5804 16.1908 39.4716L16.0412 37.2604ZM9.9376 37.6284C9.1244 37.6664 8.3092 37.6976 7.492 37.7264L7.5592 39.9428C8.38151 39.9146 9.20366 39.8818 10.0256 39.8444L9.9376 37.6284Z" fill="#22B77E"/>
</g>
<defs>
<clipPath id="clip0_1549_5969">
<rect width="40" height="40" fill="white"/>
</clipPath>
</defs>
</svg>
