<svg width="1028" height="693" viewBox="0 0 1028 693" fill="none" xmlns="http://www.w3.org/2000/svg">
<path opacity="0.1" d="M1007.53 212.56C997.359 188.954 983.614 167.054 966.78 147.63L401.41 142.06L866.9 76.6796C836.829 64.7041 804.815 58.3521 772.45 57.9396C727.921 22.347 673.092 2.07937 616.119 0.151497C559.146 -1.77637 503.073 14.7385 456.24 47.2396C418.813 27.9992 377.323 18.0005 335.24 18.0796C209.62 18.0796 104.94 105.08 81.46 220.46L1007.53 212.56Z" fill="#00BFA6" fill-opacity="0.5"/>
<path opacity="0.1" d="M1027.41 309.32C1027.44 278.032 1021.45 247.031 1009.79 218L29.93 320.85C19.8257 339.125 12.0965 358.616 6.93 378.85L310.36 424.09L0 457.09C9.34 587.7 121.31 690.84 258.09 690.84C326.94 690.84 389.51 664.7 435.86 622.08C482.37 665.51 545.53 692.21 615.12 692.21C718.38 692.21 807.5 633.419 849 548.409C932.27 521.989 996.95 455.63 1019.09 372.62L635.41 313.06H1027.41C1027.39 311.81 1027.41 310.57 1027.41 309.32Z" fill="#00BFA6" fill-opacity="0.5"/>
</svg>
