<svg width="12" height="11" viewBox="0 0 12 11" fill="none" xmlns="http://www.w3.org/2000/svg">
<path d="M11.2812 4.86156L9.11153 6.70656L9.76147 9.45343C9.79587 9.59703 9.78605 9.74732 9.73326 9.88552C9.68047 10.0237 9.58703 10.1437 9.46465 10.2304C9.34226 10.3171 9.19635 10.3668 9.04515 10.3732C8.89396 10.3796 8.74419 10.3424 8.61457 10.2662L6.15574 8.81312L3.7022 10.2662C3.57258 10.3424 3.42281 10.3796 3.27162 10.3732C3.12042 10.3668 2.97451 10.3171 2.85212 10.2304C2.72973 10.1437 2.6363 10.0237 2.58351 9.88552C2.53072 9.74732 2.5209 9.59703 2.5553 9.45343L3.20428 6.70937L1.0341 4.86156C0.91932 4.7651 0.83632 4.63777 0.795511 4.49554C0.754703 4.3533 0.757902 4.20249 0.804708 4.06202C0.851514 3.92155 0.939843 3.79767 1.05862 3.70591C1.17739 3.61416 1.32133 3.55862 1.47237 3.54625L4.33291 3.30484L5.44951 0.709842C5.50782 0.573677 5.60617 0.457367 5.73218 0.375556C5.8582 0.293745 6.00624 0.250092 6.15766 0.250092C6.30909 0.250092 6.45713 0.293745 6.58314 0.375556C6.70916 0.457367 6.80751 0.573677 6.86582 0.709842L7.98579 3.30484L10.8454 3.54625C10.9964 3.55862 11.1403 3.61416 11.2591 3.70591C11.3779 3.79767 11.4662 3.92155 11.513 4.06202C11.5598 4.20249 11.563 4.3533 11.5222 4.49554C11.4814 4.63777 11.3984 4.7651 11.2836 4.86156H11.2812Z" fill="#FFA800"/>
</svg>