<svg width="50" height="40" viewBox="0 0 50 40" fill="none" xmlns="http://www.w3.org/2000/svg">
<path d="M7.5 17.5C10.2578 17.5 12.5 15.2578 12.5 12.5C12.5 9.74219 10.2578 7.5 7.5 7.5C4.74219 7.5 2.5 9.74219 2.5 12.5C2.5 15.2578 4.74219 17.5 7.5 17.5ZM42.5 17.5C45.2578 17.5 47.5 15.2578 47.5 12.5C47.5 9.74219 45.2578 7.5 42.5 7.5C39.7422 7.5 37.5 9.74219 37.5 12.5C37.5 15.2578 39.7422 17.5 42.5 17.5ZM45 20H40C38.625 20 37.3828 20.5547 36.4766 21.4531C39.625 23.1797 41.8594 26.2969 42.3438 30H47.5C48.8828 30 50 28.8828 50 27.5V25C50 22.2422 47.7578 20 45 20ZM25 20C29.8359 20 33.75 16.0859 33.75 11.25C33.75 6.41406 29.8359 2.5 25 2.5C20.1641 2.5 16.25 6.41406 16.25 11.25C16.25 16.0859 20.1641 20 25 20ZM31 22.5H30.3516C28.7266 23.2812 26.9219 23.75 25 23.75C23.0781 23.75 21.2812 23.2812 19.6484 22.5H19C14.0312 22.5 10 26.5313 10 31.5V33.75C10 35.8203 11.6797 37.5 13.75 37.5H36.25C38.3203 37.5 40 35.8203 40 33.75V31.5C40 26.5313 35.9688 22.5 31 22.5ZM13.5234 21.4531C12.6172 20.5547 11.375 20 10 20H5C2.24219 20 0 22.2422 0 25V27.5C0 28.8828 1.11719 30 2.5 30H7.64844C8.14062 26.2969 10.375 23.1797 13.5234 21.4531Z" fill="#22B77E"/>
</svg>
