<svg width="394" height="125" viewBox="0 0 394 125" fill="none" xmlns="http://www.w3.org/2000/svg">
<path d="M8.81345 15.1324C6.29874 15.5643 4.26766 16.7007 2.72834 18.5327C1.25937 20.261 0.372525 22.7132 0.0654244 25.8869C-0.0807246 29.5824 0.0178153 34.331 0.362738 40.1387C0.789906 45.9317 1.4869 52.0839 2.44622 58.6046C3.40544 65.1246 4.50561 71.7544 5.7414 78.4986C7.04344 85.1371 8.35515 91.3194 9.67253 97.0383C10.9902 102.759 12.1449 107.409 13.1402 110.987C14.6266 115.76 16.5306 119.36 18.8431 121.791C21.1699 124.312 24.1247 125.26 27.7296 124.655C31.6409 123.999 34.2786 121.978 35.6557 118.56C37.1203 115.221 37.5917 111.355 37.0459 106.963C36.5783 103.2 35.8041 98.8847 34.7167 94.0304C34.0563 90.8212 33.3235 87.6021 32.5542 84.3721C33.948 86.1268 35.6184 87.6493 37.5834 88.9278C40.9955 91.148 45.3653 91.8623 50.7302 91.1133C58.458 90.0344 64.2687 85.9394 68.2515 78.7211C72.2157 71.4311 73.6276 60.6999 72.3465 46.5744C71.554 37.8364 69.7506 30.725 66.8826 25.2317C64.0084 19.6523 60.3688 15.6732 55.966 13.3135C51.5655 10.9551 46.6959 10.1366 41.3996 10.8779C35.7667 11.6662 31.0851 14.0547 27.3971 18.0033C24.9294 20.6453 23.1563 23.8804 22.0413 27.6725C20.5858 23.4595 18.9296 20.3183 17.0676 18.2763C14.7573 15.6372 11.9994 14.5853 8.81345 15.1324ZM35.5039 31.0085C35.7358 30.9743 35.9334 30.9639 36.0862 30.9753C36.5085 31.0041 36.9205 31.1128 37.3158 31.2902C39.7358 32.3761 41.4904 36.0389 40.9543 39.9667C40.3048 44.7254 37.415 49.42 33.9662 48.4485C29.3523 47.1486 29.5084 40.8347 29.6149 40.0711C30.6041 32.9753 33.883 31.2663 35.5039 31.0085ZM21.064 40.5083C21.7638 40.3997 22.4781 40.5224 23.1605 40.8403C25.2104 41.7948 26.9534 44.4798 27.1215 47.7214C27.3549 52.2209 25.5038 57.1381 22.1644 56.9726C17.6979 56.7515 16.7487 50.9271 16.7134 50.2046C16.338 42.5277 19.9217 40.6892 21.064 40.5083ZM49.8866 38.0548C50.9641 37.9228 51.8157 38.1462 52.3462 38.3984C52.4925 38.468 52.6147 38.5393 52.7103 38.6066C55.2202 40.3731 55.5078 45.3866 52.9773 49.0706C50.3417 52.9077 45.8066 55.523 43.2137 52.8395C39.748 49.2527 42.6506 43.8057 43.0871 43.1796C45.6646 39.4825 48.0911 38.275 49.8866 38.0548ZM34.7165 57.0668C34.8225 57.0592 34.9076 57.0613 34.9679 57.0814C37.1778 58.5787 42.2967 65.6207 43.0535 70.9015C43.5272 74.2063 38.7148 78.7568 34.7093 74.3709C33.348 72.8802 32.9204 71.4532 31.7007 71.3568C30.1976 71.2378 29.6741 73.1798 26.4121 73.5396C21.6384 74.0661 19.61 67.4872 24.8773 62.0599C26.7362 60.1445 33.1002 57.1877 34.7165 57.0668C34.7165 57.0668 34.7164 57.0667 34.7165 57.0668ZM53.3641 55.0387C54.578 54.8423 55.5389 55.0822 56.1871 55.3955C56.529 55.5608 56.784 55.747 56.9443 55.9004C59.0485 57.9122 58.7433 62.6184 55.998 65.6702C53.1393 68.848 48.6602 70.6063 46.5784 67.7322C43.7914 63.8845 47.091 59.2494 47.5648 58.7319C49.8227 56.2655 51.8035 55.2913 53.3641 55.0387Z" fill="black" fill-opacity="0.05"/>
<path d="M138.238 86.6037C134.119 86.8147 131.334 85.8035 129.872 83.5324C128.407 81.1742 127.538 77.3721 127.281 72.1322C127.893 72.3212 128.505 72.5107 129.117 72.7009C125.256 82.8224 117.293 88.2292 105.136 89.2552C99.6029 89.7223 94.9427 89.0261 91.1234 87.1302C87.3048 85.2347 84.3228 82.5939 82.183 79.1854C80.1157 75.6791 78.8774 71.7224 78.492 67.3089C77.8314 59.7425 79.7702 53.4741 84.39 48.55C89.0079 43.6278 95.5025 40.7699 103.803 40.0848C108.98 39.6576 113.557 40.1804 117.509 41.629C121.543 43.0721 124.943 45.261 127.703 48.1773C126.555 48.1556 125.408 48.1355 124.26 48.1173C123.713 40.5343 122.089 35.2476 119.354 32.254C116.618 29.1745 112.83 27.8036 108.019 28.1777C105.698 28.3583 103.36 28.9561 101.014 29.9714C98.6609 30.8965 96.3159 31.8746 93.9791 32.9058C91.725 33.9294 89.4049 34.5582 87.0122 34.7935C84.0424 35.0856 81.6609 34.4239 79.8567 32.7951C78.0527 31.1667 77.022 28.9145 76.7745 26.0316C76.4342 22.0687 77.7073 18.3364 80.6321 14.8535C83.5556 11.3721 87.5666 8.47216 92.6634 6.19254C97.8376 3.81516 103.529 2.38407 109.703 1.92296C117.654 1.32913 124.605 2.57647 130.486 5.60268C136.453 8.62493 140.762 13.5496 143.421 20.3171C145.52 25.3897 147.076 31.1657 148.107 37.6468C149.135 44.0377 149.753 50.8937 149.98 58.2222C150.206 65.5453 149.938 71.2686 149.189 75.3702C148.437 79.3848 147.137 82.2463 145.289 83.9575C143.517 85.5758 141.17 86.4536 138.238 86.6037ZM113.002 69.4363C114.929 69.2911 116.798 68.8382 118.612 68.0769C120.506 67.3101 122.064 66.2546 123.288 64.9057C124.592 63.5519 125.2 61.9278 125.105 60.0301C125.019 58.3131 124.422 56.9452 123.311 55.929C122.195 54.8225 120.73 54.1024 118.916 53.7736C117.098 53.3544 115.171 53.2195 113.138 53.3705C109.64 53.6303 106.882 54.6237 104.874 56.3319C102.947 58.0342 102.072 60.1074 102.239 62.5436C102.399 64.8902 103.456 66.7048 105.401 67.9956C107.34 69.1967 109.87 69.6722 113.002 69.4363Z" fill="black" fill-opacity="0.05"/>
<path d="M154.561 29.3955C154.309 19.9819 155.457 13.1604 158.053 8.91202C160.73 4.66801 164.41 2.48497 169.06 2.39466C172.018 2.33721 174.312 3.20981 175.934 4.99863C177.555 6.7882 178.67 9.22004 179.282 12.2916C179.978 15.3628 180.336 18.798 180.363 22.5998C180.382 25.2254 180.363 28.3013 180.306 31.8327C180.332 35.2723 180.317 38.8471 180.262 42.559C180.208 46.2701 180.111 49.7114 179.973 52.8802C180.136 52.8802 180.299 52.8748 180.461 52.8748C182.502 42.7179 184.648 34.6953 186.871 28.805C189.177 22.8243 191.518 18.5711 193.867 16.0452C196.217 13.4288 198.534 12.1324 200.799 12.1551C202.273 12.1698 203.728 12.6692 205.159 13.6531C206.089 14.2934 207.009 15.1385 207.918 16.1884C210.309 18.7636 212.622 22.9741 214.833 28.8192C217.046 34.5738 219.194 42.2795 221.247 51.9362C221.41 51.9416 221.573 51.946 221.736 51.9508C221.7 46.6086 221.671 40.9497 221.646 34.9741C221.624 28.9062 221.669 23.389 221.785 18.4116C221.938 11.896 223.176 7.18303 225.529 4.2689C227.966 1.27038 231.265 -0.155611 235.401 0.0134412C240.383 0.216977 243.893 2.42809 245.912 6.60379C248.022 10.6973 248.917 16.132 248.631 22.9131C248.422 27.8857 247.948 33.2035 247.218 38.8736C246.492 44.4519 245.573 49.8404 244.469 55.0382C243.365 60.2357 242.176 64.7528 240.902 68.586C238.913 74.287 236.636 78.5772 234.068 81.4569C231.497 84.3379 228.358 85.708 224.627 85.5841C221.768 85.4891 218.905 84.1379 216.01 81.531C213.116 78.9245 210.398 74.5682 207.828 68.4603C206.684 65.6984 205.625 62.5168 204.651 58.9163C203.44 54.4367 202.359 49.3046 201.41 43.5243C201.246 43.5243 201.082 43.5189 200.918 43.5189C199.035 53.3615 196.675 61.1787 193.844 66.957C191.091 72.6486 188.138 76.7225 184.96 79.1817C181.86 81.6411 178.854 82.8921 175.913 82.933C172.019 82.9873 168.661 81.4266 165.807 78.2351C162.953 74.9555 160.714 69.8098 159.092 62.798C158.2 59.294 157.417 55.5602 156.745 51.598C156.153 47.5421 155.639 43.5753 155.207 39.6957C154.858 35.8127 154.641 32.3811 154.561 29.3946L154.561 29.3955Z" fill="black" fill-opacity="0.05"/>
<path d="M291.311 3.44919C299.946 4.1929 306.025 6.38728 309.522 9.91451C313.114 13.3652 314.683 17.5786 314.269 22.5343C314.02 25.5083 312.862 27.8863 310.804 29.6751C308.827 31.4726 306.198 32.2058 302.905 31.8875C300.27 31.6328 297.504 30.9192 294.6 29.7492C291.696 28.5794 288.34 27.8326 284.54 27.52C282.144 27.3229 280.293 27.6762 278.992 28.5727C277.691 29.4694 276.996 30.6866 276.902 32.2214C276.808 33.7564 277.348 35.0672 278.519 36.1562C279.697 37.1566 282.236 38.0785 286.138 38.9516C292.246 40.1008 297.329 41.7077 301.371 43.7311C305.424 45.6657 308.368 48.4209 310.207 51.974C312.047 55.5294 312.712 60.1897 312.225 65.958C311.486 74.6989 308.093 80.7855 302.109 84.2795C296.126 87.6865 288.169 88.9207 278.155 88.1138C271.319 87.563 265.885 86.4564 261.82 84.734C257.839 83.0183 254.989 80.809 253.274 78.0793C251.563 75.2599 250.777 72.136 250.932 68.7017C251.079 65.4481 252.16 62.971 254.186 61.2781C256.296 59.4998 258.694 58.6949 261.367 58.8687C263.23 58.9898 265.2 59.3943 267.273 60.0835C269.347 60.7727 271.538 61.5213 273.843 62.3303C276.148 63.1395 278.51 63.6423 280.932 63.8396C285.369 64.201 287.695 62.9141 287.901 59.9334C287.97 58.9408 287.787 58.0625 287.35 57.2986C286.919 56.4446 286.033 55.6874 284.689 55.03C283.346 54.3733 281.261 53.7454 278.439 53.1602C273.113 52.1052 268.534 50.7814 264.693 49.1624C260.94 47.4593 258.029 45.0598 255.96 41.9455C253.977 38.7478 253.096 34.4829 253.338 29.1518C253.721 20.7484 257.178 14.0952 263.817 9.26308C270.446 4.43833 279.653 2.4452 291.311 3.44919Z" fill="black" fill-opacity="0.05"/>
<path d="M330.042 119.997C324.341 119.297 321.828 115.195 322.53 107.628C322.823 104.478 323.94 101.01 325.898 97.2373C327.935 93.4734 330.587 89.6923 333.865 85.9068C337.232 82.0407 340.993 78.5057 345.148 75.3096C345.043 75.9339 344.937 76.558 344.832 77.1823C336.248 66.6753 329.778 57.2326 325.529 48.7328C321.284 40.2389 319.429 32.318 320.073 24.9267C320.512 19.8809 322.012 16.0888 324.59 13.5545C327.249 11.0311 330.628 10.0027 334.707 10.4853C340.616 11.1844 345.486 15.6655 349.236 23.8958C352.999 32.0426 355.388 43.8874 356.404 59.4436C356.566 59.4659 356.728 59.4881 356.89 59.51C360.512 43.6731 364.77 32.2371 369.681 25.1729C374.587 18.1166 379.847 15.0053 385.385 15.8474C388.692 16.3502 391.032 17.8578 392.401 20.3567C393.853 22.8696 394.314 26.1873 393.794 30.3103C393.433 33.1792 392.541 36.6009 391.126 40.5837C389.71 44.5669 387.837 48.9315 385.512 53.6902C383.28 58.3718 380.662 63.2664 377.666 68.3871C374.761 73.4297 371.588 78.4804 368.15 83.5481C359.296 96.6879 351.973 106.197 345.995 112.063C340.103 117.933 334.814 120.583 330.042 119.997Z" fill="black" fill-opacity="0.05"/>
</svg>
